<svg version="1.1" xmlns="http://www.w3.org/2000/svg" viewBox="0 0 76 75" width="76" height="75"><!-- svg-source:excalidraw --><metadata></metadata><defs><style class="style-fonts">
      </style></defs><g transform="translate(53 65) rotate(0 -15 -26)" stroke="none"><path fill="#e03131" d="M -4.55,9.10 Q -4.55,9.10 -7.50,7.83 -10.45,6.56 -15.16,6.66 -19.88,6.75 -23.65,7.02 -27.43,7.29 -28.90,7.11 -30.37,6.93 -31.75,6.40 -33.14,5.88 -34.36,5.03 -35.58,4.19 -36.56,3.08 -37.54,1.97 -38.23,0.66 -38.92,-0.64 -39.27,-2.08 -39.63,-3.52 -39.62,-5.00 -39.62,-6.48 -39.27,-7.92 -38.91,-9.36 -38.22,-10.67 -37.53,-11.98 -36.55,-13.09 -35.57,-14.20 -34.35,-15.04 -33.13,-15.88 -31.74,-16.41 -30.35,-16.93 -28.88,-17.11 -27.41,-17.29 -23.10,-17.50 -18.80,-17.71 -13.83,-17.96 -8.87,-18.20 -3.40,-18.40 2.06,-18.60 -0.77,-14.02 -3.61,-9.44 -1.35,-15.54 0.90,-21.64 -1.79,-25.07 -4.49,-28.49 -5.87,-33.07 -7.25,-37.66 -6.65,-42.39 -6.05,-47.13 -3.62,-51.50 -1.19,-55.86 2.61,-58.66 6.43,-61.45 8.15,-61.73 9.87,-62.02 11.60,-61.88 13.34,-61.74 15.00,-61.20 16.65,-60.65 18.13,-59.72 19.60,-58.79 20.81,-57.54 22.02,-56.28 22.90,-54.77 23.77,-53.27 24.26,-51.59 24.75,-49.92 24.82,-48.18 24.90,-46.44 24.55,-44.73 24.21,-43.02 23.46,-41.44 22.72,-39.87 21.62,-38.51 20.52,-37.16 19.13,-36.11 17.74,-35.06 16.13,-34.37 14.53,-33.69 19.81,-40.63 25.09,-47.58 23.71,-39.35 22.33,-31.12 22.50,-25.74 22.66,-20.35 20.60,-14.13 18.54,-7.91 17.63,-12.77 16.71,-17.62 18.79,-13.57 20.88,-9.51 20.42,-7.78 19.96,-6.06 19.10,-4.50 18.24,-2.93 17.04,-1.62 15.83,-0.31 14.34,0.67 12.86,1.66 11.18,2.26 9.50,2.86 7.73,3.04 5.95,3.22 4.18,2.98 2.42,2.73 0.76,2.06 -0.88,1.40 -2.33,0.36 -3.78,-0.67 -4.94,-2.03 -6.10,-3.38 -6.90,-4.98 -7.69,-6.57 -8.09,-8.31 -8.48,-10.05 -8.45,-11.83 -8.42,-13.62 0.06,-5.25 8.54,3.10 3.66,3.47 -1.21,3.84 -5.94,3.89 -10.67,3.95 -15.52,3.99 -20.37,4.03 -25.07,4.07 -29.77,4.10 -32.42,5.93 -35.07,7.75 -36.83,8.27 -38.59,8.80 -40.42,8.88 -42.25,8.97 -44.05,8.61 -45.85,8.25 -47.51,7.48 -49.17,6.70 -50.59,5.55 -52.02,4.40 -53.13,2.94 -54.24,1.49 -54.97,-0.19 -55.70,-1.87 -56.01,-3.68 -56.31,-5.48 -56.18,-7.31 -56.04,-9.14 -55.47,-10.88 -54.90,-12.62 -53.93,-14.18 -52.96,-15.74 -51.65,-17.01 -50.33,-18.29 -48.75,-19.22 -47.17,-20.14 -51.22,-16.27 -55.27,-12.40 -54.74,-17.40 -54.20,-22.40 -54.13,-27.49 -54.06,-32.58 -55.39,-38.66 -56.73,-44.75 -55.93,-49.50 -55.12,-54.25 -49.15,-59.96 -43.19,-65.67 -38.96,-66.27 -34.73,-66.87 -30.18,-66.95 -25.62,-67.02 -17.44,-65.74 -9.25,-64.46 -4.03,-64.83 1.17,-65.19 4.59,-65.21 8.01,-65.24 9.83,-65.01 11.65,-64.79 13.37,-64.14 15.09,-63.49 16.60,-62.45 18.11,-61.40 19.33,-60.03 20.55,-58.65 21.40,-57.03 22.26,-55.40 22.70,-53.61 23.14,-51.83 23.14,-49.99 23.14,-48.16 22.70,-46.37 22.26,-44.59 21.40,-42.96 20.55,-41.34 19.33,-39.96 18.11,-38.59 16.60,-37.54 15.09,-36.50 13.37,-35.85 11.65,-35.20 9.83,-34.98 8.01,-34.75 15.55,-41.70 23.10,-48.65 21.23,-43.36 19.36,-38.07 16.96,-34.44 14.57,-30.82 13.80,-26.06 13.02,-21.30 9.24,-15.53 5.46,-9.76 -0.55,-6.71 -6.57,-3.67 -15.36,-4.67 -24.16,-5.68 -28.89,-10.65 -33.62,-15.63 -35.71,-22.92 -37.80,-30.22 -37.75,-36.67 -37.70,-43.11 -35.64,-46.95 -33.59,-50.79 -29.91,-53.57 -26.23,-56.35 -20.95,-56.76 -15.68,-57.17 -10.87,-55.10 -6.05,-53.03 -3.45,-49.44 -0.84,-45.85 -0.00,-40.35 0.83,-34.85 0.57,-32.46 0.32,-30.07 -0.67,-27.88 -1.67,-25.70 -3.32,-23.95 -4.97,-22.20 -7.09,-21.06 -9.21,-19.93 -11.58,-19.54 -13.95,-19.14 -16.32,-19.52 -18.69,-19.90 -20.82,-21.02 -22.95,-22.14 -24.61,-23.88 -26.27,-25.62 -27.28,-27.80 -28.30,-29.98 -28.56,-32.36 -28.83,-34.75 -28.32,-37.10 -27.81,-39.45 -26.58,-41.51 -25.35,-43.58 -23.52,-45.14 -21.69,-46.70 -19.46,-47.60 -17.23,-48.49 -14.83,-48.63 -12.43,-48.77 -10.12,-48.13 -7.80,-47.50 -5.80,-46.15 -3.81,-44.81 -2.35,-42.90 -0.89,-40.99 -0.12,-38.72 0.65,-36.44 0.66,-34.04 0.66,-31.64 -0.09,-29.36 -0.85,-27.08 -2.30,-25.16 -3.75,-23.24 -5.73,-21.89 -7.72,-20.53 -10.03,-19.88 -12.34,-19.23 -14.74,-19.35 -17.15,-19.48 -19.38,-20.36 -21.62,-21.24 -23.45,-22.79 -25.29,-24.34 -26.53,-26.40 -27.78,-28.46 -28.30,-30.80 -28.83,-33.15 -28.83,-33.14 -28.83,-33.14 -26.59,-31.87 -24.35,-30.60 -20.14,-29.70 -15.94,-28.81 -12.55,-33.70 -9.15,-38.59 -8.25,-33.49 -7.35,-28.38 -10.73,-31.07 -14.11,-33.75 -10.60,-41.97 -7.09,-50.19 0.45,-57.71 8.01,-65.24 9.83,-65.01 11.65,-64.79 13.37,-64.14 15.09,-63.49 16.60,-62.45 18.11,-61.40 19.33,-60.03 20.55,-58.65 21.40,-57.03 22.26,-55.40 22.70,-53.62 23.14,-51.83 23.14,-50.00 23.14,-48.16 22.70,-46.37 22.26,-44.59 21.40,-42.96 20.55,-41.34 19.33,-39.96 18.11,-38.59 16.60,-37.54 15.09,-36.50 13.37,-35.85 11.65,-35.20 9.83,-34.98 8.01,-34.75 6.44,-34.77 4.88,-34.78 0.15,-34.80 -4.56,-34.83 -9.31,-34.98 -14.05,-35.12 -18.78,-36.03 -23.51,-36.95 -28.55,-37.16 -33.59,-37.37 -30.54,-42.42 -27.49,-47.47 -25.72,-38.30 -23.95,-29.14 -24.04,-23.65 -24.13,-18.15 -24.91,-11.83 -25.68,-5.51 -30.37,1.12 -35.07,7.75 -36.83,8.27 -38.58,8.79 -40.42,8.88 -42.25,8.97 -44.05,8.61 -45.84,8.26 -47.50,7.48 -49.17,6.70 -50.59,5.55 -52.02,4.40 -53.13,2.95 -54.24,1.49 -54.97,-0.18 -55.70,-1.87 -56.01,-3.67 -56.31,-5.48 -56.18,-7.31 -56.04,-9.14 -55.47,-10.88 -54.90,-12.62 -53.93,-14.18 -52.96,-15.73 -51.65,-17.01 -50.33,-18.29 -48.75,-19.22 -47.17,-20.14 -48.74,-17.74 -50.32,-15.34 -46.14,-18.80 -41.96,-22.26 -35.04,-24.17 -28.12,-26.09 -23.15,-26.05 -18.17,-26.02 -13.53,-25.97 -8.88,-25.93 -3.76,-25.76 1.34,-25.58 11.11,-17.55 20.88,-9.51 20.42,-7.78 19.96,-6.06 19.10,-4.50 18.24,-2.93 17.04,-1.62 15.83,-0.31 14.34,0.67 12.86,1.65 11.18,2.26 9.50,2.86 7.73,3.04 5.95,3.22 4.19,2.98 2.42,2.73 0.76,2.07 -0.88,1.40 -2.33,0.36 -3.78,-0.67 -4.94,-2.02 -6.10,-3.38 -6.89,-4.97 -7.69,-6.57 -8.09,-8.31 -8.48,-10.05 -8.45,-11.83 -8.42,-13.61 -7.38,-10.32 -6.34,-7.03 -6.49,-13.80 -6.65,-20.57 -6.46,-27.10 -6.27,-33.64 -4.90,-38.55 -3.53,-43.45 1.44,-52.45 6.43,-61.45 8.15,-61.73 9.87,-62.02 11.60,-61.88 13.34,-61.74 15.00,-61.20 16.65,-60.65 18.13,-59.72 19.60,-58.79 20.81,-57.54 22.02,-56.28 22.90,-54.77 23.77,-53.27 24.26,-51.59 24.75,-49.92 24.82,-48.18 24.90,-46.44 24.55,-44.73 24.21,-43.02 23.46,-41.44 22.72,-39.87 21.62,-38.51 20.52,-37.16 19.13,-36.11 17.74,-35.06 16.13,-34.38 14.53,-33.69 16.85,-37.41 19.17,-41.14 21.34,-36.45 23.52,-31.76 24.94,-23.35 26.37,-14.95 22.55,-7.75 18.74,-0.55 10.40,4.02 2.06,8.60 -3.40,8.40 -8.87,8.20 -13.83,7.96 -18.80,7.71 -23.11,7.50 -27.43,7.29 -28.90,7.11 -30.37,6.93 -31.75,6.40 -33.14,5.88 -34.36,5.04 -35.58,4.19 -36.56,3.08 -37.54,1.97 -38.23,0.66 -38.92,-0.64 -39.27,-2.08 -39.63,-3.52 -39.62,-5.00 -39.62,-6.48 -39.27,-7.92 -38.91,-9.36 -38.22,-10.67 -37.53,-11.98 -36.55,-13.09 -35.57,-14.20 -34.35,-15.04 -33.13,-15.88 -31.74,-16.41 -30.36,-16.93 -28.88,-17.11 -27.41,-17.29 -24.49,-17.08 -21.57,-16.88 -16.93,-16.44 -12.28,-16.00 -6.66,-14.16 -1.04,-12.31 1.75,-10.70 4.55,-9.10 5.57,-8.42 6.60,-7.75 7.43,-6.85 8.26,-5.94 8.85,-4.87 9.44,-3.79 9.76,-2.61 10.08,-1.42 10.10,-0.19 10.13,1.02 9.85,2.22 9.58,3.42 9.04,4.52 8.49,5.61 7.69,6.55 6.90,7.48 5.90,8.20 4.90,8.92 3.76,9.37 2.63,9.83 1.41,10.00 0.19,10.18 -1.02,10.05 -2.24,9.93 -3.39,9.51 -4.55,9.10 -4.55,9.10 L -4.55,9.10 Z"></path></g><g transform="translate(38 13) rotate(0 2.5 14.5)" stroke="none"><path fill="#1e1e1e" d="M 4.59,-0.61 Q 4.59,-0.61 4.91,3.73 5.22,8.08 5.50,11.46 5.77,14.85 5.82,18.64 5.86,22.43 3.33,23.04 0.79,23.66 0.72,22.52 0.65,21.37 1.02,20.72 1.39,20.07 1.95,19.57 2.51,19.07 3.21,18.78 3.90,18.49 4.65,18.43 5.39,18.37 6.12,18.56 6.85,18.74 7.48,19.15 8.11,19.56 8.58,20.14 9.05,20.73 9.30,21.44 9.56,22.14 9.57,22.89 9.59,23.64 9.37,24.36 9.14,25.08 8.70,25.68 8.26,26.29 7.65,26.73 7.04,27.16 6.32,27.38 5.60,27.60 4.85,27.57 4.10,27.55 3.39,27.29 2.69,27.02 2.11,26.55 1.53,26.08 1.12,25.44 0.72,24.81 0.55,24.08 0.37,23.35 0.43,22.60 0.50,21.85 0.80,21.16 1.10,20.48 1.60,19.92 2.11,19.36 2.76,19.00 3.42,18.63 4.15,18.49 4.89,18.36 5.64,18.46 6.38,18.57 7.05,18.90 7.72,19.24 8.25,19.77 8.78,20.31 9.11,20.98 9.44,21.66 9.54,22.40 9.63,23.14 9.49,23.88 9.34,24.62 9.34,24.62 9.34,24.62 7.39,27.16 5.44,29.70 2.44,29.30 -0.56,28.90 -1.37,25.77 -2.17,22.65 -2.33,19.06 -2.50,15.47 -2.71,12.32 -2.92,9.16 -3.76,4.89 -4.59,0.61 -4.60,0.05 -4.61,-0.50 -4.48,-1.05 -4.35,-1.59 -4.10,-2.09 -3.84,-2.59 -3.48,-3.01 -3.11,-3.43 -2.66,-3.76 -2.20,-4.08 -1.68,-4.28 -1.16,-4.49 -0.60,-4.56 -0.05,-4.64 0.50,-4.57 1.05,-4.51 1.58,-4.32 2.10,-4.13 2.57,-3.82 3.03,-3.50 3.41,-3.09 3.78,-2.68 4.05,-2.18 4.31,-1.69 4.45,-1.15 4.60,-0.61 4.59,-0.61 L 4.59,-0.61 Z"></path></g><g transform="translate(40 55) rotate(0 0 0)" stroke="none"><path d="M-0.3 -1.12 C-0.37 -0.94, -1.56 -1.01, -1.06 -0.78 C-0.55 -0.55, 2.8 -0.15, 2.75 0.28 C2.7 0.72, -0.92 2.01, -1.34 1.82" stroke="none" stroke-width="0" fill="#d2bab0" fill-rule="evenodd"></path><path fill="#1e1e1e" d="M 4.24,-1.32 Q 4.24,-1.32 4.30,-0.26 4.36,0.80 3.93,1.76 3.49,2.73 2.65,3.39 1.82,4.05 0.77,4.24 -0.26,4.43 -1.28,4.11 -2.29,3.80 -3.04,3.04 -3.80,2.29 -4.11,1.28 -4.43,0.26 -4.24,-0.77 -4.04,-1.82 -3.39,-2.65 -2.73,-3.49 -1.76,-3.93 -0.79,-4.36 0.26,-4.30 1.32,-4.23 2.23,-3.68 3.14,-3.13 3.69,-2.23 L 4.24,-1.32 Z"></path></g><g transform="translate(40 10) rotate(0 5 15)" stroke="none"><path fill="#1e1e1e" d="M 0,-5.06 Q 0,-5.06 2.01,-5.14 4.02,-5.21 8.71,-2.99 13.40,-0.76 13.77,2.01 14.15,4.79 13.97,7.48 13.78,10.17 13.64,14.98 13.50,19.79 12.71,23.20 11.92,26.60 10.27,28.89 8.62,31.17 7.85,31.86 7.07,32.54 6.64,33.09 6.21,33.63 5.65,34.06 5.10,34.49 4.46,34.77 3.82,35.05 3.14,35.17 2.45,35.29 1.75,35.24 1.06,35.20 0.39,34.98 -0.26,34.77 -0.86,34.41 -1.45,34.04 -1.94,33.54 -2.43,33.05 -2.79,32.45 -3.14,31.85 -3.35,31.18 -3.55,30.51 -3.59,29.82 -3.62,29.12 -3.49,28.43 -3.36,27.75 -3.07,27.11 -2.78,26.48 -2.94,23.97 -3.10,21.45 -2.00,16.73 -0.90,12.00 -1.56,11.87 -2.23,11.74 -2.69,10.81 -3.15,9.87 -3.29,8.84 -3.42,7.81 -3.23,6.79 -3.03,5.77 -2.52,4.86 -2.00,3.96 -1.23,3.26 -0.45,2.57 0.50,2.16 1.45,1.75 2.49,1.67 3.53,1.58 4.54,1.84 5.55,2.09 6.42,2.65 7.30,3.21 7.95,4.03 8.60,4.84 8.96,5.82 9.31,6.79 9.34,7.83 9.37,8.87 9.06,9.87 8.75,10.86 8.14,11.71 7.54,12.55 6.69,13.16 5.84,13.76 4.85,14.07 3.85,14.37 2.81,14.34 1.77,14.31 0.80,13.95 -0.17,13.59 -0.98,12.94 -1.79,12.28 -2.35,11.40 -2.91,10.53 -3.16,9.52 -3.41,8.51 -3.32,7.47 -3.23,6.43 -2.82,5.48 -2.41,4.52 -1.71,3.75 -1.02,2.97 -0.11,2.46 0.79,1.95 1.81,1.76 2.83,1.56 3.86,1.71 4.89,1.85 5.83,2.31 6.76,2.78 7.49,3.52 8.23,4.25 8.23,4.25 8.23,4.25 9.08,5.70 9.94,7.16 10.15,12.26 10.35,17.35 9.70,19.51 9.05,21.67 8.87,24.05 8.70,26.43 7.88,29.48 7.07,32.54 6.64,33.09 6.21,33.63 5.65,34.06 5.10,34.49 4.46,34.77 3.82,35.05 3.14,35.17 2.45,35.29 1.75,35.24 1.06,35.20 0.39,34.98 -0.26,34.77 -0.86,34.41 -1.45,34.04 -1.94,33.54 -2.43,33.05 -2.79,32.45 -3.14,31.85 -3.35,31.18 -3.55,30.51 -3.59,29.82 -3.62,29.12 -3.49,28.43 -3.36,27.75 -3.07,27.12 -2.78,26.48 -1.05,24.97 0.66,23.46 1.63,21.53 2.60,19.60 2.58,16.63 2.55,13.65 2.92,9.60 3.28,5.55 3.28,3.16 3.28,0.76 3.65,2.99 4.02,5.21 2.01,5.14 0,5.06 -0.60,4.99 -1.21,4.92 -1.78,4.70 -2.35,4.48 -2.85,4.14 -3.36,3.79 -3.76,3.33 -4.17,2.87 -4.45,2.33 -4.73,1.79 -4.88,1.20 -5.03,0.61 -5.03,-0.00 -5.03,-0.61 -4.88,-1.20 -4.73,-1.79 -4.45,-2.33 -4.17,-2.87 -3.76,-3.33 -3.36,-3.79 -2.85,-4.14 -2.35,-4.48 -1.78,-4.70 -1.21,-4.92 -0.60,-4.99 0.00,-5.06 0.00,-5.06 L 0,-5.06 Z"></path></g><g transform="translate(38 56) rotate(0 2 -0.5)" stroke="none"><path d="M1.89 -0.25 C2.18 -0.52, 2.52 -1.48, 3.15 -1.66 C3.79 -1.83, 6.29 -1.78, 5.69 -1.32 C5.09 -0.85, 0.38 0.95, -0.46 1.14" stroke="none" stroke-width="0" fill="#d2bab0" fill-rule="evenodd"></path><path fill="#1e1e1e" d="M 0,-4.72 Q 0,-4.72 0.86,-4.81 1.72,-4.90 0.86,-5.01 0,-5.12 0.61,-5.05 1.22,-4.98 1.80,-4.76 2.38,-4.54 2.89,-4.19 3.40,-3.83 3.81,-3.37 4.22,-2.91 4.50,-2.36 4.79,-1.81 4.94,-1.21 5.09,-0.61 5.09,0.00 5.09,0.61 4.94,1.21 4.79,1.81 4.50,2.36 4.22,2.91 3.81,3.37 3.40,3.83 2.89,4.19 2.38,4.54 1.80,4.76 1.22,4.98 0.61,5.05 -0.00,5.12 -0.81,4.99 -1.63,4.86 -2.37,4.47 -3.10,4.08 -3.67,3.48 -4.24,2.87 -4.59,2.12 -4.94,1.37 -5.03,0.54 -5.12,-0.27 -4.94,-1.08 -4.76,-1.89 -4.33,-2.61 -3.90,-3.32 -3.27,-3.85 -2.64,-4.39 -1.87,-4.70 -1.10,-5.00 -0.27,-5.05 0.55,-5.09 1.35,-4.87 2.15,-4.65 2.84,-4.18 3.52,-3.72 4.03,-3.06 4.53,-2.40 4.79,-1.61 5.06,-0.82 5.06,0.00 5.06,0.83 4.79,1.61 4.53,2.40 4.02,3.06 3.52,3.72 2.84,4.19 2.15,4.65 1.35,4.87 0.55,5.09 -0.27,5.05 -1.10,5.00 -1.87,4.70 -2.64,4.39 -3.27,3.85 -3.91,3.32 -4.33,2.60 -4.76,1.89 -4.94,1.08 -5.12,0.27 -5.03,-0.54 -4.94,-1.37 -4.59,-2.12 -4.24,-2.87 -3.67,-3.48 -3.10,-4.08 -2.36,-4.47 -1.63,-4.86 -0.81,-4.99 0.00,-5.12 0.00,-5.12 -0.00,-5.12 0.61,-5.05 1.22,-4.98 1.80,-4.76 2.38,-4.54 2.89,-4.19 3.40,-3.83 3.81,-3.37 4.22,-2.91 4.50,-2.36 4.79,-1.81 4.94,-1.21 5.09,-0.61 5.09,-0.00 5.09,0.61 4.94,1.21 4.79,1.81 4.50,2.36 4.22,2.91 3.81,3.37 3.40,3.83 2.89,4.19 2.38,4.54 1.80,4.76 1.22,4.98 0.61,5.05 0,5.12 0.86,5.01 1.72,4.90 0.86,4.81 0,4.72 -0.56,4.65 -1.12,4.58 -1.66,4.38 -2.19,4.18 -2.66,3.85 -3.13,3.53 -3.50,3.10 -3.88,2.68 -4.14,2.17 -4.41,1.67 -4.55,1.12 -4.68,0.56 -4.68,-0.00 -4.68,-0.56 -4.55,-1.12 -4.41,-1.67 -4.14,-2.17 -3.88,-2.68 -3.50,-3.10 -3.13,-3.53 -2.66,-3.85 -2.19,-4.18 -1.66,-4.38 -1.12,-4.58 -0.56,-4.65 0.00,-4.72 0.00,-4.72 L 0,-4.72 Z"></path></g></svg>