<svg version="1.1" xmlns="http://www.w3.org/2000/svg" viewBox="0 0 58.33333333333303 251.66666666666652" width="58.33333333333303" height="251.66666666666652"><!-- svg-source:excalidraw --><metadata></metadata><defs><style class="style-fonts">
      </style></defs><g stroke-linecap="round" transform="translate(10 10) rotate(0 19.166666666666515 115.83333333333326)"><path d="M-1.21 3.74 L37.61 3.41 L39.7 231.58 L1.7 233.46" stroke="none" stroke-width="0" fill="#d2bab0"></path><path d="M2.77 0.1 C9.11 -1.19, 17.36 3.04, 39.55 2.56 M-1.47 -0.28 C14.15 -2.01, 31.72 -0.17, 37.89 -1.58 M40.94 -0.9 C39.66 59.05, 40.56 123.45, 39.55 232.81 M39.94 -1.42 C38.2 76.75, 36.74 151.45, 38.98 230.28 M34.89 234.4 C26.58 230.22, 17.64 228.81, 3.46 231.9 M38.32 232.13 C27.53 232.13, 18.36 232.37, -1.12 231.37 M-2.91 230.15 C-2.09 161.93, -4.09 94.89, -3.34 -1.49 M-0.81 231.36 C-3.07 183.65, -2.17 138.72, -1.47 0.43" stroke="#846358" stroke-width="4" fill="none"></path></g><g stroke-linecap="round"><g transform="translate(28.638888888888687 44.222222222222626) rotate(0 0 86)"><path d="M-3.8 2.15 C5.48 68.06, 1.37 129.59, 0.85 169.29 M-0.75 -1.31 C-1.58 52.88, -1.07 110.32, -0.29 172.22" stroke="#1e1e1e" stroke-width="1" fill="none"></path></g></g><mask></mask></svg>