<svg version="1.1" xmlns="http://www.w3.org/2000/svg" viewBox="0 0 489 412" width="489" height="412"><!-- svg-source:excalidraw --><metadata></metadata><defs><style class="style-fonts">
      </style></defs><g transform="translate(167 379) rotate(0 77.5 -96.5)" stroke="none"><path fill="#2f9e44" d="M 0.78,5.08 Q 0.78,5.08 -2.98,5.46 -6.75,5.84 -9.29,6.16 -11.84,6.48 -15.59,7.93 -19.34,9.38 -22.41,10.08 -25.48,10.79 -28.69,11.21 -31.89,11.64 -34.32,11.78 -36.74,11.93 -38.94,12.03 -41.13,12.13 -43.68,12.08 -46.23,12.02 -48.77,11.98 -51.30,11.93 -54.45,11.24 -57.59,10.55 -60.48,10.34 -63.38,10.13 -65.53,10.08 -67.68,10.02 -70.64,9.89 -73.60,9.76 -76.30,9.71 -79.00,9.65 -81.99,9.56 -84.97,9.47 -87.25,8.73 -89.53,7.98 -92.07,7.98 -94.60,7.97 -97.43,7.25 -100.25,6.52 -103.27,6.31 -106.28,6.10 -108.93,6.11 -111.57,6.13 -114.98,6.12 -118.38,6.11 -121.72,4.56 -125.07,3.02 -127.84,1.00 -130.62,-1.01 -134.61,-3.69 -138.61,-6.37 -141.90,-9.31 -145.19,-12.26 -147.74,-16.15 -150.29,-20.04 -152.18,-22.64 -154.07,-25.25 -155.75,-31.00 -157.44,-36.76 -157.38,-40.88 -157.32,-45.01 -157.42,-50.08 -157.51,-55.15 -157.56,-59.10 -157.61,-63.06 -158.48,-66.02 -159.35,-68.98 -159.92,-71.77 -160.49,-74.56 -160.19,-79.18 -159.89,-83.80 -159.65,-86.94 -159.40,-90.07 -158.74,-92.85 -158.08,-95.63 -157.99,-98.49 -157.89,-101.35 -157.65,-105.01 -157.41,-108.67 -154.14,-111.83 -150.86,-114.99 -149.34,-116.59 -147.83,-118.19 -144.48,-119.50 -141.13,-120.81 -138.25,-123.97 -135.38,-127.13 -131.78,-129.00 -128.18,-130.87 -126.24,-131.89 -124.30,-132.91 -120.28,-133.48 -116.27,-134.05 -112.54,-135.33 -108.81,-136.60 -106.72,-137.92 -104.63,-139.25 -101.65,-140.81 -98.67,-142.36 -95.66,-143.82 -92.66,-145.28 -89.73,-147.34 -86.80,-149.40 -82.67,-151.13 -78.53,-152.87 -76.43,-153.97 -74.34,-155.08 -71.64,-156.80 -68.94,-158.52 -64.74,-160.36 -60.54,-162.20 -54.56,-165.07 -48.58,-167.95 -44.49,-169.71 -40.40,-171.47 -38.13,-173.11 -35.86,-174.75 -33.36,-176.42 -30.86,-178.09 -28.89,-179.83 -26.92,-181.58 -22.63,-183.56 -18.34,-185.54 -13.77,-187.65 -9.20,-189.77 -2.72,-191.86 3.74,-193.95 7.59,-196.08 11.44,-198.22 15.70,-199.83 19.96,-201.43 23.31,-202.99 26.66,-204.55 29.53,-205.93 32.39,-207.30 35.98,-208.71 39.56,-210.12 44.33,-210.70 49.10,-211.28 53.58,-211.75 58.06,-212.21 63.23,-212.40 68.39,-212.58 73.29,-213.20 78.19,-213.82 83.90,-214.09 89.60,-214.35 94.88,-214.45 100.17,-214.55 105.73,-215.16 111.29,-215.76 114.02,-216.75 116.74,-217.74 119.95,-218.30 123.16,-218.87 125.67,-219.21 128.18,-219.56 130.41,-219.79 132.65,-220.02 135.63,-220.12 138.61,-220.22 141.60,-220.28 144.58,-220.34 147.86,-220.34 151.14,-220.34 155.41,-220.11 159.68,-219.89 164.97,-219.71 170.25,-219.54 174.68,-218.23 179.10,-216.92 183.13,-214.45 187.17,-211.98 190.39,-209.13 193.62,-206.28 197.84,-203.51 202.05,-200.74 205.64,-198.33 209.24,-195.91 211.28,-195.21 213.33,-194.51 215.47,-193.22 217.62,-191.93 220.85,-189.61 224.08,-187.29 227.70,-183.42 231.31,-179.55 234.60,-176.64 237.89,-173.74 241.10,-170.66 244.30,-167.59 247.37,-164.54 250.45,-161.49 253.24,-158.81 256.04,-156.13 258.26,-153.87 260.48,-151.61 263.14,-149.76 265.80,-147.91 268.16,-145.79 270.53,-143.68 272.99,-140.24 275.46,-136.80 278.69,-131.56 281.93,-126.32 285.47,-121.63 289.01,-116.93 291.55,-111.75 294.08,-106.57 296.42,-102.89 298.76,-99.21 300.90,-97.37 303.04,-95.53 305.63,-90.98 308.22,-86.43 309.49,-83.67 310.77,-80.91 312.36,-77.14 313.95,-73.37 314.26,-71.24 314.57,-69.11 314.70,-66.47 314.83,-63.83 314.77,-60.42 314.72,-57.02 315.12,-53.61 315.53,-50.20 315.72,-46.41 315.91,-42.61 316.07,-39.57 316.23,-36.54 316.37,-34.09 316.52,-31.64 316.26,-28.95 315.99,-26.26 314.67,-23.95 313.34,-21.64 310.57,-19.15 307.81,-16.66 304.88,-13.53 301.96,-10.41 299.60,-8.94 297.25,-7.48 293.80,-5.62 290.35,-3.76 285.38,-2.94 280.42,-2.12 275.06,0.93 269.70,3.99 266.49,5.92 263.29,7.84 260.61,9.51 257.94,11.18 255.64,13.12 253.35,15.06 249.57,16.97 245.80,18.88 242.12,20.26 238.45,21.63 234.28,22.25 230.11,22.86 225.16,22.97 220.21,23.07 215.55,23.07 210.88,23.06 206.89,23.09 202.90,23.12 196.89,23.06 190.88,23.00 185.68,23.80 180.48,24.60 174.58,24.94 168.69,25.29 162.74,25.42 156.79,25.55 151.67,25.59 146.56,25.64 142.66,25.73 138.77,25.83 136.54,26.08 134.31,26.33 131.39,26.69 128.48,27.05 125.17,27.08 121.87,27.10 117.02,26.90 112.17,26.71 108.36,26.67 104.56,26.63 101.01,25.79 97.46,24.95 95.23,24.77 93.00,24.60 87.99,23.91 82.97,23.22 79.94,22.00 76.92,20.78 73.00,18.61 69.09,16.44 65.19,14.30 61.28,12.17 58.70,11.55 56.11,10.94 53.48,10.74 50.84,10.54 48.56,10.53 46.27,10.52 43.91,10.68 41.55,10.84 38.29,10.51 35.03,10.17 30.94,8.62 26.84,7.07 24.24,6.32 21.63,5.57 18.63,5.25 15.63,4.92 12.01,4.67 8.39,4.42 3.93,4.35 -0.52,4.28 -1.20,4.09 -1.87,3.89 -2.44,3.49 -3.01,3.09 -3.43,2.53 -3.84,1.96 -4.06,1.30 -4.27,0.63 -4.26,-0.06 -4.25,-0.76 -4.02,-1.42 -3.78,-2.07 -3.35,-2.63 -2.92,-3.18 -2.34,-3.56 -1.75,-3.94 -1.08,-4.12 -0.40,-4.30 0.29,-4.25 0.99,-4.20 1.63,-3.93 2.28,-3.67 2.80,-3.21 3.33,-2.74 3.68,-2.14 4.03,-1.54 4.17,-0.85 4.31,-0.17 4.23,0.52 4.14,1.21 3.84,1.84 3.54,2.47 3.05,2.97 2.56,3.47 1.94,3.79 1.32,4.11 0.62,4.21 -0.06,4.32 -0.75,4.19 -1.44,4.07 -2.05,3.73 -2.66,3.40 -3.13,2.88 -3.61,2.37 -3.89,1.73 -4.18,1.09 -4.24,0.39 -4.31,-0.29 -4.15,-0.97 -3.99,-1.65 -3.62,-2.25 -3.25,-2.84 -2.71,-3.29 -2.17,-3.73 -1.52,-3.98 -0.86,-4.23 -0.16,-4.26 0.53,-4.28 0.53,-4.28 0.52,-4.28 4.62,-4.13 8.72,-3.97 12.63,-3.93 16.53,-3.88 20.41,-3.50 24.29,-3.12 27.05,-2.20 29.80,-1.29 32.92,-0.29 36.03,0.70 38.90,0.96 41.78,1.23 44.30,1.57 46.81,1.91 49.31,2.20 51.82,2.50 55.05,3.01 58.28,3.52 61.38,4.58 64.48,5.64 68.54,7.43 72.59,9.23 76.59,10.90 80.59,12.57 82.64,13.62 84.70,14.66 89.46,15.57 94.22,16.47 96.88,17.03 99.54,17.59 102.08,18.47 104.63,19.35 108.40,19.32 112.17,19.28 117.02,19.09 121.87,18.89 125.17,18.91 128.47,18.93 131.37,19.28 134.27,19.63 136.50,19.85 138.72,20.08 142.61,20.12 146.49,20.16 151.56,20.07 156.64,19.98 162.48,19.80 168.32,19.61 173.94,19.22 179.55,18.82 185.20,17.88 190.85,16.93 196.84,16.84 202.83,16.74 206.79,16.68 210.74,16.63 215.30,16.42 219.86,16.21 224.44,15.84 229.02,15.47 232.38,14.96 235.74,14.45 238.97,13.19 242.20,11.92 245.20,10.33 248.20,8.73 251.02,6.48 253.83,4.23 256.43,2.79 259.02,1.36 262.80,-1.30 266.58,-3.96 269.41,-5.04 272.23,-6.12 275.20,-8.28 278.17,-10.44 281.72,-11.36 285.27,-12.27 288.33,-14.50 291.40,-16.72 294.78,-18.69 298.15,-20.66 300.91,-23.40 303.66,-26.15 305.50,-28.82 307.34,-31.48 307.39,-33.85 307.45,-36.22 307.40,-39.12 307.34,-42.02 307.03,-45.42 306.73,-48.82 305.96,-52.87 305.19,-56.93 305.08,-60.25 304.98,-63.58 304.98,-67.51 304.99,-71.45 304.22,-74.58 303.45,-77.72 302.17,-80.81 300.90,-83.90 299.67,-87.42 298.45,-90.94 296.18,-93.48 293.92,-96.03 291.32,-99.96 288.71,-103.89 286.38,-108.50 284.05,-113.10 280.19,-117.90 276.34,-122.71 273.00,-127.64 269.67,-132.57 267.48,-135.48 265.30,-138.39 263.49,-140.38 261.69,-142.38 258.60,-144.78 255.50,-147.18 253.67,-149.52 251.83,-151.86 249.12,-154.60 246.42,-157.34 243.33,-160.27 240.23,-163.21 237.03,-166.09 233.84,-168.97 230.19,-171.96 226.54,-174.95 223.29,-178.18 220.04,-181.42 215.23,-184.93 210.42,-188.45 208.25,-189.76 206.07,-191.07 202.44,-193.38 198.81,-195.70 194.14,-198.64 189.47,-201.59 186.68,-204.07 183.90,-206.56 180.53,-208.51 177.17,-210.47 173.67,-211.46 170.18,-212.45 164.93,-212.27 159.69,-212.10 155.42,-211.87 151.16,-211.64 147.89,-211.63 144.62,-211.61 141.65,-211.65 138.69,-211.69 133.67,-211.84 128.65,-211.98 126.31,-212.02 123.97,-212.06 121.19,-211.91 118.41,-211.77 115.16,-211.07 111.90,-210.38 106.10,-209.73 100.30,-209.08 95.09,-208.93 89.88,-208.79 84.41,-208.49 78.95,-208.18 73.80,-207.46 68.66,-206.74 63.72,-206.46 58.78,-206.19 54.37,-205.58 49.95,-204.97 45.97,-204.38 41.99,-203.78 38.51,-202.43 35.03,-201.07 32.09,-199.99 29.16,-198.92 25.63,-197.42 22.10,-195.92 18.29,-194.40 14.48,-192.87 10.16,-190.34 5.85,-187.81 -0.12,-185.68 -6.09,-183.55 -10.51,-181.16 -14.94,-178.77 -18.28,-176.90 -21.63,-175.04 -24.10,-173.15 -26.57,-171.25 -29.10,-169.78 -31.63,-168.31 -34.44,-166.62 -37.24,-164.92 -41.04,-162.89 -44.84,-160.86 -50.65,-157.52 -56.46,-154.18 -59.72,-152.23 -62.97,-150.27 -67.55,-147.10 -72.13,-143.94 -75.50,-143.22 -78.86,-142.50 -81.30,-140.67 -83.74,-138.85 -85.82,-137.54 -87.91,-136.22 -90.69,-134.65 -93.48,-133.07 -96.03,-131.54 -98.57,-130.01 -101.36,-128.14 -104.15,-126.27 -107.07,-124.99 -109.98,-123.72 -112.39,-123.24 -114.79,-122.75 -116.90,-122.52 -119.02,-122.29 -121.90,-120.80 -124.78,-119.32 -128.15,-118.64 -131.52,-117.96 -132.56,-115.86 -133.61,-113.76 -137.37,-112.26 -141.13,-110.75 -144.89,-108.11 -148.65,-105.47 -148.56,-103.11 -148.48,-100.74 -149.26,-96.99 -150.04,-93.23 -150.81,-91.20 -151.59,-89.16 -152.02,-86.37 -152.45,-83.59 -152.40,-79.68 -152.34,-75.78 -152.12,-73.39 -151.90,-71.01 -150.92,-67.20 -149.94,-63.40 -149.69,-59.55 -149.44,-55.70 -148.84,-50.52 -148.23,-45.35 -147.88,-41.60 -147.52,-37.85 -146.86,-34.52 -146.21,-31.18 -144.23,-28.67 -142.25,-26.16 -139.76,-23.43 -137.27,-20.69 -134.92,-18.77 -132.58,-16.85 -130.98,-14.71 -129.39,-12.57 -126.72,-12.01 -124.04,-11.45 -121.80,-9.96 -119.56,-8.47 -117.37,-7.29 -115.19,-6.12 -112.20,-6.03 -109.21,-5.94 -105.69,-5.67 -102.17,-5.41 -99.66,-5.05 -97.15,-4.69 -93.42,-4.01 -89.69,-3.34 -87.10,-2.40 -84.51,-1.46 -81.74,-1.54 -78.97,-1.63 -76.25,-1.67 -73.53,-1.71 -70.49,-1.80 -67.46,-1.89 -63.43,-1.69 -59.40,-1.49 -55.32,-0.71 -51.24,0.06 -48.74,0.01 -46.23,-0.02 -43.69,-0.08 -41.15,-0.14 -38.99,-0.05 -36.84,0.03 -33.58,0.10 -30.33,0.18 -27.31,-0.17 -24.29,-0.54 -21.71,-0.79 -19.12,-1.03 -16.01,-2.12 -12.90,-3.20 -10.55,-3.37 -8.19,-3.54 -4.48,-4.31 -0.78,-5.08 -0.16,-5.10 0.45,-5.12 1.06,-4.99 1.66,-4.86 2.22,-4.59 2.78,-4.32 3.26,-3.92 3.73,-3.53 4.10,-3.03 4.47,-2.53 4.71,-1.96 4.95,-1.38 5.04,-0.77 5.13,-0.16 5.08,0.45 5.02,1.07 4.82,1.65 4.62,2.24 4.29,2.76 3.95,3.28 3.50,3.71 3.05,4.13 2.51,4.44 1.97,4.74 1.37,4.91 0.78,5.08 0.78,5.08 L 0.78,5.08 Z"></path></g><g transform="translate(123 211) rotate(0 129 -100.5)" stroke="none"><path fill="#1e1e1e" d="M -4.29,0.45 Q -4.29,0.45 -4.64,-5.03 -4.99,-10.52 -5.25,-14.05 -5.51,-17.59 -5.62,-26.26 -5.73,-34.94 -5.59,-39.55 -5.45,-44.17 -5.53,-47.57 -5.60,-50.97 -5.73,-53.85 -5.86,-56.73 -6.17,-59.46 -6.47,-62.19 -6.32,-68.59 -6.17,-74.98 -6.82,-78.61 -7.48,-82.24 -7.94,-85.56 -8.40,-88.88 -8.67,-91.77 -8.94,-94.66 -9.30,-98.51 -9.67,-102.36 -9.90,-105.24 -10.13,-108.12 -10.35,-111.76 -10.57,-115.39 -10.67,-118.96 -10.77,-122.53 -10.67,-125.54 -10.58,-128.55 -10.54,-131.26 -10.51,-133.98 -10.49,-136.57 -10.48,-139.16 -10.34,-142.56 -10.19,-145.97 -10.12,-149.14 -10.05,-152.31 -10.01,-157.64 -9.97,-162.96 -9.66,-167.89 -9.35,-172.82 -8.44,-176.16 -7.53,-179.50 -6.43,-181.51 -5.34,-183.53 -3.82,-185.60 -2.31,-187.68 1.26,-189.18 4.83,-190.68 8.19,-191.40 11.54,-192.12 13.45,-196.80 15.36,-201.49 18.50,-203.85 21.63,-206.21 23.79,-206.51 25.94,-206.82 28.43,-206.12 30.91,-205.42 35.13,-204.48 39.36,-203.54 41.79,-203.57 44.23,-203.61 46.51,-203.62 48.79,-203.63 52.95,-200.99 57.10,-198.35 57.51,-193.09 57.92,-187.84 58.56,-184.07 59.20,-180.31 59.54,-176.21 59.89,-172.11 60.63,-169.71 61.36,-167.30 61.63,-163.11 61.89,-158.93 61.80,-154.33 61.72,-149.73 61.62,-145.49 61.51,-141.26 61.96,-138.81 62.41,-136.37 65.01,-135.76 67.61,-135.15 70.57,-135.32 73.54,-135.50 75.82,-135.63 78.09,-135.76 81.78,-135.83 85.47,-135.90 87.78,-136.00 90.08,-136.10 93.34,-136.15 96.59,-136.20 100.07,-136.99 103.54,-137.78 106.87,-138.38 110.20,-138.98 114.01,-140.81 117.81,-142.63 120.06,-143.17 122.30,-143.70 125.57,-144.80 128.84,-145.90 131.00,-146.12 133.17,-146.33 136.04,-146.29 138.90,-146.24 141.55,-146.33 144.20,-146.41 147.92,-146.39 151.64,-146.36 154.56,-145.65 157.47,-144.94 159.92,-144.64 162.36,-144.34 166.30,-142.33 170.23,-140.33 172.63,-139.68 175.03,-139.04 178.08,-137.01 181.14,-134.98 183.73,-132.19 186.32,-129.40 188.39,-128.65 190.46,-127.91 192.62,-127.94 194.79,-127.97 197.41,-127.25 200.03,-126.53 203.22,-126.34 206.40,-126.14 205.20,-124.00 203.99,-121.86 202.28,-124.40 200.58,-126.94 200.31,-129.27 200.04,-131.61 199.92,-135.67 199.80,-139.73 199.96,-142.98 200.11,-146.22 200.51,-150.47 200.90,-154.72 200.70,-157.74 200.50,-160.77 200.30,-163.09 200.10,-165.41 200.25,-169.34 200.39,-173.27 200.28,-175.48 200.16,-177.69 200.17,-180.84 200.17,-183.99 201.24,-185.96 202.32,-187.93 204.22,-189.24 206.11,-190.55 208.39,-191.63 210.67,-192.72 213.78,-194.26 216.88,-195.80 218.76,-197.52 220.64,-199.24 223.33,-200.63 226.01,-202.03 228.96,-202.53 231.91,-203.03 234.68,-203.16 237.46,-203.28 240.88,-203.32 244.30,-203.35 248.71,-202.11 253.12,-200.87 255.72,-195.06 258.33,-189.26 260.78,-182.82 263.23,-176.38 264.29,-170.89 265.36,-165.40 265.85,-161.62 266.34,-157.85 266.43,-155.39 266.52,-152.94 266.30,-150.61 266.07,-148.29 265.26,-144.74 264.44,-141.20 263.35,-137.17 262.26,-133.14 261.85,-129.63 261.45,-126.12 260.26,-121.96 259.08,-117.80 258.49,-115.21 257.90,-112.62 257.81,-108.71 257.72,-104.81 257.83,-100.70 257.94,-96.60 258.11,-93.03 258.27,-89.46 258.29,-87.03 258.32,-84.59 258.36,-82.41 258.41,-80.22 258.55,-77.51 258.69,-74.79 258.70,-72.55 258.71,-70.31 258.07,-65.18 257.42,-60.06 256.50,-57.59 255.58,-55.12 255.31,-51.98 255.04,-48.84 255.05,-45.85 255.05,-42.85 255.02,-40.60 254.99,-38.36 254.89,-33.33 254.79,-28.30 254.84,-25.65 254.90,-22.99 254.74,-22.05 254.59,-21.11 254.14,-20.26 253.69,-19.42 253.00,-18.76 252.30,-18.11 251.44,-17.71 250.57,-17.31 249.62,-17.20 248.67,-17.10 247.74,-17.31 246.81,-17.51 245.99,-18.01 245.17,-18.50 244.55,-19.23 243.93,-19.95 243.58,-20.84 243.23,-21.73 243.18,-22.68 243.13,-23.64 243.38,-24.56 243.64,-25.48 244.18,-26.27 244.71,-27.06 245.47,-27.63 246.23,-28.21 247.14,-28.52 248.04,-28.82 249.00,-28.82 249.95,-28.82 250.86,-28.51 251.76,-28.21 252.52,-27.63 253.28,-27.05 253.82,-26.26 254.35,-25.47 254.61,-24.55 254.86,-23.63 254.81,-22.68 254.76,-21.72 254.40,-20.83 254.05,-19.95 253.43,-19.22 252.81,-18.49 251.99,-18.00 251.18,-17.51 250.24,-17.30 249.31,-17.10 248.36,-17.20 247.41,-17.31 246.54,-17.71 245.68,-18.11 244.99,-18.77 244.29,-19.43 243.85,-20.27 243.40,-21.11 243.25,-22.06 243.09,-23.00 243.09,-23.00 243.09,-23.00 243.15,-25.65 243.21,-28.31 243.11,-31.23 243.02,-34.15 243.02,-36.28 243.03,-38.41 243.03,-40.75 243.02,-43.09 243.20,-46.36 243.38,-49.63 243.59,-52.18 243.79,-54.73 245.03,-58.78 246.27,-62.82 246.77,-66.56 247.28,-70.31 247.29,-72.55 247.30,-74.79 247.44,-77.51 247.59,-80.23 247.63,-82.41 247.68,-84.60 247.70,-87.04 247.73,-89.48 247.93,-93.09 248.12,-96.69 248.39,-101.03 248.66,-105.37 248.93,-107.62 249.21,-109.86 249.72,-112.33 250.23,-114.81 251.08,-117.24 251.93,-119.68 252.79,-123.30 253.64,-126.91 253.98,-130.88 254.33,-134.84 254.99,-138.92 255.65,-143.01 256.25,-146.37 256.86,-149.73 257.50,-153.21 258.14,-156.70 257.61,-160.06 257.08,-163.42 255.73,-167.96 254.39,-172.50 251.18,-178.84 247.97,-185.18 247.49,-187.88 247.01,-190.58 243.86,-190.61 240.71,-190.63 238.23,-190.67 235.75,-190.71 233.48,-190.70 231.20,-190.69 228.91,-189.58 226.63,-188.46 224.51,-187.05 222.39,-185.64 218.85,-184.09 215.31,-182.54 212.60,-180.16 209.89,-177.79 209.82,-175.60 209.75,-173.40 210.00,-169.68 210.25,-165.96 210.30,-163.81 210.35,-161.65 210.73,-158.19 211.10,-154.74 211.51,-150.51 211.92,-146.27 212.15,-141.05 212.39,-135.83 212.47,-132.21 212.54,-128.58 213.80,-125.68 215.07,-122.79 214.20,-120.09 213.33,-117.39 209.54,-115.78 205.74,-114.17 203.54,-114.32 201.33,-114.47 198.87,-114.86 196.41,-115.26 193.33,-115.89 190.25,-116.53 186.92,-117.58 183.60,-118.64 181.14,-120.14 178.69,-121.65 176.55,-123.63 174.41,-125.61 171.88,-127.07 169.35,-128.54 167.17,-129.38 164.99,-130.22 163.00,-131.29 161.00,-132.37 156.27,-133.00 151.53,-133.62 147.91,-133.59 144.29,-133.55 141.71,-133.58 139.13,-133.61 135.30,-133.52 131.48,-133.43 128.15,-132.36 124.82,-131.29 122.52,-130.70 120.22,-130.10 117.20,-128.42 114.17,-126.73 111.81,-126.53 109.44,-126.33 105.97,-125.76 102.49,-125.19 99.60,-124.49 96.71,-123.79 93.40,-123.84 90.08,-123.89 87.78,-123.99 85.47,-124.09 81.77,-124.16 78.08,-124.24 75.75,-124.38 73.43,-124.52 71.26,-124.71 69.08,-124.91 66.38,-125.34 63.67,-125.76 61.33,-126.46 58.99,-127.15 57.21,-128.97 55.44,-130.79 55.05,-133.12 54.65,-135.45 54.48,-138.30 54.30,-141.15 54.08,-145.32 53.86,-149.48 53.50,-153.82 53.13,-158.16 52.74,-161.48 52.35,-164.80 51.54,-167.89 50.74,-170.97 50.17,-174.37 49.59,-177.78 48.07,-182.19 46.54,-186.61 45.91,-191.13 45.29,-195.65 47.00,-193.02 48.72,-190.39 46.25,-190.45 43.77,-190.52 40.78,-190.79 37.79,-191.05 34.27,-192.08 30.76,-193.10 27.18,-193.59 23.60,-194.07 23.21,-190.38 22.81,-186.69 21.38,-184.93 19.96,-183.17 17.89,-182.31 15.82,-181.45 13.16,-181.44 10.51,-181.44 7.54,-181.29 4.57,-181.13 2.78,-178.89 0.98,-176.64 0.17,-174.66 -0.64,-172.69 -0.33,-167.83 -0.02,-162.96 0.01,-157.64 0.05,-152.31 0.12,-149.14 0.19,-145.97 0.34,-142.56 0.48,-139.16 0.49,-136.57 0.51,-133.98 0.54,-131.26 0.58,-128.55 0.67,-125.54 0.77,-122.53 0.67,-118.96 0.57,-115.39 0.36,-111.78 0.14,-108.16 -0.04,-105.34 -0.24,-102.51 -0.42,-98.82 -0.59,-95.13 -0.55,-92.46 -0.51,-89.80 -0.24,-86.82 0.03,-83.85 1.10,-79.43 2.17,-75.02 2.32,-68.61 2.47,-62.20 2.17,-59.47 1.87,-56.74 1.75,-53.86 1.63,-50.98 1.57,-47.59 1.51,-44.20 1.68,-39.59 1.86,-34.99 2.05,-26.56 2.24,-18.14 2.47,-14.73 2.69,-11.32 3.49,-5.89 4.29,-0.45 4.28,0.06 4.27,0.58 4.14,1.09 4.01,1.59 3.76,2.05 3.51,2.50 3.16,2.89 2.81,3.27 2.37,3.56 1.94,3.85 1.45,4.03 0.96,4.20 0.44,4.26 -0.06,4.31 -0.58,4.24 -1.10,4.17 -1.58,3.98 -2.06,3.79 -2.49,3.48 -2.91,3.18 -3.25,2.79 -3.59,2.39 -3.82,1.93 -4.06,1.46 -4.17,0.95 -4.29,0.45 -4.29,0.45 L -4.29,0.45 Z"></path></g></svg>