<svg version="1.1" xmlns="http://www.w3.org/2000/svg" viewBox="0 0 56 21" width="56" height="21"><!-- svg-source:excalidraw --><metadata></metadata><defs><style class="style-fonts">
      </style></defs><g transform="translate(10 10) rotate(0 17.5 0.5)" stroke="none"><path d="M-0.34 -0.35 C5.28 -0.37, 28.95 -1.78, 34.87 -1.91 C40.79 -2.05, 41.1 -1.64, 35.19 -1.16 C29.27 -0.69, 5.34 0.66, -0.61 0.95 C-6.56 1.23, -0.81 0.45, -0.52 0.52" stroke="none" stroke-width="0" fill="#d2bab0" fill-rule="evenodd"></path><path fill="#e03131" d="M 0,-10.25 Q 0,-10.25 3.16,-10.43 6.32,-10.60 10.92,-10.97 15.52,-11.34 20.57,-11.73 25.62,-12.12 29.91,-12.11 34.20,-12.10 35.72,-11.92 37.24,-11.73 38.67,-11.19 40.09,-10.65 41.35,-9.78 42.61,-8.91 43.62,-7.77 44.64,-6.62 45.35,-5.27 46.06,-3.92 46.42,-2.43 46.79,-0.95 46.79,0.57 46.79,2.10 46.42,3.58 46.06,5.07 45.35,6.42 44.64,7.77 43.62,8.92 42.61,10.06 41.35,10.93 40.09,11.80 38.66,12.34 37.23,12.88 35.72,13.07 34.20,13.25 29.16,13.69 24.12,14.13 19.47,14.33 14.82,14.53 9.97,14.69 5.11,14.86 -1.47,13.13 -8.07,11.40 -9.68,9.82 -11.29,8.23 -12.30,6.21 -13.32,4.19 -13.64,1.95 -13.97,-0.27 -13.56,-2.50 -13.15,-4.72 -12.05,-6.70 -10.95,-8.67 -9.28,-10.19 -7.60,-11.72 -5.53,-12.62 -3.46,-13.53 -1.21,-13.73 1.03,-13.93 3.23,-13.40 5.43,-12.87 7.34,-11.67 9.25,-10.46 10.68,-8.71 12.11,-6.96 12.90,-4.84 13.70,-2.73 13.78,-0.47 13.85,1.78 13.21,3.95 12.56,6.12 11.25,7.96 9.95,9.81 8.12,11.14 6.29,12.47 4.14,13.15 1.98,13.83 -0.27,13.78 -2.53,13.74 -4.66,12.97 -6.79,12.21 -8.56,10.80 -10.33,9.40 -11.56,7.50 -12.79,5.61 -13.35,3.42 -13.91,1.23 -13.75,-1.02 -13.58,-3.27 -12.70,-5.36 -11.82,-7.44 -10.32,-9.13 -8.83,-10.83 -6.86,-11.95 -4.90,-13.08 -2.69,-13.52 -0.47,-13.96 1.76,-13.67 4.00,-13.38 6.04,-12.39 8.07,-11.40 8.07,-11.40 8.07,-11.40 6.59,-12.13 5.11,-12.86 9.97,-12.69 14.82,-12.53 19.45,-12.33 24.09,-12.14 29.14,-12.12 34.20,-12.10 35.72,-11.92 37.23,-11.73 38.66,-11.19 40.09,-10.65 41.35,-9.78 42.61,-8.91 43.62,-7.77 44.64,-6.62 45.35,-5.27 46.06,-3.92 46.42,-2.43 46.79,-0.95 46.79,0.57 46.79,2.10 46.42,3.58 46.06,5.07 45.35,6.42 44.64,7.77 43.62,8.92 42.61,10.06 41.35,10.93 40.09,11.80 38.67,12.34 37.24,12.88 35.72,13.07 34.20,13.25 29.91,12.68 25.62,12.12 20.57,11.73 15.52,11.34 10.92,10.97 6.32,10.60 3.16,10.43 0,10.25 -1.22,10.10 -2.45,9.95 -3.60,9.51 -4.76,9.07 -5.78,8.37 -6.79,7.67 -7.61,6.74 -8.43,5.82 -9.01,4.72 -9.58,3.63 -9.88,2.43 -10.17,1.23 -10.17,-0.00 -10.17,-1.23 -9.88,-2.43 -9.58,-3.63 -9.01,-4.73 -8.43,-5.82 -7.61,-6.75 -6.79,-7.67 -5.78,-8.37 -4.76,-9.07 -3.60,-9.51 -2.45,-9.95 -1.22,-10.10 0.00,-10.25 0.00,-10.25 L 0,-10.25 Z"></path></g><g transform="translate(26 10) rotate(0 10 0)" stroke="none"><path fill="#e03131" d="M 0,-9.90 Q 0,-9.90 3.44,-10.10 6.89,-10.29 13.45,-10.75 20,-11.21 21.79,-10.92 23.58,-10.63 25.18,-9.78 26.78,-8.93 28.03,-7.61 29.28,-6.29 30.04,-4.64 30.81,-3.00 31.00,-1.19 31.20,0.60 30.81,2.38 30.42,4.15 29.48,5.70 28.55,7.26 27.16,8.43 25.78,9.61 24.09,10.28 22.41,10.95 20.59,11.05 18.78,11.15 17.03,10.66 15.28,10.18 13.78,9.16 12.28,8.14 11.18,6.69 10.08,5.25 9.50,3.53 8.92,1.81 8.92,-0.00 8.92,-1.81 9.50,-3.53 10.08,-5.25 11.18,-6.70 12.28,-8.14 13.78,-9.16 15.29,-10.18 17.04,-10.66 18.78,-11.15 20.60,-11.05 22.41,-10.95 24.10,-10.28 25.78,-9.61 27.16,-8.43 28.55,-7.26 29.48,-5.70 30.42,-4.15 30.81,-2.37 31.20,-0.60 31.00,1.19 30.80,3.00 30.04,4.65 29.28,6.29 28.03,7.61 26.78,8.93 25.18,9.78 23.57,10.63 21.78,10.92 19.99,11.21 19.99,11.21 20,11.21 13.45,10.75 6.89,10.29 3.44,10.10 0,9.90 -1.18,9.76 -2.37,9.62 -3.48,9.19 -4.60,8.77 -5.58,8.09 -6.57,7.41 -7.36,6.52 -8.15,5.62 -8.71,4.57 -9.26,3.51 -9.55,2.35 -9.83,1.19 -9.83,-0.00 -9.83,-1.19 -9.55,-2.35 -9.26,-3.51 -8.71,-4.57 -8.15,-5.62 -7.36,-6.52 -6.57,-7.41 -5.58,-8.09 -4.60,-8.77 -3.48,-9.19 -2.37,-9.62 -1.18,-9.76 0.00,-9.90 0.00,-9.90 L 0,-9.90 Z"></path></g></svg>