<svg version="1.1" xmlns="http://www.w3.org/2000/svg" viewBox="0 0 358.80910472787946 332.5534794490786" width="358.80910472787946" height="332.5534794490786"><!-- svg-source:excalidraw --><metadata></metadata><defs><style class="style-fonts">
      </style></defs><g stroke-linecap="round" transform="translate(13.59470548219997 10) rotate(0 166.5 156)"><path d="M2.2 -3.46 L334.97 2.19 L333.48 315.3 L2.43 315.9" stroke="none" stroke-width="0" fill="#f8f1ee"></path><path d="M1.04 -0.32 C116.09 1.64, 231.33 0.3, 335.53 -2.17 M0.13 0.31 C101.94 3.56, 202.7 2.25, 332.46 0.4 M331.29 0.06 C329.11 118.9, 332.69 239.13, 332.33 314.39 M334.08 0.36 C334.55 85.55, 334.08 173.14, 333.16 311.73 M332.5 309.83 C247.3 306.95, 166.65 306.64, -2.56 312.25 M332.88 311.34 C252.24 311.46, 170.64 312.68, 0.4 311.09 M-0.03 310.97 C-3.7 211.92, 1.47 108.27, -1.45 -0.58 M-1.32 312.08 C5.04 193.61, 4.19 78.08, -1.32 0.42" stroke="#846358" stroke-width="4" fill="none"></path></g><g stroke-linecap="round"><g transform="translate(124.59470548219997 14) rotate(0 0 154)"><path d="M0.88 -0.62 C0.68 51.05, -0.18 257.1, -0.42 308.55 M-2.09 -3.43 C-2.77 47.47, -2.79 251.39, -2.89 303.84" stroke="#846358" stroke-width="4" fill="none"></path></g></g><mask></mask><g stroke-linecap="round"><g transform="translate(236.59470548219997 10) rotate(0 0 153.5)"><path d="M-0.63 2.26 C-0.16 53.86, 2.72 256.92, 2.4 307.98 M4.22 1.01 C4.58 51.9, 1.68 253.01, 1.47 303.5" stroke="#846358" stroke-width="4" fill="none"></path></g></g><mask></mask><g stroke-linecap="round"><g transform="translate(13.59470548219997 117) rotate(0 166 0)"><path d="M0.65 -0.22 C55.45 -0.16, 274.3 0.49, 329.93 0.98 M-2.44 -2.81 C53.13 -3.67, 279.14 -3.75, 335.21 -3.49" stroke="#846358" stroke-width="4" fill="none"></path></g></g><mask></mask><g stroke-linecap="round"><g transform="translate(11.59470548219997 221) rotate(0 166.5 0)"><path d="M-1.59 -0.43 C53.35 -0.66, 276.68 0.58, 332.22 0.71 M2.74 -3.13 C57 -4.45, 275.16 -5.05, 329.56 -3.91" stroke="#846358" stroke-width="4" fill="none"></path></g></g><mask></mask></svg>