<svg version="1.1" xmlns="http://www.w3.org/2000/svg" viewBox="0 0 235 116" width="235" height="116"><!-- svg-source:excalidraw --><metadata></metadata><defs><style class="style-fonts">
      </style></defs><g transform="translate(195 43) rotate(0 -77.5 15)" stroke="none"><path fill="#1971c2" d="M 0,5.12 Q 0,5.12 -3.44,5.00 -6.89,4.88 -10.80,3.13 -14.70,1.38 -15.15,-0.71 -15.61,-2.81 -14.16,-5.64 -12.72,-8.46 -9.53,-10.47 -6.35,-12.47 -2.67,-14.73 0.99,-16.98 4.30,-18.81 7.61,-20.63 10.23,-22.51 12.85,-24.39 15.33,-24.97 17.81,-25.55 19.63,-25.67 21.44,-25.79 22.16,-25.81 22.89,-25.83 23.59,-25.67 24.30,-25.52 24.95,-25.20 25.60,-24.88 26.15,-24.41 26.71,-23.94 27.13,-23.36 27.56,-22.77 27.83,-22.10 28.10,-21.43 28.21,-20.71 28.31,-20.00 28.24,-19.28 28.17,-18.55 27.93,-17.87 27.69,-17.19 27.30,-16.58 26.90,-15.98 26.37,-15.48 25.84,-14.99 25.21,-14.64 24.57,-14.29 23.87,-14.10 23.17,-13.91 22.22,-19.87 21.26,-25.84 21.98,-25.86 22.70,-25.88 23.41,-25.72 24.11,-25.57 24.75,-25.25 25.40,-24.93 25.95,-24.46 26.50,-24.00 26.92,-23.42 27.35,-22.84 27.62,-22.17 27.89,-21.50 27.99,-20.79 28.10,-20.08 28.03,-19.36 27.96,-18.65 27.72,-17.97 27.48,-17.29 27.09,-16.69 26.69,-16.08 26.16,-15.59 25.64,-15.10 25.01,-14.75 24.38,-14.40 23.68,-14.22 22.99,-14.03 23.28,-10.75 23.57,-7.47 22.12,-3.81 20.66,-0.15 19.67,1.79 18.68,3.75 16.99,5.26 15.31,6.78 11.84,7.70 8.37,8.62 4.67,8.55 0.98,8.47 -2.51,5.80 -6.02,3.12 -7.46,1.41 -8.91,-0.28 -9.90,-2.57 -10.90,-4.85 -14.60,-7.20 -18.30,-9.55 -20.12,-10.95 -21.94,-12.36 -22.38,-12.98 -22.82,-13.61 -23.10,-14.33 -23.37,-15.04 -23.47,-15.80 -23.57,-16.56 -23.48,-17.32 -23.39,-18.08 -23.13,-18.80 -22.86,-19.52 -22.43,-20.15 -22.00,-20.78 -21.43,-21.29 -20.86,-21.80 -20.19,-22.17 -19.51,-22.53 -18.77,-22.71 -18.03,-22.90 -17.26,-22.91 -16.50,-22.91 -15.75,-22.73 -15.01,-22.56 -14.33,-22.21 -13.65,-21.85 -13.07,-21.35 -12.49,-20.85 -15.67,-21.72 -18.86,-22.59 -16.26,-25.17 -13.66,-27.74 -11.15,-29.28 -8.65,-30.83 -6.68,-31.72 -4.70,-32.62 -2.17,-34.03 0.34,-35.44 2.96,-36.59 5.59,-37.75 8.09,-37.99 10.59,-38.23 13.68,-38.89 16.77,-39.54 21.36,-38.34 25.94,-37.15 28.21,-34.35 30.47,-31.56 32.41,-27.30 34.35,-23.03 33.42,-20.17 32.48,-17.31 30.90,-15.56 29.32,-13.81 26.72,-12.15 24.13,-10.50 20.07,-9.24 16.02,-7.97 13.25,-6.50 10.47,-5.02 8.22,-4.78 5.96,-4.53 3.30,-4.41 0.65,-4.30 -0.15,-4.36 -0.96,-4.43 -1.73,-4.69 -2.50,-4.95 -3.19,-5.39 -3.87,-5.82 -4.43,-6.41 -4.99,-7.00 -5.40,-7.70 -5.80,-8.41 -6.03,-9.19 -6.25,-9.97 -6.28,-10.78 -6.31,-11.59 -6.15,-12.39 -5.98,-13.19 -5.63,-13.92 -5.28,-14.65 -4.76,-15.28 -4.25,-15.91 -3.60,-16.39 -2.95,-16.88 -2.20,-17.20 -1.45,-17.51 -0.65,-17.64 0.15,-17.77 3.03,-20.00 5.92,-22.23 9.07,-25.10 12.22,-27.96 14.26,-29.11 16.31,-30.26 18.15,-30.64 20.00,-31.03 20.72,-31.33 21.45,-31.63 22.22,-31.75 22.99,-31.87 23.77,-31.81 24.56,-31.74 25.30,-31.49 26.04,-31.23 26.70,-30.81 27.36,-30.39 27.90,-29.82 28.43,-29.25 28.82,-28.57 29.21,-27.89 29.42,-27.14 29.64,-26.38 29.66,-25.60 29.69,-24.82 29.53,-24.05 29.36,-23.28 29.02,-22.58 28.68,-21.87 28.18,-21.27 27.69,-20.66 27.06,-20.20 26.43,-19.73 22.73,-20.68 19.03,-21.64 23.92,-22.96 28.80,-24.28 26.01,-21.17 23.22,-18.06 19.44,-16.95 15.65,-15.85 13.12,-15.73 10.59,-15.62 8.11,-15.63 5.63,-15.64 2.41,-15.40 -0.80,-15.16 -4.37,-18.27 -7.95,-21.39 -5.87,-21.85 -3.79,-22.32 -1.40,-21.14 0.98,-19.97 1.27,-19.51 1.56,-19.05 2.13,-18.49 2.70,-17.93 3.12,-17.25 3.54,-16.57 3.78,-15.81 4.03,-15.05 4.09,-14.25 4.14,-13.45 4.00,-12.66 3.87,-11.88 3.55,-11.14 3.22,-10.41 2.74,-9.78 2.25,-9.14 1.62,-8.64 1.00,-8.14 0.27,-7.81 -0.44,-7.47 -1.23,-7.32 -2.02,-7.17 -2.82,-7.21 -3.61,-7.25 -4.38,-7.48 -5.15,-7.71 -5.83,-8.12 -6.52,-8.53 -3.78,-8.11 -1.04,-7.69 -3.21,-5.31 -5.39,-2.94 -8.46,-1.26 -11.54,0.42 -13.86,1.63 -16.18,2.85 -19.04,3.44 -21.90,4.04 -25.19,5.93 -28.48,7.81 -30.77,9.12 -33.07,10.43 -35.93,11.57 -38.80,12.71 -41.71,13.54 -44.62,14.38 -47.05,14.36 -49.49,14.34 -51.72,15.45 -53.95,16.57 -56.65,17.21 -59.35,17.85 -61.55,18.34 -63.76,18.83 -66.36,20.28 -68.96,21.74 -72.37,22.16 -75.79,22.59 -79.15,23.35 -82.51,24.12 -84.30,25.47 -86.09,26.81 -88.65,28.98 -91.21,31.15 -94.11,32.69 -97.01,34.22 -97.47,34.81 -97.92,35.39 -98.56,35.62 -99.21,35.84 -99.89,35.90 -100.57,35.97 -101.25,35.87 -101.93,35.76 -102.56,35.50 -103.19,35.24 -103.74,34.84 -104.29,34.43 -104.73,33.91 -105.17,33.39 -105.47,32.77 -105.77,32.16 -105.92,31.49 -106.06,30.82 -106.04,30.14 -106.03,29.45 -105.84,28.79 -105.66,28.13 -105.33,27.54 -104.99,26.94 -104.52,26.44 -104.06,25.94 -103.48,25.57 -102.91,25.20 -99.26,25.14 -95.62,25.09 -93.44,25.16 -91.25,25.23 -87.69,25.20 -84.13,25.16 -81.57,25.07 -79.02,24.97 -75.28,24.16 -71.55,23.34 -69.61,22.05 -67.68,20.77 -65.46,19.93 -63.24,19.09 -60.25,16.58 -57.26,14.06 -54.54,13.24 -51.81,12.42 -49.08,10.48 -46.34,8.54 -43.84,8.35 -41.35,8.17 -40.86,6.01 -40.38,3.85 -37.83,2.29 -35.28,0.73 -31.35,-0.86 -27.41,-2.46 -24.88,-4.60 -22.34,-6.74 -20.28,-8.59 -18.22,-10.44 -16.81,-11.29 -15.41,-12.14 -14.82,-12.59 -14.23,-13.04 -13.56,-13.33 -12.88,-13.63 -12.15,-13.75 -11.42,-13.88 -10.68,-13.82 -9.94,-13.77 -9.24,-13.54 -8.54,-13.31 -7.91,-12.92 -7.28,-12.53 -6.76,-12.00 -6.25,-11.47 -5.87,-10.83 -5.50,-10.19 -5.29,-9.48 -5.08,-8.77 -5.04,-8.04 -5.00,-7.30 -5.15,-6.57 -5.29,-5.85 -5.60,-5.17 -5.91,-4.50 -6.38,-3.93 -6.84,-3.35 -11.38,-8.11 -15.91,-12.86 -15.32,-13.31 -14.74,-13.76 -14.06,-14.06 -13.38,-14.35 -12.65,-14.47 -11.92,-14.60 -11.18,-14.54 -10.44,-14.49 -9.74,-14.26 -9.03,-14.03 -8.40,-13.64 -7.78,-13.25 -7.26,-12.72 -6.74,-12.19 -6.37,-11.55 -5.99,-10.91 -5.78,-10.20 -5.57,-9.49 -5.54,-8.75 -5.50,-8.01 -5.64,-7.29 -5.79,-6.56 -6.10,-5.89 -6.41,-5.22 -6.88,-4.64 -7.34,-4.07 -11.00,-2.22 -14.67,-0.36 -18.19,0.50 -21.70,1.37 -26.18,2.67 -30.65,3.98 -32.56,5.51 -34.46,7.04 -39.72,9.14 -44.97,11.23 -47.83,11.47 -50.70,11.72 -53.51,12.01 -56.31,12.31 -59.00,12.87 -61.69,13.43 -64.72,15.07 -67.75,16.71 -70.10,18.34 -72.45,19.97 -74.52,20.96 -76.60,21.95 -79.14,22.64 -81.69,23.33 -82.90,25.24 -84.11,27.14 -85.16,29.11 -86.21,31.07 -88.50,29.93 -90.79,28.78 -85.84,28.50 -80.89,28.23 -77.30,27.15 -73.72,26.08 -70.48,24.34 -67.24,22.60 -64.70,20.86 -62.15,19.12 -59.81,18.05 -57.48,16.97 -55.49,15.83 -53.50,14.69 -48.66,11.87 -43.83,9.06 -38.80,4.95 -33.78,0.84 -30.73,-1.25 -27.69,-3.35 -25.77,-5.06 -23.85,-6.77 -21.00,-8.58 -18.15,-10.38 -16.39,-11.68 -14.63,-12.97 -13.34,-13.62 -12.06,-14.27 -11.61,-14.69 -11.17,-15.12 -10.63,-15.42 -10.10,-15.72 -9.51,-15.89 -8.92,-16.05 -8.31,-16.07 -7.70,-16.09 -7.10,-15.96 -6.50,-15.84 -5.95,-15.57 -5.39,-15.30 -4.92,-14.91 -4.45,-14.52 -4.09,-14.03 -3.72,-13.53 -3.49,-12.97 -3.25,-12.40 -3.16,-11.80 -3.06,-11.19 -3.12,-10.58 -3.17,-9.97 -3.37,-9.39 -3.57,-8.81 -3.90,-8.30 -4.23,-7.78 -7.79,-7.29 -11.36,-6.79 -14.33,-6.69 -17.29,-6.60 -20.65,-6.50 -24.00,-6.41 -27.04,-6.38 -30.07,-6.36 -32.45,-4.26 -34.82,-2.15 -38.24,0.19 -41.65,2.54 -44.23,4.37 -46.81,6.21 -48.53,8.43 -50.24,10.66 -52.76,12.35 -55.28,14.04 -57.69,15.83 -60.10,17.63 -61.91,20.34 -63.72,23.06 -66.69,25.06 -69.67,27.05 -72.55,29.04 -75.44,31.02 -77.51,31.85 -79.58,32.68 -78.32,30.71 -77.05,28.75 -75.23,30.92 -73.40,33.09 -69.97,35.56 -66.54,38.04 -64.50,40.06 -62.47,42.08 -59.80,44.89 -57.13,47.70 -54.23,51.41 -51.34,55.12 -51.89,58.92 -52.44,62.73 -55.09,65.06 -57.75,67.40 -60.52,68.22 -63.29,69.04 -66.22,69.11 -69.16,69.17 -74.56,65.85 -79.97,62.54 -82.39,61.18 -84.81,59.83 -86.57,58.25 -88.34,56.68 -91.39,56.90 -94.45,57.13 -96.84,57.13 -99.24,57.13 -102.05,55.92 -104.86,54.72 -107.13,54.61 -109.40,54.49 -112.03,54.45 -114.65,54.41 -116.88,54.46 -119.11,54.50 -122.14,54.51 -125.17,54.51 -127.42,54.47 -129.67,54.42 -130.05,54.44 -130.43,54.46 -131.21,54.37 -131.98,54.27 -132.71,54.00 -133.44,53.72 -134.08,53.28 -134.72,52.84 -135.24,52.25 -135.75,51.67 -136.12,50.98 -136.48,50.29 -136.66,49.53 -136.85,48.77 -136.85,47.99 -136.85,47.21 -136.66,46.46 -136.48,45.70 -136.12,45.01 -135.75,44.32 -135.24,43.74 -134.72,43.15 -134.08,42.71 -133.43,42.27 -132.71,41.99 -131.98,41.71 -131.20,41.62 -130.43,41.53 -129.15,48.00 -127.88,54.47 -128.66,54.38 -129.43,54.28 -130.16,54.01 -130.89,53.73 -131.53,53.29 -132.18,52.84 -132.69,52.26 -133.21,51.67 -133.58,50.98 -133.94,50.29 -134.12,49.53 -134.31,48.77 -134.31,47.99 -134.31,47.21 -134.12,46.45 -133.94,45.70 -133.57,45.01 -133.21,44.31 -132.69,43.73 -132.17,43.15 -131.53,42.70 -130.89,42.26 -130.16,41.98 -129.43,41.70 -128.65,41.61 -127.88,41.52 -124.99,46.70 -122.11,51.88 -123.93,54.46 -125.75,57.03 -127.85,60.47 -129.95,63.90 -131.23,64.93 -132.52,65.96 -133.12,66.44 -133.73,66.92 -134.42,67.24 -135.12,67.56 -135.88,67.71 -136.63,67.85 -137.40,67.81 -138.17,67.77 -138.91,67.55 -139.64,67.33 -140.30,66.94 -140.97,66.54 -141.51,66.00 -142.06,65.46 -142.47,64.81 -142.87,64.16 -143.10,63.42 -143.34,62.69 -143.39,61.92 -143.45,61.16 -143.31,60.40 -143.18,59.64 -142.87,58.94 -142.56,58.23 -142.09,57.62 -141.62,57.01 -138.61,55.94 -135.60,54.86 -132.63,53.31 -129.65,51.76 -127.32,51.11 -124.98,50.46 -122.37,50.24 -119.75,50.02 -116.99,49.11 -114.23,48.20 -110.54,48.19 -106.84,48.18 -103.65,48.81 -100.46,49.44 -96.90,49.67 -93.34,49.90 -90.16,49.89 -86.97,49.88 -84.07,49.82 -81.17,49.76 -78.35,49.71 -75.53,49.66 -72.36,49.65 -69.18,49.65 -70.06,51.91 -70.93,54.17 -71.22,50.92 -71.51,47.68 -71.84,44.01 -72.17,40.35 -74.68,40.97 -77.19,41.59 -79.88,41.64 -82.56,41.70 -86.00,41.64 -89.43,41.57 -92.23,41.18 -95.03,40.79 -97.92,40.79 -100.82,40.78 -103.27,40.79 -105.72,40.80 -108.58,40.79 -111.44,40.79 -114.74,40.76 -118.05,40.73 -121.34,41.16 -124.64,41.58 -126.88,41.71 -129.12,41.83 -131.86,41.84 -134.60,41.85 -137.51,41.05 -140.43,40.25 -144.33,36.82 -148.24,33.39 -153.50,30.14 -158.77,26.88 -161.40,25.25 -164.03,23.62 -166.51,23.18 -168.99,22.75 -171.63,22.76 -174.27,22.78 -176.04,24.77 -177.81,26.77 -180.16,26.73 -182.52,26.69 -182.04,24.47 -181.57,22.24 -180.49,20.05 -179.40,17.87 -176.19,15.22 -172.98,12.58 -170.05,10.59 -167.13,8.59 -164.50,8.16 -161.86,7.72 -157.83,7.67 -153.80,7.62 -150.93,8.34 -148.07,9.06 -145.09,10.86 -142.11,12.67 -139.19,15.45 -136.26,18.23 -134.07,18.97 -131.87,19.70 -129.65,19.77 -127.44,19.83 -123.75,19.36 -120.07,18.89 -117.44,17.68 -114.80,16.47 -113.15,14.82 -111.50,13.17 -108.72,11.88 -105.94,10.58 -102.92,10.15 -99.90,9.72 -96.99,9.59 -94.09,9.46 -93.04,9.62 -92.00,9.77 -91.06,10.26 -90.12,10.74 -89.38,11.49 -88.64,12.25 -88.18,13.20 -87.72,14.16 -87.59,15.21 -87.47,16.26 -87.68,17.29 -87.89,18.33 -88.42,19.24 -88.96,20.15 -89.75,20.85 -90.55,21.55 -91.52,21.95 -92.50,22.36 -93.55,22.43 -94.61,22.50 -95.63,22.23 -96.65,21.96 -97.54,21.38 -98.42,20.80 -99.07,19.97 -99.72,19.14 -100.08,18.14 -100.43,17.14 -100.44,16.09 -100.46,15.03 -100.13,14.02 -99.81,13.02 -99.18,12.17 -98.56,11.31 -97.69,10.71 -96.82,10.10 -95.81,9.81 -94.79,9.51 -93.74,9.55 -92.68,9.59 -91.69,9.97 -90.71,10.35 -89.89,11.02 -89.07,11.70 -88.52,12.59 -87.96,13.49 -87.72,14.52 -87.48,15.55 -87.58,16.60 -87.67,17.65 -88.11,18.62 -88.54,19.59 -89.25,20.36 -89.97,21.14 -90.90,21.65 -91.82,22.16 -92.86,22.34 -93.90,22.53 -93.90,22.53 -93.90,22.53 -95.55,22.52 -97.21,22.52 -100.08,22.17 -102.96,21.82 -105.56,24.28 -108.17,26.74 -110.67,28.18 -113.17,29.63 -115.28,30.20 -117.39,30.78 -120.60,31.49 -123.81,32.20 -126.00,32.07 -128.18,31.93 -131.51,31.49 -134.83,31.05 -137.09,30.31 -139.36,29.57 -141.52,28.24 -143.68,26.91 -147.70,24.08 -151.72,21.25 -154.62,20.86 -157.52,20.47 -161.05,20.01 -164.58,19.55 -166.52,20.99 -168.47,22.42 -169.64,24.59 -170.82,26.75 -172.05,28.63 -173.29,30.51 -175.74,32.80 -178.18,35.09 -181.85,35.64 -185.52,36.19 -187.44,32.10 -189.36,28.01 -188.54,25.01 -187.72,22.01 -185.51,17.79 -183.29,13.58 -180.92,12.50 -178.55,11.42 -174.80,11.51 -171.06,11.60 -167.28,12.26 -163.50,12.92 -161.10,13.87 -158.70,14.81 -156.43,16.19 -154.16,17.56 -149.21,19.58 -144.26,21.59 -142.44,22.86 -140.62,24.12 -137.54,26.13 -134.47,28.13 -131.92,28.11 -129.38,28.09 -127.11,28.04 -124.85,27.99 -121.45,27.62 -118.05,27.26 -114.74,27.23 -111.43,27.20 -108.57,27.20 -105.70,27.20 -102.32,27.25 -98.94,27.30 -96.27,27.43 -93.60,27.56 -91.48,27.99 -89.36,28.42 -84.95,28.39 -80.54,28.35 -77.71,28.50 -74.89,28.65 -71.90,29.12 -68.91,29.59 -66.13,30.98 -63.34,32.37 -61.74,34.78 -60.14,37.20 -59.36,40.54 -58.58,43.89 -58.61,47.96 -58.64,52.04 -59.48,54.93 -60.32,57.82 -64.75,60.08 -69.19,62.34 -73.41,62.30 -77.63,62.25 -80.90,62.20 -84.17,62.15 -87.06,62.05 -89.95,61.94 -93.90,61.74 -97.85,61.54 -102.17,60.85 -106.48,60.16 -109.98,60.51 -113.49,60.85 -116.06,61.67 -118.62,62.49 -121.40,62.79 -124.17,63.09 -126.14,64.10 -128.12,65.10 -130.32,65.53 -132.52,65.96 -133.12,66.44 -133.72,66.92 -134.42,67.24 -135.12,67.56 -135.88,67.71 -136.63,67.85 -137.40,67.81 -138.17,67.77 -138.91,67.55 -139.64,67.33 -140.30,66.94 -140.96,66.54 -141.51,66.00 -142.06,65.47 -142.47,64.81 -142.87,64.16 -143.10,63.42 -143.34,62.69 -143.39,61.92 -143.45,61.16 -143.31,60.40 -143.18,59.64 -142.87,58.94 -142.56,58.23 -142.09,57.62 -141.62,57.01 -139.87,55.86 -138.11,54.72 -135.95,51.71 -133.79,48.71 -130.83,51.59 -127.88,54.47 -128.66,54.38 -129.43,54.28 -130.16,54.01 -130.89,53.73 -131.53,53.29 -132.18,52.84 -132.69,52.26 -133.21,51.67 -133.57,50.98 -133.94,50.29 -134.12,49.53 -134.31,48.78 -134.31,47.99 -134.31,47.21 -134.12,46.46 -133.94,45.70 -133.57,45.01 -133.21,44.31 -132.69,43.73 -132.18,43.15 -131.53,42.70 -130.89,42.26 -130.16,41.98 -129.43,41.70 -128.65,41.61 -127.88,41.52 -129.15,47.99 -130.43,54.46 -131.20,54.37 -131.98,54.28 -132.71,54.00 -133.44,53.72 -134.08,53.28 -134.72,52.84 -135.24,52.25 -135.75,51.67 -136.12,50.98 -136.48,50.29 -136.66,49.53 -136.85,48.77 -136.85,47.99 -136.85,47.21 -136.66,46.46 -136.48,45.70 -136.12,45.01 -135.75,44.32 -135.24,43.74 -134.72,43.15 -134.08,42.71 -133.44,42.27 -132.71,41.99 -131.98,41.72 -131.20,41.62 -130.43,41.53 -130.05,41.55 -129.67,41.57 -127.41,41.52 -125.16,41.48 -122.11,41.49 -119.06,41.51 -116.68,41.58 -114.30,41.66 -111.38,41.81 -108.46,41.96 -105.87,42.18 -103.29,42.40 -100.83,43.64 -98.36,44.88 -94.94,45.02 -91.53,45.15 -87.79,45.82 -84.06,46.48 -81.79,48.33 -79.53,50.19 -76.76,51.56 -74.00,52.93 -70.15,54.88 -66.29,56.84 -68.22,55.05 -70.14,53.26 -72.11,51.00 -74.08,48.74 -76.42,47.24 -78.76,45.75 -80.62,44.24 -82.49,42.73 -83.87,40.43 -85.26,38.14 -87.42,35.02 -89.59,31.89 -89.32,29.18 -89.05,26.46 -86.83,23.68 -84.62,20.89 -82.26,20.01 -79.91,19.13 -77.29,17.18 -74.66,15.24 -72.77,14.17 -70.88,13.11 -68.20,9.83 -65.53,6.55 -62.79,4.56 -60.04,2.58 -57.42,-0.56 -54.80,-3.71 -52.80,-5.23 -50.80,-6.76 -48.32,-7.27 -45.84,-7.79 -44.15,-9.50 -42.46,-11.22 -40.20,-11.89 -37.94,-12.56 -35.96,-14.27 -33.98,-15.99 -31.39,-16.50 -28.80,-17.01 -24.31,-17.23 -19.83,-17.45 -17.04,-17.21 -14.25,-16.96 -11.23,-16.67 -8.21,-16.38 -10.13,-15.32 -12.06,-14.27 -11.61,-14.69 -11.17,-15.11 -10.63,-15.42 -10.10,-15.72 -9.51,-15.89 -8.92,-16.05 -8.31,-16.07 -7.70,-16.09 -7.10,-15.96 -6.50,-15.84 -5.95,-15.57 -5.39,-15.30 -4.92,-14.91 -4.45,-14.52 -4.09,-14.03 -3.72,-13.53 -3.49,-12.97 -3.25,-12.40 -3.16,-11.80 -3.06,-11.19 -3.12,-10.58 -3.17,-9.97 -3.37,-9.39 -3.57,-8.81 -3.90,-8.30 -4.23,-7.78 -5.86,-7.12 -7.48,-6.47 -10.53,-4.67 -13.58,-2.88 -15.96,-1.48 -18.34,-0.09 -20.62,1.66 -22.90,3.42 -25.67,5.43 -28.44,7.43 -31.61,10.37 -34.79,13.31 -37.60,15.58 -40.41,17.86 -42.53,18.44 -44.65,19.03 -46.95,20.90 -49.24,22.78 -53.44,24.40 -57.65,26.03 -60.39,27.78 -63.14,29.54 -66.92,31.95 -70.71,34.37 -75.54,36.31 -80.37,38.25 -85.45,38.78 -90.52,39.31 -93.00,38.26 -95.48,37.20 -96.84,33.35 -98.19,29.49 -97.07,27.65 -95.95,25.81 -94.41,22.97 -92.87,20.13 -87.57,15.71 -82.27,11.29 -78.14,9.25 -74.02,7.21 -69.71,5.02 -65.41,2.84 -61.05,2.21 -56.69,1.58 -54.06,1.64 -51.44,1.70 -48.99,1.55 -46.54,1.40 -43.39,0.41 -40.24,-0.57 -37.21,-2.78 -34.18,-4.98 -29.76,-7.07 -25.34,-9.15 -20.62,-11.00 -15.91,-12.86 -15.32,-13.31 -14.74,-13.76 -14.06,-14.06 -13.38,-14.35 -12.65,-14.47 -11.92,-14.60 -11.18,-14.54 -10.44,-14.49 -9.74,-14.26 -9.03,-14.03 -8.41,-13.64 -7.78,-13.25 -7.26,-12.72 -6.74,-12.19 -6.37,-11.55 -5.99,-10.91 -5.78,-10.20 -5.57,-9.49 -5.54,-8.75 -5.50,-8.02 -5.64,-7.29 -5.79,-6.56 -6.10,-5.89 -6.41,-5.22 -6.87,-4.64 -7.34,-4.07 -11.37,-8.10 -15.41,-12.14 -14.82,-12.59 -14.23,-13.04 -13.56,-13.33 -12.88,-13.63 -12.15,-13.75 -11.42,-13.88 -10.68,-13.82 -9.94,-13.77 -9.24,-13.54 -8.54,-13.31 -7.91,-12.92 -7.28,-12.53 -6.76,-12.00 -6.25,-11.47 -5.87,-10.83 -5.50,-10.19 -5.29,-9.48 -5.08,-8.78 -5.04,-8.04 -5.00,-7.30 -5.15,-6.57 -5.29,-5.85 -5.60,-5.17 -5.91,-4.50 -6.38,-3.93 -6.84,-3.35 -8.32,-2.51 -9.80,-1.68 -12.69,1.08 -15.59,3.85 -19.19,6.42 -22.80,8.98 -24.87,9.85 -26.94,10.72 -29.13,11.18 -31.33,11.64 -33.16,14.07 -34.98,16.50 -37.01,17.43 -39.03,18.35 -41.08,18.97 -43.12,19.58 -45.83,21.43 -48.54,23.27 -51.58,24.22 -54.63,25.17 -58.08,27.62 -61.53,30.07 -64.48,32.06 -67.42,34.05 -71.42,35.55 -75.42,37.04 -78.62,36.98 -81.81,36.91 -84.54,36.77 -87.26,36.63 -89.47,36.57 -91.67,36.51 -94.79,35.95 -97.92,35.39 -98.56,35.62 -99.21,35.84 -99.89,35.90 -100.57,35.97 -101.25,35.87 -101.92,35.76 -102.56,35.50 -103.19,35.24 -103.74,34.84 -104.29,34.44 -104.73,33.91 -105.17,33.39 -105.47,32.77 -105.77,32.16 -105.92,31.49 -106.06,30.82 -106.04,30.14 -106.03,29.45 -105.84,28.79 -105.66,28.13 -105.33,27.54 -104.99,26.94 -104.52,26.44 -104.06,25.94 -103.48,25.57 -102.91,25.20 -100.92,24.14 -98.93,23.08 -96.18,19.99 -93.43,16.91 -88.45,13.83 -83.48,10.75 -80.07,9.96 -76.66,9.17 -74.34,9.17 -72.01,9.16 -68.30,7.35 -64.59,5.54 -60.25,4.65 -55.90,3.77 -53.64,2.67 -51.37,1.58 -48.04,1.29 -44.71,1.01 -40.96,-0.42 -37.22,-1.87 -33.85,-3.50 -30.48,-5.14 -27.53,-6.98 -24.58,-8.83 -22.48,-9.52 -20.37,-10.21 -17.27,-11.58 -14.16,-12.96 -12.27,-14.13 -10.38,-15.31 -8.59,-17.15 -6.81,-18.98 -2.62,-19.02 1.56,-19.06 2.13,-18.49 2.70,-17.93 3.12,-17.25 3.54,-16.57 3.78,-15.81 4.03,-15.05 4.09,-14.25 4.14,-13.45 4.00,-12.66 3.87,-11.88 3.55,-11.14 3.22,-10.41 2.74,-9.78 2.25,-9.14 1.62,-8.64 1.00,-8.14 0.27,-7.81 -0.44,-7.47 -1.23,-7.32 -2.02,-7.17 -2.81,-7.21 -3.61,-7.25 -4.38,-7.48 -5.15,-7.71 -5.83,-8.12 -6.52,-8.53 -6.04,-9.16 -5.55,-9.78 -8.85,-10.50 -12.14,-11.22 -13.88,-14.24 -15.62,-17.25 -13.41,-20.12 -11.20,-22.98 -9.36,-24.28 -7.53,-25.58 -5.24,-26.65 -2.95,-27.71 1.19,-28.11 5.35,-28.51 7.60,-28.62 9.86,-28.73 12.99,-28.11 16.12,-27.49 21.63,-28.66 27.15,-29.83 23.57,-30.43 20.00,-31.03 20.72,-31.33 21.45,-31.63 22.22,-31.75 22.99,-31.87 23.77,-31.81 24.55,-31.74 25.30,-31.49 26.04,-31.23 26.70,-30.81 27.36,-30.39 27.89,-29.82 28.43,-29.25 28.82,-28.57 29.21,-27.89 29.42,-27.14 29.63,-26.38 29.66,-25.60 29.69,-24.82 29.53,-24.05 29.36,-23.28 29.02,-22.58 28.68,-21.87 28.19,-21.27 27.69,-20.67 27.06,-20.20 26.43,-19.73 22.69,-18.58 18.95,-17.44 16.84,-15.10 14.73,-12.77 12.82,-10.88 10.91,-9.00 8.03,-7.09 5.15,-5.18 2.90,-4.74 0.65,-4.30 -0.15,-4.36 -0.96,-4.43 -1.73,-4.69 -2.50,-4.95 -3.19,-5.39 -3.87,-5.82 -4.43,-6.41 -4.99,-7.00 -5.40,-7.70 -5.80,-8.41 -6.03,-9.19 -6.25,-9.97 -6.28,-10.78 -6.31,-11.59 -6.15,-12.39 -5.98,-13.18 -5.63,-13.92 -5.28,-14.65 -4.76,-15.28 -4.25,-15.91 -3.60,-16.39 -2.95,-16.88 -2.20,-17.19 -1.45,-17.51 -0.65,-17.64 0.14,-17.77 1.09,-17.77 2.04,-17.77 4.18,-17.23 6.31,-16.69 7.97,-18.13 9.63,-19.57 12.71,-20.26 15.78,-20.95 19.14,-21.15 22.50,-21.35 19.92,-23.82 17.34,-26.28 14.80,-25.94 12.27,-25.59 9.97,-25.59 7.68,-25.58 5.58,-24.80 3.47,-24.01 0.69,-22.37 -2.09,-20.74 -5.63,-18.18 -9.18,-15.62 -11.68,-13.34 -14.17,-11.06 -18.06,-11.71 -21.94,-12.36 -22.38,-12.98 -22.82,-13.61 -23.10,-14.33 -23.37,-15.04 -23.47,-15.80 -23.57,-16.56 -23.48,-17.32 -23.39,-18.08 -23.13,-18.80 -22.86,-19.51 -22.43,-20.15 -22.00,-20.78 -21.43,-21.29 -20.86,-21.80 -20.19,-22.16 -19.51,-22.53 -18.77,-22.71 -18.03,-22.90 -17.26,-22.91 -16.50,-22.91 -15.75,-22.73 -15.01,-22.56 -14.33,-22.21 -13.65,-21.85 -13.07,-21.35 -12.49,-20.85 -11.56,-19.98 -10.63,-19.12 -6.57,-16.22 -2.52,-13.32 -1.08,-10.41 0.34,-7.49 2.61,-5.23 4.87,-2.97 7.84,-3.32 10.80,-3.66 11.69,-6.65 12.59,-9.63 13.29,-14.24 13.99,-18.85 16.09,-20.23 18.19,-21.61 19.73,-23.72 21.26,-25.84 21.98,-25.86 22.70,-25.88 23.41,-25.72 24.11,-25.57 24.75,-25.25 25.40,-24.93 25.95,-24.46 26.50,-24.00 26.92,-23.42 27.35,-22.84 27.62,-22.17 27.89,-21.50 27.99,-20.79 28.10,-20.08 28.03,-19.36 27.96,-18.65 27.72,-17.97 27.48,-17.29 27.09,-16.69 26.69,-16.08 26.16,-15.59 25.64,-15.10 25.01,-14.75 24.38,-14.40 23.68,-14.22 22.99,-14.03 22.21,-19.91 21.44,-25.79 22.16,-25.81 22.89,-25.83 23.59,-25.67 24.30,-25.52 24.95,-25.20 25.60,-24.88 26.15,-24.41 26.71,-23.94 27.13,-23.36 27.56,-22.77 27.83,-22.10 28.10,-21.43 28.21,-20.71 28.31,-20.00 28.24,-19.28 28.17,-18.56 27.93,-17.87 27.69,-17.19 27.30,-16.58 26.90,-15.98 26.37,-15.48 25.84,-14.99 25.21,-14.64 24.57,-14.29 23.87,-14.10 23.18,-13.91 20.10,-13.73 17.02,-13.55 13.06,-11.11 9.10,-8.67 5.83,-7.38 2.55,-6.09 0.80,-4.68 -0.95,-3.27 -3.92,-4.08 -6.89,-4.88 -3.44,-5.00 0,-5.12 0.61,-5.04 1.22,-4.97 1.80,-4.75 2.38,-4.53 2.88,-4.18 3.39,-3.83 3.80,-3.37 4.21,-2.91 4.50,-2.36 4.79,-1.81 4.93,-1.21 5.08,-0.61 5.08,0.00 5.08,0.61 4.93,1.21 4.79,1.81 4.50,2.36 4.21,2.91 3.80,3.37 3.39,3.83 2.88,4.18 2.38,4.53 1.80,4.75 1.22,4.97 0.61,5.04 -0.00,5.12 -0.00,5.12 L 0,5.12 Z"></path></g><g transform="translate(174 39) rotate(0 -12 16.5)" stroke="none"><path fill="#1971c2" d="M 4.16,1.85 Q 4.16,1.85 3.05,4.45 1.94,7.06 0.88,9.20 -0.16,11.34 -1.23,15.52 -2.31,19.69 -3.53,24.58 -4.75,29.46 -5.24,33.03 -5.73,36.60 -7.35,39.09 -8.97,41.58 -12.38,43.34 -15.79,45.10 -17.87,44.47 -19.95,43.84 -21.46,41.69 -22.98,39.55 -23.03,34.23 -23.09,28.91 -23.15,25.50 -23.21,22.09 -23.20,18.53 -23.18,14.97 -21.56,10.98 -19.93,7.00 -17.68,2.80 -15.42,-1.39 -14.42,-3.57 -13.41,-5.75 -13.53,-6.47 -13.64,-7.19 -13.37,-7.61 -13.09,-8.04 -12.72,-8.39 -12.36,-8.73 -11.92,-8.98 -11.48,-9.23 -10.99,-9.36 -10.50,-9.50 -10.00,-9.51 -9.49,-9.53 -9.00,-9.42 -8.50,-9.32 -8.05,-9.10 -7.59,-8.88 -7.21,-8.55 -6.82,-8.23 -6.52,-7.82 -6.22,-7.41 -6.03,-6.95 -5.83,-6.48 -5.76,-5.98 -5.68,-5.48 -5.73,-4.98 -5.77,-4.47 -5.94,-4.00 -6.10,-3.52 -6.15,-0.12 -6.20,3.27 -5.39,6.98 -4.59,10.69 -4.16,14.27 -3.74,17.85 -3.59,21.04 -3.45,24.23 -2.00,28.48 -0.55,32.73 0.17,35.00 0.89,37.28 0.54,39.60 0.19,41.92 -2.81,44.06 -5.83,46.20 -9.56,45.22 -13.30,44.24 -15.27,40.42 -17.25,36.61 -18.89,34.98 -20.54,33.36 -22.02,33.51 -23.50,33.65 -24.39,33.43 -25.28,33.20 -26.05,32.70 -26.82,32.20 -27.39,31.48 -27.96,30.76 -28.27,29.89 -28.58,29.03 -28.60,28.11 -28.62,27.19 -28.34,26.31 -28.07,25.44 -27.53,24.69 -26.98,23.95 -26.23,23.42 -25.48,22.89 -24.60,22.62 -23.72,22.36 -22.80,22.39 -21.89,22.42 -21.02,22.75 -20.16,23.07 -19.45,23.65 -18.74,24.23 -18.25,25.01 -17.76,25.79 -17.55,26.68 -17.33,27.57 -17.41,28.49 -17.49,29.41 -17.86,30.25 -18.23,31.09 -18.85,31.77 -19.47,32.45 -20.27,32.89 -21.07,33.34 -21.98,33.51 -22.88,33.67 -23.79,33.54 -24.70,33.41 -25.52,33.00 -26.34,32.58 -26.99,31.93 -27.63,31.28 -28.04,30.45 -28.44,29.62 -28.55,28.71 -28.67,27.80 -28.49,26.90 -28.31,26.00 -27.85,25.20 -27.40,24.40 -26.71,23.80 -26.02,23.19 -25.17,22.83 -24.33,22.47 -23.41,22.40 -22.49,22.34 -22.49,22.34 -22.49,22.34 -19.16,22.87 -15.83,23.40 -12.92,25.36 -10.02,27.33 -8.58,30.01 -7.14,32.70 -8.54,34.32 -9.95,35.94 -10.81,33.28 -11.67,30.62 -12.33,27.68 -12.99,24.75 -13.15,21.85 -13.30,18.94 -13.59,16.30 -13.88,13.66 -14.80,10.31 -15.71,6.96 -15.55,4.81 -15.38,2.66 -15.10,0.44 -14.81,-1.78 -14.23,-4.48 -13.64,-7.19 -13.37,-7.61 -13.09,-8.04 -12.72,-8.38 -12.36,-8.73 -11.92,-8.98 -11.48,-9.23 -10.99,-9.36 -10.50,-9.50 -10.00,-9.51 -9.49,-9.53 -9.00,-9.42 -8.50,-9.32 -8.05,-9.10 -7.59,-8.88 -7.21,-8.55 -6.82,-8.23 -6.52,-7.82 -6.22,-7.41 -6.03,-6.95 -5.83,-6.48 -5.76,-5.98 -5.68,-5.48 -5.73,-4.98 -5.77,-4.47 -5.94,-4.00 -6.10,-3.52 -6.05,-3.37 -5.99,-3.22 -7.30,-0.66 -8.61,1.89 -10.43,6.16 -12.26,10.42 -13.48,12.81 -14.70,15.20 -14.61,18.53 -14.52,21.86 -14.41,25.19 -14.30,28.52 -13.64,31.73 -12.99,34.94 -12.62,31.43 -12.25,27.93 -11.44,22.93 -10.64,17.93 -8.59,10.61 -6.54,3.28 -5.35,0.71 -4.16,-1.85 -3.88,-2.32 -3.60,-2.79 -3.21,-3.18 -2.82,-3.57 -2.35,-3.86 -1.89,-4.14 -1.36,-4.31 -0.84,-4.48 -0.29,-4.51 0.25,-4.55 0.79,-4.45 1.33,-4.35 1.83,-4.13 2.34,-3.91 2.77,-3.57 3.20,-3.23 3.55,-2.80 3.89,-2.37 4.11,-1.87 4.34,-1.37 4.44,-0.83 4.55,-0.29 4.51,0.25 4.48,0.80 4.32,1.32 4.16,1.85 4.16,1.85 L 4.16,1.85 Z"></path></g><g transform="translate(183 45) rotate(0 -4.5 21)" stroke="none"><path fill="#1971c2" d="M 4.98,-0.66 Q 4.98,-0.66 5.25,3.68 5.52,8.04 5.76,11.44 6.01,14.83 9.07,17.16 12.14,19.48 14.82,23.50 17.50,27.51 17.10,29.88 16.70,32.24 13.68,35.05 10.66,37.86 8.76,38.86 6.86,39.86 3.30,41.43 -0.25,42.99 -4.24,44.87 -8.23,46.74 -11.10,47.09 -13.98,47.44 -15.85,47.72 -17.72,48.01 -18.50,48.22 -19.28,48.43 -20.09,48.45 -20.89,48.47 -21.68,48.30 -22.47,48.13 -23.20,47.77 -23.92,47.42 -24.54,46.90 -25.16,46.38 -25.63,45.73 -26.11,45.07 -26.41,44.33 -26.72,43.58 -26.84,42.78 -26.96,41.98 -26.88,41.18 -26.80,40.37 -26.54,39.61 -26.27,38.85 -25.83,38.17 -25.39,37.50 -24.80,36.95 -24.21,36.40 -23.50,36.00 -22.80,35.61 -21.08,32.70 -19.37,29.78 -17.09,27.98 -14.81,26.19 -12.70,24.16 -10.60,22.13 -8.45,21.20 -6.30,20.27 -4.18,19.43 -2.06,18.58 -0.38,17.15 1.29,15.71 1.94,15.24 2.58,14.77 3.32,14.46 4.06,14.16 4.86,14.05 5.65,13.93 6.44,14.00 7.24,14.08 7.99,14.35 8.75,14.61 9.42,15.05 10.09,15.48 10.63,16.07 11.18,16.65 11.57,17.35 11.95,18.05 12.17,18.82 12.38,19.59 12.40,20.39 12.42,21.19 12.25,21.97 12.07,22.75 11.72,23.47 11.37,24.19 10.85,24.80 10.34,25.41 6.59,26.00 2.84,26.58 0.71,26.47 -1.41,26.35 -4.11,24.85 -6.80,23.36 -9.15,20.62 -11.49,17.88 -12.80,14.95 -14.11,12.01 -14.79,8.58 -15.48,5.14 -15.49,4.08 -15.50,3.01 -15.17,2.00 -14.85,0.98 -14.21,0.13 -13.58,-0.72 -12.71,-1.32 -11.83,-1.93 -10.81,-2.23 -9.79,-2.53 -8.72,-2.48 -7.66,-2.44 -6.67,-2.06 -5.67,-1.68 -4.85,-1.00 -4.03,-0.32 -3.47,0.58 -2.91,1.48 -2.67,2.52 -2.43,3.56 -2.53,4.62 -2.63,5.68 -3.07,6.65 -3.50,7.62 -4.23,8.40 -4.95,9.18 -5.88,9.69 -6.82,10.21 -7.87,10.39 -8.91,10.58 -9.97,10.42 -11.02,10.26 -11.97,9.77 -12.91,9.28 -13.65,8.52 -14.40,7.75 -14.86,6.79 -15.31,5.83 -15.44,4.78 -15.57,3.72 -15.35,2.68 -15.14,1.63 -14.60,0.72 -14.06,-0.19 -13.26,-0.89 -12.46,-1.59 -11.47,-2.00 -10.49,-2.40 -9.43,-2.47 -8.36,-2.55 -7.33,-2.27 -6.30,-2.00 -5.42,-1.41 -4.53,-0.83 -3.87,0.00 -3.22,0.84 -2.87,1.85 -2.51,2.85 -2.51,2.85 -2.51,2.85 -2.10,6.02 -1.69,9.19 -0.51,11.46 0.66,13.72 3.68,13.80 6.70,13.89 4.00,14.80 1.29,15.71 1.94,15.24 2.58,14.77 3.32,14.46 4.06,14.16 4.85,14.05 5.65,13.93 6.44,14.00 7.24,14.08 7.99,14.35 8.75,14.61 9.42,15.05 10.08,15.48 10.63,16.07 11.18,16.65 11.56,17.35 11.95,18.05 12.17,18.82 12.38,19.59 12.40,20.39 12.42,21.19 12.25,21.97 12.07,22.75 11.72,23.47 11.37,24.19 10.85,24.80 10.34,25.41 10.32,25.60 10.30,25.78 8.42,27.38 6.55,28.98 3.47,30.34 0.39,31.70 -1.96,32.25 -4.31,32.81 -5.93,34.74 -7.54,36.67 -9.16,38.40 -10.77,40.13 -12.32,42.73 -13.87,45.33 -15.79,46.67 -17.72,48.00 -18.50,48.22 -19.28,48.43 -20.09,48.45 -20.89,48.47 -21.68,48.30 -22.47,48.13 -23.20,47.77 -23.92,47.42 -24.54,46.90 -25.16,46.38 -25.63,45.73 -26.11,45.07 -26.41,44.33 -26.72,43.58 -26.84,42.78 -26.96,41.98 -26.88,41.18 -26.80,40.37 -26.54,39.61 -26.27,38.85 -25.83,38.17 -25.39,37.50 -24.80,36.95 -24.21,36.40 -23.50,36.00 -22.80,35.61 -19.79,34.99 -16.78,34.38 -13.95,34.28 -11.12,34.18 -9.07,33.18 -7.01,32.17 -4.47,31.65 -1.93,31.13 1.77,29.18 5.48,27.22 3.40,26.33 1.32,25.43 -0.42,23.23 -2.17,21.03 -2.45,18.26 -2.73,15.49 -2.98,12.35 -3.22,9.20 -4.10,4.93 -4.98,0.66 -4.99,0.05 -5.00,-0.54 -4.86,-1.13 -4.72,-1.72 -4.45,-2.27 -4.17,-2.81 -3.77,-3.26 -3.38,-3.72 -2.88,-4.07 -2.39,-4.42 -1.82,-4.65 -1.26,-4.87 -0.66,-4.95 -0.05,-5.03 0.54,-4.96 1.14,-4.90 1.71,-4.69 2.28,-4.48 2.79,-4.14 3.29,-3.80 3.70,-3.35 4.10,-2.90 4.39,-2.37 4.68,-1.83 4.83,-1.25 4.98,-0.66 4.98,-0.66 L 4.98,-0.66 Z"></path></g></svg>