<svg version="1.1" xmlns="http://www.w3.org/2000/svg" viewBox="0 0 280 138" width="280" height="138"><!-- svg-source:excalidraw --><metadata></metadata><defs><style class="style-fonts">
      </style></defs><g transform="translate(240 48) rotate(0 -106.5 36)" stroke="none"><path fill="#846358" d="M 1.19,4.76 Q 1.19,4.76 -2.28,5.50 -5.76,6.25 -8.28,6.74 -10.80,7.23 -14.23,8.62 -17.66,10.01 -21.42,10.87 -25.19,11.74 -28.25,12.10 -31.32,12.47 -33.92,13.10 -36.53,13.74 -40.02,14.41 -43.51,15.08 -46.96,15.26 -50.42,15.44 -52.89,15.89 -55.36,16.34 -60.11,18.22 -64.87,20.11 -69.91,20.70 -74.96,21.29 -80.56,22.79 -86.17,24.29 -91.46,25.20 -96.75,26.11 -100.18,26.63 -103.60,27.16 -106.25,27.50 -108.91,27.83 -111.73,28.49 -114.55,29.14 -117.52,29.54 -120.48,29.93 -124.57,30.34 -128.66,30.75 -132.28,30.96 -135.89,31.18 -136.64,38.28 -137.38,45.39 -137.45,49.09 -137.53,52.79 -139.63,57.40 -141.72,62.01 -143.37,65.18 -145.02,68.35 -147.65,71.29 -150.28,74.23 -153.06,75.04 -155.85,75.85 -158.41,76.10 -160.97,76.34 -164.06,76.48 -167.15,76.62 -170.84,77.18 -174.53,77.75 -177.50,77.91 -180.46,78.07 -183.24,77.39 -186.01,76.71 -189.21,76.43 -192.40,76.15 -194.66,75.02 -196.92,73.89 -198.69,72.42 -200.45,70.94 -201.87,69.06 -203.30,67.17 -205.13,64.10 -206.97,61.03 -209.37,59.45 -211.78,57.87 -213.40,55.30 -215.02,52.73 -216.65,48.40 -218.29,44.07 -218.29,43.04 -218.30,42.00 -217.98,41.02 -217.65,40.04 -217.03,39.22 -216.41,38.39 -215.56,37.80 -214.71,37.22 -213.72,36.94 -212.73,36.65 -211.70,36.70 -210.66,36.75 -209.70,37.13 -208.74,37.50 -207.95,38.17 -207.16,38.83 -206.62,39.71 -206.08,40.59 -205.85,41.60 -205.62,42.61 -205.73,43.64 -205.83,44.66 -206.26,45.60 -206.69,46.54 -207.39,47.30 -208.10,48.05 -209.01,48.54 -209.92,49.03 -210.94,49.20 -211.95,49.38 -212.97,49.22 -213.99,49.06 -214.91,48.58 -215.83,48.10 -216.54,47.36 -217.26,46.61 -217.69,45.68 -218.13,44.74 -218.25,43.72 -218.37,42.69 -218.16,41.68 -217.94,40.67 -217.41,39.78 -216.89,38.89 -216.10,38.22 -215.32,37.55 -214.36,37.16 -213.41,36.77 -212.38,36.71 -211.35,36.65 -210.35,36.92 -209.35,37.18 -208.49,37.76 -207.63,38.33 -207.00,39.15 -206.37,39.97 -206.04,40.95 -205.70,41.92 -205.70,41.92 -205.70,41.92 -204.85,44.23 -204.00,46.53 -202.33,48.64 -200.66,50.76 -197.68,54.12 -194.69,57.49 -192.56,60.73 -190.43,63.97 -188.17,64.10 -185.90,64.23 -182.28,65.06 -178.67,65.89 -176.39,65.91 -174.12,65.94 -170.64,65.65 -167.17,65.36 -164.14,65.48 -161.12,65.59 -158.91,65.72 -156.71,65.84 -154.49,65.21 -152.28,64.58 -150.76,61.62 -149.24,58.67 -147.94,55.63 -146.64,52.58 -146.84,49.11 -147.04,45.63 -147.53,40.17 -148.02,34.71 -148.09,30.60 -148.16,26.49 -144.23,23.89 -140.30,21.28 -138.13,21.04 -135.96,20.79 -132.42,20.94 -128.89,21.09 -125.13,21.16 -121.37,21.23 -118.83,21.07 -116.29,20.91 -112.91,20.25 -109.54,19.59 -107.09,19.54 -104.65,19.50 -101.48,19.11 -98.31,18.73 -93.50,17.52 -88.68,16.30 -82.70,14.15 -76.72,11.99 -72.09,10.76 -67.45,9.52 -65.18,9.02 -62.91,8.51 -59.00,6.77 -55.10,5.04 -52.82,4.76 -50.54,4.49 -47.53,4.51 -44.51,4.53 -41.68,4.35 -38.86,4.16 -35.65,3.38 -32.43,2.60 -29.92,2.34 -27.41,2.08 -24.83,1.48 -22.24,0.87 -19.57,-0.32 -16.89,-1.53 -14.60,-1.92 -12.30,-2.31 -10.17,-2.56 -8.03,-2.80 -4.61,-3.78 -1.19,-4.76 -0.60,-4.83 -0.01,-4.90 0.57,-4.83 1.15,-4.76 1.71,-4.56 2.26,-4.35 2.75,-4.01 3.24,-3.68 3.63,-3.24 4.03,-2.80 4.30,-2.27 4.58,-1.75 4.72,-1.18 4.87,-0.60 4.87,-0.01 4.87,0.57 4.73,1.15 4.59,1.72 4.32,2.25 4.04,2.77 3.65,3.21 3.26,3.66 2.78,4.00 2.29,4.33 1.74,4.55 1.18,4.76 1.19,4.76 L 1.19,4.76 Z"></path></g><g transform="translate(230 38) rotate(0 -30.5 45)" stroke="none"><path fill="#846358" d="M 4.98,0 Q 4.98,0 4.68,4.31 4.37,8.62 4.45,11.32 4.52,14.01 4.59,16.58 4.66,19.15 5.97,22.26 7.27,25.37 10.56,29.75 13.85,34.14 15.18,36.02 16.50,37.90 17.64,40.31 18.78,42.71 22.08,45.89 25.38,49.07 26.80,50.96 28.22,52.84 30.18,54.38 32.14,55.92 34.03,58.10 35.93,60.28 37.28,64.01 38.64,67.74 39.22,70.20 39.80,72.66 41.27,75.94 42.73,79.23 43.08,83.58 43.43,87.93 42.34,89.88 41.24,91.83 38.06,93.77 34.87,95.70 31.77,96.00 28.66,96.31 26.47,96.39 24.27,96.48 21.65,96.53 19.04,96.58 16.81,96.62 14.58,96.67 12.25,96.70 9.92,96.74 6.34,96.71 2.76,96.67 -2.01,96.51 -6.80,96.35 -9.44,96.27 -12.09,96.18 -14.65,96.12 -17.21,96.06 -19.73,96.01 -22.26,95.96 -24.50,95.95 -26.75,95.94 -29.80,95.26 -32.85,94.57 -36.43,94.32 -40.01,94.07 -42.78,93.34 -45.56,92.60 -49.09,92.34 -52.61,92.08 -56.26,92.05 -59.91,92.03 -62.45,92.10 -64.99,92.18 -68.07,92.22 -71.15,92.26 -75.27,92.22 -79.39,92.18 -83.25,92.19 -87.10,92.20 -89.37,92.17 -91.64,92.14 -96.32,92.21 -101.00,92.28 -102.00,92.11 -103.00,91.95 -103.90,91.47 -104.80,91.00 -105.50,90.26 -106.19,89.52 -106.62,88.60 -107.05,87.68 -107.16,86.66 -107.27,85.65 -107.05,84.66 -106.83,83.67 -106.31,82.80 -105.78,81.93 -105.01,81.27 -104.23,80.61 -103.29,80.24 -102.34,79.86 -101.33,79.81 -100.32,79.75 -99.34,80.02 -98.36,80.29 -97.52,80.86 -96.67,81.44 -96.06,82.24 -95.44,83.05 -95.12,84.02 -94.80,84.98 -94.80,86.00 -94.80,87.01 -95.12,87.98 -95.45,88.94 -96.06,89.75 -96.68,90.56 -97.52,91.13 -98.36,91.70 -99.34,91.97 -100.32,92.24 -101.33,92.18 -102.35,92.13 -103.29,91.75 -104.23,91.38 -105.01,90.72 -105.78,90.06 -106.31,89.19 -106.83,88.32 -107.05,87.33 -107.27,86.33 -107.16,85.32 -107.05,84.31 -106.62,83.39 -106.19,82.47 -105.49,81.73 -104.80,80.99 -103.90,80.52 -103.00,80.04 -102.00,79.88 -100.99,79.71 -100.99,79.71 -100.99,79.71 -96.32,79.78 -91.64,79.85 -89.37,79.82 -87.10,79.79 -83.24,79.80 -79.39,79.81 -75.26,79.77 -71.14,79.74 -68.05,79.78 -64.95,79.82 -62.37,79.92 -59.79,80.02 -55.93,80.13 -52.07,80.24 -49.29,80.35 -46.52,80.45 -42.95,81.34 -39.38,82.23 -36.92,82.34 -34.46,82.46 -30.56,83.25 -26.67,84.05 -24.46,84.04 -22.26,84.03 -19.73,83.98 -17.21,83.93 -14.65,83.87 -12.09,83.81 -9.44,83.72 -6.80,83.64 -2.01,83.48 2.76,83.32 6.34,83.28 9.92,83.25 12.24,83.28 14.57,83.32 16.80,83.36 19.03,83.41 22.40,83.47 25.77,83.53 28.56,82.18 31.35,80.84 29.77,76.18 28.18,71.52 26.95,68.45 25.71,65.38 23.81,63.96 21.91,62.53 20.00,59.77 18.08,57.01 15.65,54.88 13.22,52.76 10.30,48.49 7.39,44.22 5.93,42.13 4.48,40.04 2.90,38.00 1.31,35.96 -0.18,32.85 -1.69,29.74 -2.60,27.54 -3.50,25.34 -4.08,22.27 -4.66,19.20 -4.59,16.61 -4.52,14.01 -4.45,11.32 -4.37,8.62 -4.68,4.31 -4.98,0 -4.91,-0.59 -4.84,-1.19 -4.62,-1.75 -4.41,-2.31 -4.07,-2.81 -3.73,-3.30 -3.28,-3.70 -2.83,-4.10 -2.29,-4.38 -1.76,-4.66 -1.18,-4.80 -0.60,-4.94 0.00,-4.94 0.60,-4.94 1.18,-4.80 1.76,-4.66 2.29,-4.38 2.83,-4.10 3.28,-3.70 3.73,-3.30 4.07,-2.81 4.41,-2.31 4.62,-1.75 4.84,-1.19 4.91,-0.59 4.98,0.00 4.98,0.00 L 4.98,0 Z"></path></g><g transform="translate(79 78) rotate(0 10 -11.5)" stroke="none"><path fill="#1971c2" d="M 4.92,-1.47 Q 4.92,-1.47 5.74,1.40 6.57,4.28 7.83,7.23 9.09,10.18 10.14,14.74 11.19,19.29 9.71,23.79 8.24,28.28 5.42,29.75 2.61,31.22 0.56,33.37 -1.47,35.52 -3.77,36.24 -6.08,36.95 -8.48,38.58 -10.89,40.21 -13.58,40.37 -16.27,40.53 -19.71,39.68 -23.15,38.83 -26.30,36.70 -29.45,34.57 -32.09,31.37 -34.73,28.16 -35.41,25.85 -36.08,23.54 -36.36,20.11 -36.64,16.68 -37.03,14.54 -37.43,12.40 -37.69,9.75 -37.95,7.10 -37.62,3.00 -37.29,-1.09 -35.24,-3.52 -33.20,-5.96 -31.27,-7.05 -29.34,-8.15 -26.01,-9.45 -22.68,-10.75 -19.83,-12.20 -16.99,-13.66 -14.03,-14.09 -11.07,-14.51 -8.41,-14.60 -5.76,-14.69 -2.79,-14.68 0.17,-14.67 3.33,-13.41 6.50,-12.15 8.80,-9.81 11.10,-7.47 12.62,-3.54 14.13,0.38 16.08,4.27 18.03,8.16 19.14,11.70 20.24,15.24 19.83,17.80 19.42,20.37 16.55,23.59 13.67,26.81 10.97,28.06 8.27,29.30 4.81,31.19 1.34,33.07 -0.89,33.32 -3.14,33.56 -6.81,33.62 -10.49,33.68 -13.73,33.69 -16.97,33.69 -20.10,33.75 -23.23,33.80 -25.32,33.34 -27.40,32.87 -29.53,31.52 -31.65,30.17 -33.78,26.67 -35.91,23.16 -36.20,20.76 -36.49,18.36 -36.50,15.62 -36.50,12.88 -36.45,10.33 -36.41,7.77 -36.31,4.96 -36.21,2.14 -36.18,-0.19 -36.15,-2.53 -36.14,-4.68 -36.13,-6.82 -35.06,-11.13 -33.99,-15.45 -31.21,-17.44 -28.42,-19.44 -26.13,-20.01 -23.84,-20.57 -21.25,-20.77 -18.65,-20.97 -16.45,-21.03 -14.26,-21.10 -11.29,-21.01 -8.33,-20.93 -6.19,-20.94 -4.06,-20.96 -0.35,-19.46 3.34,-17.96 5.11,-15.18 6.87,-12.39 6.96,-7.73 7.04,-3.06 6.89,-0.45 6.74,2.16 6.76,4.49 6.79,6.82 5.45,10.42 4.10,14.02 2.15,15.68 0.20,17.34 -2.75,18.93 -5.70,20.52 -8.20,21.39 -10.70,22.25 -12.76,23.15 -14.81,24.05 -17.03,24.20 -19.24,24.36 -22.07,23.63 -24.90,22.90 -27.34,20.97 -29.79,19.03 -31.14,15.79 -32.49,12.55 -32.81,10.44 -33.13,8.33 -33.22,5.90 -33.30,3.46 -32.68,0.33 -32.05,-2.79 -30.16,-5.04 -28.28,-7.29 -25.54,-8.95 -22.80,-10.61 -19.39,-11.45 -15.97,-12.30 -13.49,-12.48 -11.02,-12.67 -7.55,-10.68 -4.08,-8.69 -1.94,-4.16 0.19,0.35 1.11,2.45 2.04,4.55 2.37,8.31 2.70,12.06 1.69,15.20 0.67,18.35 -1.34,20.31 -3.35,22.26 -6.32,22.80 -9.30,23.33 -11.83,23.40 -14.36,23.47 -15.60,23.53 -16.84,23.59 -17.65,23.53 -18.45,23.47 -19.21,23.22 -19.98,22.97 -20.66,22.55 -21.34,22.12 -21.90,21.54 -22.46,20.97 -22.87,20.27 -23.27,19.58 -23.50,18.81 -23.73,18.04 -23.77,17.24 -23.80,16.43 -23.65,15.64 -23.49,14.86 -23.15,14.13 -22.81,13.40 -22.31,12.77 -21.80,12.15 -21.16,11.66 -20.52,11.17 -19.78,10.86 -19.05,10.54 -18.25,10.40 -17.46,10.27 -17.11,16.93 -16.76,23.60 -17.55,23.54 -18.35,23.48 -19.11,23.23 -19.87,22.98 -20.55,22.56 -21.23,22.13 -21.79,21.56 -22.34,20.99 -22.75,20.30 -23.15,19.61 -23.38,18.84 -23.61,18.07 -23.64,17.27 -23.68,16.47 -23.53,15.69 -23.37,14.90 -23.03,14.18 -22.69,13.45 -22.19,12.83 -21.69,12.21 -21.05,11.72 -20.42,11.24 -19.68,10.92 -18.95,10.60 -18.16,10.47 -17.37,10.34 -20.53,12.97 -23.70,15.60 -23.34,13.26 -22.98,10.92 -22.47,8.70 -21.96,6.49 -20.19,4.15 -18.43,1.81 -15.35,0.66 -12.28,-0.47 -9.68,-0.56 -7.09,-0.65 -6.36,-0.17 -5.62,0.31 -4.80,0.39 -3.98,0.47 -3.20,0.74 -2.42,1.02 -1.73,1.47 -1.04,1.92 -0.48,2.53 0.08,3.13 0.48,3.85 0.88,4.58 1.10,5.37 1.31,6.17 1.33,7.00 1.35,7.82 1.17,8.63 1.00,9.43 0.63,10.17 0.26,10.92 -0.26,11.55 -0.79,12.18 -1.46,12.66 -2.13,13.15 -2.89,13.46 -3.66,13.77 -4.48,13.89 -5.29,14.01 -7.46,15.67 -9.63,17.32 -13.73,17.54 -17.84,17.76 -19.34,17.79 -20.84,17.83 -21.66,17.74 -22.48,17.65 -23.26,17.37 -24.03,17.09 -24.72,16.63 -25.41,16.17 -25.96,15.57 -26.52,14.96 -26.91,14.23 -27.31,13.51 -27.52,12.71 -27.73,11.91 -27.74,11.08 -27.75,10.26 -27.57,9.46 -27.38,8.65 -27.01,7.91 -26.64,7.18 -26.10,6.55 -25.56,5.93 -24.89,5.45 -24.22,4.97 -23.45,4.66 -22.68,4.36 -21.87,4.25 -21.05,4.14 -17.93,4.09 -14.81,4.05 -12.06,3.29 -9.31,2.53 -9.49,4.74 -9.68,6.94 -11.37,2.97 -13.05,-0.99 -11.42,-5.19 -9.79,-9.40 -5.92,-13.82 -2.06,-18.24 -0.62,-20.94 0.82,-23.65 0.24,-25.93 -0.32,-28.21 -0.38,-30.46 -0.44,-32.71 -0.35,-33.48 -0.25,-34.25 0.01,-34.98 0.29,-35.70 0.73,-36.34 1.17,-36.98 1.75,-37.50 2.34,-38.01 3.02,-38.37 3.71,-38.73 4.47,-38.92 5.22,-39.10 6.00,-39.10 6.77,-39.10 7.53,-38.92 8.28,-38.73 8.97,-38.37 9.66,-38.01 10.24,-37.49 10.82,-36.98 11.26,-36.34 11.70,-35.70 11.98,-34.97 12.25,-34.24 12.35,-33.47 12.44,-32.70 12.37,-30.49 12.30,-28.27 12.17,-25.32 12.04,-22.36 12.10,-19.18 12.17,-16.00 11.95,-12.55 11.73,-9.10 11.82,-5.90 11.90,-2.71 9.65,-0.78 7.39,1.14 6.97,-1.48 6.56,-4.12 4.86,-5.76 3.16,-7.41 3.08,-11.61 3.00,-15.81 3.29,-19.91 3.58,-24.00 3.58,-26.66 3.58,-29.32 4.56,-32.03 5.55,-34.75 7.64,-36.50 9.74,-38.24 11.85,-38.82 13.95,-39.40 16.09,-40.67 18.22,-41.93 21.02,-42.43 23.82,-42.92 26.10,-43.22 28.38,-43.52 31.18,-45.08 33.98,-46.64 38.43,-47.43 42.87,-48.22 45.20,-48.38 47.53,-48.53 47.60,-48.55 47.67,-48.56 48.47,-48.49 49.26,-48.42 50.01,-48.17 50.76,-47.91 51.43,-47.48 52.10,-47.05 52.64,-46.47 53.19,-45.90 53.58,-45.20 53.97,-44.51 54.19,-43.75 54.40,-42.98 54.43,-42.19 54.45,-41.40 54.29,-40.62 54.12,-39.84 53.78,-39.13 53.43,-38.41 52.92,-37.80 52.42,-37.19 51.78,-36.72 51.14,-36.25 50.41,-35.94 49.67,-35.64 48.89,-35.51 48.10,-35.39 45.16,-34.67 42.23,-33.95 39.70,-32.95 37.18,-31.94 35.03,-30.66 32.89,-29.39 30.40,-28.14 27.91,-26.89 25.70,-25.98 23.48,-25.08 21.86,-23.44 20.24,-21.79 19.59,-21.29 18.94,-20.79 18.20,-20.46 17.45,-20.13 16.65,-19.99 15.84,-19.85 15.03,-19.90 14.21,-19.96 13.43,-20.20 12.65,-20.45 11.96,-20.88 11.26,-21.30 10.69,-21.88 10.11,-22.47 9.69,-23.17 9.28,-23.87 9.04,-24.65 8.80,-25.43 8.75,-26.25 8.71,-27.06 8.86,-27.87 9.01,-28.67 9.35,-29.41 9.69,-30.15 10.20,-30.79 10.71,-31.43 15.23,-31.35 19.76,-31.26 22.76,-32.01 25.76,-32.76 28.38,-31.98 31.01,-31.20 33.32,-31.00 35.64,-30.81 38.18,-31.54 40.73,-32.28 41.28,-36.45 41.82,-40.62 43.09,-43.41 44.37,-46.21 44.70,-48.37 45.03,-50.52 44.58,-50.95 44.12,-51.38 43.53,-51.94 42.95,-52.50 42.52,-53.19 42.08,-53.88 41.83,-54.65 41.57,-55.42 41.51,-56.22 41.45,-57.03 41.58,-57.83 41.71,-58.63 42.03,-59.38 42.35,-60.12 42.83,-60.77 43.32,-61.42 43.95,-61.93 44.58,-62.44 45.31,-62.79 46.05,-63.14 46.84,-63.30 47.64,-63.46 48.45,-63.42 49.26,-63.39 50.04,-63.16 50.81,-62.94 51.52,-62.53 52.22,-62.12 53.04,-56.25 53.86,-50.38 53.67,-48.19 53.49,-46.01 52.86,-43.35 52.23,-40.70 51.86,-39.73 51.49,-38.77 50.83,-37.98 50.17,-37.19 49.29,-36.65 48.42,-36.11 47.41,-35.87 46.41,-35.64 45.39,-35.74 44.36,-35.84 43.42,-36.26 42.48,-36.69 41.73,-37.39 40.97,-38.09 40.48,-38.99 39.98,-39.89 39.81,-40.91 39.63,-41.92 39.78,-42.94 39.94,-43.96 40.41,-44.88 40.88,-45.79 41.62,-46.51 42.36,-47.23 43.29,-47.67 44.22,-48.11 45.25,-48.23 46.27,-48.36 47.28,-48.15 48.29,-47.94 49.17,-47.41 50.06,-46.89 50.74,-46.12 51.41,-45.34 51.81,-44.39 52.20,-43.43 52.26,-42.40 52.33,-41.38 52.07,-40.38 51.80,-39.39 51.23,-38.53 50.67,-37.67 49.85,-37.04 49.04,-36.40 48.07,-36.06 47.09,-35.72 46.06,-35.71 45.03,-35.70 44.05,-36.02 43.07,-36.34 42.25,-36.95 41.42,-37.57 40.83,-38.41 40.25,-39.26 39.96,-40.25 39.67,-41.24 39.72,-42.27 39.76,-43.30 39.76,-43.29 39.76,-43.29 40.34,-45.10 40.92,-46.91 42.52,-49.14 44.12,-51.38 43.53,-51.94 42.95,-52.50 42.52,-53.19 42.09,-53.88 41.83,-54.65 41.57,-55.42 41.51,-56.22 41.45,-57.03 41.58,-57.83 41.71,-58.63 42.03,-59.38 42.35,-60.12 42.83,-60.77 43.32,-61.42 43.95,-61.93 44.58,-62.44 45.31,-62.79 46.05,-63.14 46.84,-63.30 47.64,-63.46 48.45,-63.43 49.26,-63.39 50.03,-63.16 50.81,-62.94 51.52,-62.53 52.22,-62.12 54.30,-60.63 56.37,-59.14 57.32,-56.62 58.27,-54.10 58.25,-51.34 58.23,-48.57 57.88,-46.42 57.53,-44.28 55.99,-40.30 54.44,-36.32 54.07,-33.56 53.69,-30.81 52.60,-27.02 51.51,-23.22 48.84,-21.42 46.16,-19.62 43.37,-19.23 40.58,-18.84 36.35,-18.29 32.12,-17.73 27.20,-18.48 22.29,-19.22 19.27,-19.28 16.25,-19.35 14.02,-20.30 11.78,-21.26 16.01,-21.53 20.24,-21.79 19.59,-21.29 18.94,-20.79 18.20,-20.46 17.45,-20.13 16.65,-19.99 15.84,-19.85 15.03,-19.90 14.21,-19.96 13.43,-20.20 12.65,-20.45 11.96,-20.88 11.26,-21.30 10.69,-21.88 10.11,-22.47 9.69,-23.17 9.28,-23.87 9.04,-24.65 8.80,-25.43 8.75,-26.25 8.71,-27.06 8.86,-27.86 9.01,-28.67 9.35,-29.41 9.69,-30.15 10.20,-30.79 10.71,-31.43 12.74,-32.84 14.77,-34.24 17.43,-35.92 20.08,-37.59 22.09,-38.42 24.10,-39.25 27.89,-41.75 31.68,-44.25 34.96,-45.47 38.24,-46.70 40.69,-47.63 43.14,-48.56 45.41,-48.56 47.67,-48.56 48.47,-48.49 49.26,-48.42 50.01,-48.17 50.76,-47.91 51.43,-47.48 52.10,-47.05 52.64,-46.47 53.19,-45.90 53.58,-45.20 53.97,-44.51 54.19,-43.75 54.40,-42.98 54.43,-42.19 54.45,-41.40 54.29,-40.62 54.12,-39.84 53.78,-39.13 53.43,-38.41 52.92,-37.80 52.42,-37.19 51.78,-36.72 51.14,-36.25 50.41,-35.94 49.67,-35.64 48.89,-35.51 48.10,-35.39 48.04,-35.39 47.97,-35.38 45.37,-35.52 42.78,-35.67 39.34,-35.34 35.90,-35.01 32.44,-33.19 28.97,-31.37 26.16,-31.20 23.35,-31.02 18.92,-30.06 14.49,-29.10 14.54,-26.63 14.59,-24.17 15.01,-20.27 15.43,-16.36 16.29,-13.25 17.15,-10.14 18.28,-6.19 19.42,-2.24 19.23,0.27 19.04,2.78 18.22,5.51 17.41,8.23 15.49,9.38 13.57,10.52 9.97,10.38 6.37,10.23 4.60,8.58 2.83,6.92 1.77,4.52 0.71,2.11 0.40,-0.29 0.09,-2.69 0.17,-5.89 0.26,-9.10 0.04,-12.55 -0.17,-16.00 -0.10,-19.18 -0.04,-22.36 -0.17,-25.32 -0.31,-28.27 -0.37,-30.49 -0.44,-32.71 -0.35,-33.48 -0.25,-34.25 0.01,-34.98 0.29,-35.70 0.73,-36.34 1.17,-36.98 1.75,-37.50 2.33,-38.01 3.02,-38.37 3.71,-38.73 4.47,-38.92 5.22,-39.10 6.00,-39.10 6.77,-39.10 7.53,-38.92 8.28,-38.73 8.97,-38.37 9.66,-38.01 10.24,-37.49 10.82,-36.98 11.26,-36.34 11.70,-35.70 11.98,-34.97 12.25,-34.24 12.35,-33.47 12.44,-32.70 12.38,-30.45 12.31,-28.20 12.23,-24.67 12.15,-21.15 11.08,-18.66 10.00,-16.18 8.54,-13.15 7.07,-10.13 5.24,-7.81 3.42,-5.50 1.84,-3.56 0.27,-1.61 1.46,3.14 2.65,7.90 -1.58,11.64 -5.82,15.39 -8.05,16.50 -10.28,17.60 -12.55,17.77 -14.82,17.94 -17.83,17.88 -20.84,17.83 -21.66,17.74 -22.48,17.65 -23.26,17.37 -24.03,17.09 -24.72,16.63 -25.41,16.17 -25.96,15.57 -26.52,14.96 -26.91,14.23 -27.31,13.51 -27.52,12.71 -27.73,11.91 -27.74,11.09 -27.75,10.26 -27.57,9.46 -27.38,8.65 -27.01,7.92 -26.64,7.18 -26.10,6.55 -25.56,5.93 -24.89,5.45 -24.22,4.97 -23.45,4.66 -22.68,4.36 -21.87,4.25 -21.05,4.14 -19.62,4.11 -18.18,4.08 -14.79,3.86 -11.39,3.64 -8.51,1.98 -5.62,0.31 -4.80,0.39 -3.98,0.47 -3.20,0.74 -2.42,1.02 -1.73,1.47 -1.04,1.92 -0.48,2.53 0.08,3.13 0.48,3.85 0.88,4.58 1.10,5.37 1.31,6.17 1.33,7.00 1.35,7.82 1.17,8.63 1.00,9.43 0.63,10.17 0.26,10.91 -0.26,11.55 -0.79,12.18 -1.46,12.66 -2.13,13.15 -2.89,13.46 -3.66,13.77 -4.48,13.89 -5.29,14.01 -7.85,12.27 -10.40,10.52 -10.38,13.29 -10.35,16.07 -13.55,19.83 -16.75,23.60 -17.55,23.54 -18.35,23.48 -19.11,23.23 -19.87,22.98 -20.55,22.56 -21.23,22.13 -21.79,21.56 -22.34,20.99 -22.75,20.30 -23.15,19.61 -23.38,18.84 -23.61,18.07 -23.64,17.27 -23.68,16.47 -23.53,15.69 -23.37,14.90 -23.03,14.18 -22.69,13.45 -22.19,12.83 -21.69,12.21 -21.05,11.72 -20.42,11.24 -19.68,10.92 -18.95,10.60 -18.16,10.47 -17.37,10.34 -17.11,16.96 -16.84,23.59 -17.65,23.53 -18.45,23.47 -19.21,23.22 -19.98,22.97 -20.66,22.55 -21.34,22.12 -21.90,21.54 -22.46,20.97 -22.87,20.27 -23.27,19.58 -23.50,18.81 -23.73,18.04 -23.77,17.24 -23.80,16.43 -23.65,15.64 -23.49,14.86 -23.15,14.13 -22.81,13.40 -22.31,12.77 -21.80,12.15 -21.16,11.66 -20.52,11.17 -19.79,10.86 -19.05,10.54 -18.25,10.40 -17.46,10.27 -16.22,10.24 -14.97,10.22 -12.92,11.34 -10.86,12.46 -11.02,10.04 -11.18,7.61 -11.85,5.11 -12.52,2.61 -13.42,-0.32 -14.32,-3.26 -12.48,-1.24 -10.64,0.77 -13.21,0.84 -15.77,0.92 -18.80,1.48 -21.82,2.04 -21.01,4.31 -20.19,6.59 -18.77,8.89 -17.34,11.18 -15.01,10.98 -12.67,10.78 -10.64,9.83 -8.62,8.88 -6.56,6.67 -4.50,4.46 -4.14,1.03 -3.77,-2.39 -3.57,-6.05 -3.37,-9.71 -5.79,-9.34 -8.21,-8.98 -12.98,-8.77 -17.75,-8.56 -20.80,-7.70 -23.85,-6.84 -23.84,-4.70 -23.83,-2.56 -23.78,-0.24 -23.74,2.08 -23.61,4.83 -23.48,7.59 -23.36,10.02 -23.25,12.45 -23.51,15.93 -23.77,19.41 -21.54,19.83 -19.30,20.25 -16.80,20.28 -14.30,20.30 -10.90,20.25 -7.50,20.19 -4.90,20.30 -2.30,20.40 1.33,19.09 4.97,17.78 5.95,15.54 6.93,13.29 5.99,11.35 5.05,9.41 3.02,5.20 0.98,0.99 -0.98,-0.12 -2.95,-1.25 -5.37,-1.26 -7.78,-1.27 -11.07,-1.21 -14.36,-1.15 -17.46,0.42 -20.57,2.01 -23.03,2.25 -25.49,2.49 -25.14,6.05 -24.79,9.61 -23.99,12.90 -23.18,16.18 -23.02,19.36 -22.86,22.54 -21.21,24.02 -19.55,25.50 -17.06,27.49 -14.57,29.48 -11.57,27.55 -8.56,25.61 -6.44,24.02 -4.32,22.43 -1.73,20.82 0.84,19.21 0.63,16.73 0.42,14.24 -1.34,10.73 -3.12,7.21 -4.02,4.34 -4.92,1.47 -5.02,0.86 -5.13,0.25 -5.08,-0.36 -5.04,-0.98 -4.85,-1.56 -4.66,-2.15 -4.33,-2.68 -4.01,-3.21 -3.56,-3.64 -3.12,-4.07 -2.59,-4.39 -2.05,-4.70 -1.46,-4.88 -0.87,-5.06 -0.25,-5.09 0.36,-5.12 0.97,-5.00 1.58,-4.89 2.14,-4.62 2.70,-4.36 3.18,-3.98 3.67,-3.59 4.04,-3.10 4.42,-2.61 4.67,-2.04 4.92,-1.47 4.92,-1.47 L 4.92,-1.47 Z"></path></g><g transform="translate(61 94) rotate(0 -16 -32.5)" stroke="none"><path fill="#1971c2" d="M 2.10,4.74 Q 2.10,4.74 -0.49,5.87 -3.08,7.01 -6.25,8.03 -9.41,9.05 -12.38,9.36 -15.36,9.67 -18.58,8.93 -21.80,8.20 -23.72,3.27 -25.65,-1.64 -28.45,-4.42 -31.24,-7.20 -30.58,-12.71 -29.92,-18.21 -26.94,-24.70 -23.97,-31.18 -21.82,-35.82 -19.68,-40.46 -18.97,-43.39 -18.25,-46.32 -18.00,-49.12 -17.75,-51.92 -17.80,-54.79 -17.85,-57.66 -18.02,-60.99 -18.18,-64.31 -14.71,-64.42 -11.24,-64.52 -12.78,-60.99 -14.31,-57.46 -14.75,-54.77 -15.19,-52.08 -16.13,-48.50 -17.07,-44.93 -17.30,-42.81 -17.52,-40.69 -17.56,-36.79 -17.60,-32.88 -16.92,-30.13 -16.25,-27.38 -14.29,-26.37 -12.33,-25.35 -10.41,-23.44 -8.49,-21.53 -6.85,-29.34 -5.20,-37.14 -4.77,-43.42 -4.33,-49.69 -4.90,-54.35 -5.47,-59.02 -6.36,-61.28 -7.24,-63.55 -10.49,-59.51 -13.73,-55.47 -15.56,-53.35 -17.38,-51.24 -19.74,-47.68 -22.10,-44.12 -23.31,-42.15 -24.53,-40.19 -25.21,-37.45 -25.89,-34.72 -26.16,-32.59 -26.43,-30.46 -23.27,-27.56 -20.11,-24.67 -17.89,-23.41 -15.68,-22.16 -15.16,-26.30 -14.65,-30.45 -14.18,-33.47 -13.71,-36.48 -13.49,-39.51 -13.26,-42.54 -13.23,-44.98 -13.20,-47.42 -15.13,-49.08 -17.05,-50.74 -18.93,-53.81 -20.81,-56.87 -22.31,-58.58 -23.80,-60.28 -23.10,-57.76 -22.40,-55.24 -23.82,-52.35 -25.23,-49.45 -25.62,-46.91 -26.01,-44.37 -23.22,-44.84 -20.42,-45.31 -17.75,-45.29 -15.07,-45.28 -13.00,-45.29 -10.93,-45.31 -9.92,-45.14 -8.91,-44.96 -8.02,-44.47 -7.12,-43.98 -6.42,-43.23 -5.73,-42.48 -5.31,-41.55 -4.89,-40.62 -4.79,-39.60 -4.69,-38.58 -4.92,-37.59 -5.15,-36.59 -5.69,-35.72 -6.23,-34.85 -7.01,-34.20 -7.80,-33.55 -8.75,-33.18 -9.70,-32.81 -10.73,-32.77 -11.75,-32.72 -12.73,-33.01 -13.71,-33.29 -14.55,-33.87 -15.39,-34.46 -16.00,-35.28 -16.61,-36.10 -16.92,-37.07 -17.24,-38.04 -17.23,-39.06 -17.22,-40.08 -16.88,-41.05 -16.54,-42.01 -15.92,-42.82 -15.29,-43.63 -14.44,-44.19 -13.58,-44.76 -12.60,-45.02 -11.61,-45.28 -10.59,-45.22 -9.57,-45.15 -8.62,-44.76 -7.68,-44.37 -6.91,-43.70 -6.14,-43.03 -5.62,-42.15 -5.10,-41.27 -4.89,-40.27 -4.68,-39.27 -4.81,-38.25 -4.93,-37.24 -5.37,-36.32 -5.81,-35.39 -6.52,-34.66 -7.23,-33.92 -8.14,-33.46 -9.04,-32.99 -10.05,-32.83 -11.06,-32.68 -11.06,-32.68 -11.06,-32.68 -14.77,-32.81 -18.48,-32.93 -21.82,-33.30 -25.17,-33.67 -28.82,-34.69 -32.47,-35.70 -34.20,-37.52 -35.92,-39.34 -36.62,-42.48 -37.32,-45.61 -36.22,-49.89 -35.12,-54.16 -34.07,-56.42 -33.03,-58.69 -31.43,-62.53 -29.82,-66.37 -26.26,-68.37 -22.69,-70.38 -19.88,-69.88 -17.07,-69.38 -15.39,-67.81 -13.71,-66.23 -11.77,-62.60 -9.83,-58.97 -7.97,-57.37 -6.11,-55.78 -4.89,-53.85 -3.67,-51.93 -3.33,-49.55 -3.00,-47.17 -3.10,-44.59 -3.21,-42.02 -3.32,-38.68 -3.42,-35.33 -3.72,-31.46 -4.03,-27.60 -4.78,-24.06 -5.53,-20.53 -7.36,-16.81 -9.20,-13.08 -12.38,-11.82 -15.56,-10.55 -19.71,-11.94 -23.86,-13.33 -25.67,-14.74 -27.47,-16.15 -29.58,-17.98 -31.69,-19.81 -33.65,-23.18 -35.61,-26.56 -36.13,-28.80 -36.65,-31.05 -36.30,-34.00 -35.95,-36.95 -35.17,-40.77 -34.40,-44.59 -30.81,-48.44 -27.22,-52.28 -26.07,-54.85 -24.92,-57.43 -22.90,-59.82 -20.88,-62.22 -19.32,-63.75 -17.76,-65.29 -14.97,-68.59 -12.19,-71.89 -7.76,-71.18 -3.33,-70.47 -1.70,-68.46 -0.06,-66.45 0.86,-63.31 1.78,-60.17 2.78,-54.82 3.78,-49.48 3.84,-43.02 3.91,-36.56 3.72,-29.19 3.54,-21.82 2.41,-17.44 1.28,-13.06 -4.30,-11.80 -9.88,-10.55 -14.24,-13.20 -18.60,-15.86 -20.67,-17.32 -22.74,-18.78 -24.50,-20.91 -26.26,-23.04 -27.24,-28.12 -28.21,-33.19 -28.08,-35.33 -27.95,-37.48 -27.72,-39.80 -27.49,-42.11 -27.07,-44.61 -26.64,-47.10 -26.03,-50.32 -25.42,-53.54 -24.93,-57.37 -24.43,-61.19 -22.99,-64.93 -21.54,-68.67 -19.87,-70.22 -18.21,-71.76 -13.46,-70.37 -8.71,-68.97 -8.28,-66.61 -7.84,-64.25 -8.08,-60.68 -8.32,-57.11 -8.79,-54.04 -9.26,-50.97 -9.70,-47.62 -10.14,-44.26 -11.04,-40.82 -11.95,-37.39 -13.62,-32.46 -15.30,-27.53 -17.24,-22.32 -19.18,-17.11 -20.07,-14.01 -20.95,-10.92 -18.40,-9.18 -15.85,-7.44 -16.74,-4.65 -17.64,-1.87 -14.63,-1.77 -11.62,-1.66 -9.44,-2.03 -7.26,-2.41 -4.68,-3.57 -2.10,-4.74 -1.50,-4.92 -0.91,-5.10 -0.28,-5.14 0.33,-5.17 0.95,-5.06 1.56,-4.94 2.13,-4.68 2.70,-4.42 3.19,-4.03 3.68,-3.65 4.06,-3.15 4.45,-2.66 4.70,-2.09 4.96,-1.51 5.06,-0.90 5.17,-0.28 5.13,0.33 5.09,0.95 4.90,1.55 4.72,2.15 4.39,2.68 4.06,3.21 3.62,3.65 3.17,4.09 2.64,4.41 2.10,4.74 2.10,4.74 L 2.10,4.74 Z"></path></g><g transform="translate(51 47) rotate(0 15 -9.5)" stroke="none"><path fill="#1971c2" d="M -2.84,-4.26 Q -2.84,-4.26 -0.23,-5.92 2.36,-7.59 5.89,-11.22 9.42,-14.85 11.05,-16.70 12.68,-18.54 15.53,-20.23 18.39,-21.91 20.40,-23.60 22.41,-25.29 26.15,-28.12 29.90,-30.95 30.31,-31.36 30.73,-31.76 31.40,-32.00 32.07,-32.24 32.78,-32.31 33.49,-32.38 34.19,-32.28 34.90,-32.18 35.56,-31.92 36.22,-31.65 36.80,-31.23 37.38,-30.82 37.84,-30.28 38.30,-29.73 38.62,-29.10 38.94,-28.46 39.10,-27.76 39.25,-27.07 39.24,-26.36 39.23,-25.65 39.04,-24.96 38.86,-24.27 38.51,-23.64 38.17,-23.02 37.69,-22.50 37.21,-21.97 36.61,-21.58 36.02,-21.19 34.14,-17.93 32.27,-14.67 30.20,-11.67 28.13,-8.68 26.73,-6.47 25.33,-4.26 23.62,-2.65 21.90,-1.04 18.95,0.03 16.01,1.12 14.46,2.58 12.91,4.04 9.96,6.06 7.01,8.08 5.40,9.48 3.79,10.89 -0.06,12.45 -3.92,14.01 -6.11,14.34 -8.31,14.66 -9.28,14.74 -10.26,14.82 -10.96,14.77 -11.67,14.72 -12.34,14.50 -13.01,14.28 -13.61,13.91 -14.21,13.54 -14.71,13.03 -15.20,12.53 -15.56,11.92 -15.92,11.31 -16.12,10.63 -16.32,9.95 -16.36,9.25 -16.39,8.54 -16.26,7.85 -16.12,7.16 -15.82,6.52 -15.53,5.88 -15.08,5.32 -14.64,4.77 -14.08,4.34 -13.52,3.91 -12.87,3.63 -12.22,3.35 -11.53,3.23 -10.83,3.11 -13.40,3.95 -15.98,4.79 -14.41,1.59 -12.84,-1.61 -10.45,-5.08 -8.05,-8.55 -3.75,-11.92 0.53,-15.30 3.76,-16.72 7.00,-18.15 12.86,-21.07 18.72,-23.98 22.88,-25.59 27.04,-27.19 29.48,-28.15 31.93,-29.11 32.36,-29.55 32.80,-29.99 33.36,-30.12 33.92,-30.24 34.50,-30.23 35.08,-30.22 35.63,-30.06 36.19,-29.91 36.69,-29.63 37.20,-29.35 37.62,-28.96 38.04,-28.57 38.36,-28.09 38.68,-27.61 38.87,-27.06 39.06,-26.52 39.12,-25.94 39.17,-25.37 39.09,-24.80 39.01,-24.23 38.79,-23.69 38.57,-23.16 38.23,-22.69 37.90,-22.23 37.46,-21.85 37.02,-21.48 36.50,-21.23 35.98,-20.97 33.40,-20.94 30.83,-20.92 28.33,-20.94 25.83,-20.96 25.55,-20.95 25.28,-20.94 24.68,-21.03 24.08,-21.12 23.52,-21.34 22.96,-21.57 22.47,-21.93 21.99,-22.28 21.59,-22.74 21.20,-23.20 20.94,-23.75 20.67,-24.29 20.54,-24.88 20.41,-25.47 20.42,-26.07 20.43,-26.68 20.59,-27.26 20.75,-27.84 21.05,-28.37 21.34,-28.90 21.75,-29.34 22.16,-29.79 22.67,-30.12 23.17,-30.45 23.74,-30.65 24.31,-30.85 24.92,-30.91 25.52,-30.97 28.96,-32.13 32.41,-33.29 35.85,-33.48 39.30,-33.68 39.48,-33.70 39.66,-33.73 40.35,-33.65 41.04,-33.58 41.69,-33.34 42.34,-33.10 42.91,-32.71 43.49,-32.32 43.95,-31.81 44.42,-31.30 44.74,-30.69 45.07,-30.08 45.25,-29.41 45.42,-28.74 45.43,-28.04 45.43,-27.35 45.28,-26.68 45.12,-26.00 44.80,-25.39 44.49,-24.77 44.03,-24.25 43.58,-23.72 43.01,-23.32 42.45,-22.92 41.80,-22.67 41.16,-22.42 40.47,-22.33 39.78,-22.24 37.59,-19.64 35.39,-17.04 33.79,-14.88 32.19,-12.71 29.66,-10.67 27.13,-8.62 24.95,-7.28 22.77,-5.94 20.71,-4.81 18.64,-3.67 15.00,-1.49 11.36,0.67 8.29,2.01 5.21,3.34 3.64,4.48 2.07,5.61 1.37,5.78 0.66,5.95 -0.05,5.94 -0.77,5.93 -1.47,5.75 -2.17,5.57 -2.80,5.23 -3.44,4.89 -3.98,4.41 -4.51,3.93 -4.92,3.33 -5.32,2.73 -5.57,2.05 -5.82,1.38 -5.90,0.66 -5.98,-0.05 -5.89,-0.76 -5.80,-1.48 -5.53,-2.15 -5.27,-2.83 -4.86,-3.42 -4.44,-4.01 -3.90,-4.48 -3.35,-4.95 -2.71,-5.28 -2.07,-5.61 1.46,-4.45 5.00,-3.28 5.39,-2.40 5.79,-1.51 5.88,-0.55 5.97,0.40 5.75,1.35 5.53,2.29 5.01,3.11 4.50,3.94 3.76,4.55 3.01,5.17 2.10,5.52 1.20,5.86 0.23,5.90 -0.73,5.94 -1.66,5.67 -2.59,5.39 -3.38,4.84 -4.18,4.28 -4.75,3.50 -5.33,2.72 -5.62,1.80 -5.92,0.88 -5.90,-0.08 -5.89,-1.05 -5.57,-1.96 -5.24,-2.88 -4.65,-3.64 -4.05,-4.40 -3.24,-4.93 -2.43,-5.47 -1.49,-5.71 -0.56,-5.96 0.40,-5.89 1.37,-5.82 2.26,-5.45 3.16,-5.08 3.89,-4.44 4.61,-3.81 5.10,-2.97 5.59,-2.13 5.78,-1.18 5.98,-0.23 5.86,0.72 5.74,1.68 5.32,2.55 4.90,3.43 4.23,4.12 3.55,4.81 2.69,5.26 1.82,5.70 0.87,5.84 -0.08,5.98 -1.04,5.81 -1.99,5.64 -2.84,5.18 -3.69,4.71 -0.80,5.16 2.07,5.61 1.37,5.78 0.66,5.95 -0.05,5.94 -0.77,5.93 -1.47,5.75 -2.17,5.58 -2.80,5.23 -3.44,4.89 -3.98,4.41 -4.51,3.93 -4.92,3.33 -5.32,2.73 -5.57,2.05 -5.82,1.38 -5.90,0.66 -5.98,-0.05 -5.89,-0.76 -5.80,-1.48 -5.53,-2.15 -5.27,-2.83 -4.86,-3.42 -4.44,-4.01 -3.90,-4.48 -3.35,-4.95 -2.71,-5.28 -2.07,-5.61 1.38,-7.32 4.85,-9.03 7.13,-9.64 9.42,-10.24 11.32,-11.87 13.22,-13.50 15.13,-14.51 17.04,-15.53 20.14,-17.34 23.23,-19.14 25.30,-22.30 27.37,-25.46 29.08,-27.06 30.78,-28.65 35.22,-31.19 39.66,-33.73 40.35,-33.65 41.04,-33.58 41.69,-33.34 42.34,-33.10 42.91,-32.71 43.49,-32.32 43.95,-31.81 44.42,-31.30 44.74,-30.69 45.07,-30.08 45.25,-29.41 45.42,-28.74 45.43,-28.04 45.43,-27.35 45.28,-26.68 45.12,-26.00 44.80,-25.39 44.49,-24.77 44.03,-24.25 43.58,-23.72 43.01,-23.32 42.45,-22.92 41.80,-22.67 41.16,-22.42 40.47,-22.33 39.79,-22.24 37.87,-22.28 35.96,-22.32 32.87,-22.65 29.78,-22.97 27.53,-21.96 25.28,-20.94 24.68,-21.03 24.08,-21.12 23.52,-21.34 22.96,-21.57 22.47,-21.93 21.99,-22.28 21.60,-22.74 21.20,-23.20 20.94,-23.75 20.67,-24.29 20.54,-24.88 20.41,-25.47 20.42,-26.07 20.43,-26.68 20.59,-27.26 20.75,-27.84 21.05,-28.37 21.34,-28.90 21.75,-29.34 22.16,-29.79 22.67,-30.12 23.17,-30.45 23.74,-30.65 24.31,-30.85 24.91,-30.91 25.52,-30.97 25.79,-30.91 26.06,-30.85 29.43,-30.42 32.80,-29.99 33.36,-30.12 33.92,-30.24 34.50,-30.23 35.07,-30.22 35.63,-30.07 36.19,-29.91 36.69,-29.63 37.20,-29.36 37.62,-28.96 38.04,-28.57 38.36,-28.09 38.68,-27.61 38.87,-27.06 39.06,-26.52 39.12,-25.94 39.17,-25.37 39.09,-24.80 39.01,-24.23 38.79,-23.70 38.57,-23.16 38.23,-22.69 37.90,-22.23 37.46,-21.85 37.02,-21.48 36.50,-21.23 35.98,-20.97 35.60,-20.71 35.21,-20.46 33.02,-19.78 30.83,-19.11 26.79,-16.86 22.76,-14.61 19.41,-12.87 16.06,-11.13 12.33,-9.03 8.61,-6.93 5.55,-5.58 2.48,-4.24 0.53,-1.89 -1.41,0.45 -2.95,3.36 -4.48,6.27 -7.37,10.54 -10.26,14.82 -10.96,14.77 -11.67,14.72 -12.34,14.50 -13.01,14.28 -13.61,13.91 -14.21,13.54 -14.71,13.03 -15.20,12.53 -15.56,11.92 -15.92,11.31 -16.12,10.63 -16.32,9.96 -16.36,9.25 -16.39,8.54 -16.26,7.85 -16.12,7.16 -15.82,6.52 -15.53,5.88 -15.08,5.32 -14.64,4.77 -14.08,4.34 -13.52,3.92 -12.87,3.63 -12.22,3.35 -11.53,3.23 -10.83,3.11 -9.10,3.18 -7.36,3.26 -5.01,3.07 -2.66,2.89 -0.79,1.43 1.07,-0.01 3.59,-2.00 6.12,-3.99 9.33,-6.55 12.54,-9.10 14.62,-9.57 16.70,-10.03 18.04,-12.09 19.38,-14.14 21.04,-17.12 22.70,-20.10 24.48,-23.54 26.27,-26.98 28.50,-29.37 30.73,-31.76 31.40,-32.00 32.07,-32.24 32.78,-32.31 33.49,-32.38 34.19,-32.28 34.90,-32.18 35.56,-31.92 36.22,-31.65 36.80,-31.23 37.38,-30.82 37.84,-30.28 38.30,-29.73 38.62,-29.10 38.94,-28.46 39.10,-27.76 39.25,-27.07 39.24,-26.36 39.23,-25.65 39.04,-24.96 38.86,-24.27 38.51,-23.65 38.17,-23.02 37.69,-22.50 37.21,-21.97 36.61,-21.58 36.02,-21.19 34.93,-21.18 33.85,-21.17 32.45,-19.29 31.04,-17.41 28.93,-16.24 26.82,-15.08 23.44,-13.34 20.06,-11.60 18.14,-9.49 16.21,-7.37 14.27,-5.60 12.32,-3.83 10.15,-1.57 7.98,0.69 5.41,2.47 2.84,4.26 2.28,4.53 1.73,4.81 1.13,4.95 0.53,5.09 -0.08,5.08 -0.69,5.07 -1.29,4.91 -1.89,4.75 -2.43,4.46 -2.97,4.16 -3.43,3.75 -3.88,3.33 -4.23,2.82 -4.57,2.30 -4.78,1.72 -4.99,1.14 -5.05,0.53 -5.12,-0.08 -5.03,-0.69 -4.95,-1.30 -4.72,-1.87 -4.49,-2.45 -4.13,-2.95 -3.77,-3.45 -3.30,-3.86 -2.84,-4.26 -2.84,-4.26 L -2.84,-4.26 Z"></path></g><g transform="translate(35 34) rotate(0 -6 -5.5)" stroke="none"><path fill="#1971c2" d="M -0.51,5.18 Q -0.51,5.18 -3.61,4.78 -6.70,4.37 -7.71,3.56 -8.72,2.76 -9.35,2.62 -9.97,2.48 -10.55,2.19 -11.12,1.90 -11.61,1.49 -12.10,1.07 -12.48,0.55 -12.86,0.03 -13.10,-0.56 -13.34,-1.15 -13.43,-1.79 -13.52,-2.43 -13.46,-3.07 -13.39,-3.71 -13.18,-4.31 -12.96,-4.92 -12.61,-5.45 -12.25,-5.99 -11.78,-6.43 -11.31,-6.86 -10.75,-7.17 -10.18,-7.48 -9.56,-7.65 -8.94,-7.82 -8.30,-7.83 -7.66,-7.85 -8.25,-10.93 -8.85,-14.01 -7.35,-15.83 -5.86,-17.64 -2.30,-19.22 1.25,-20.80 4.44,-19.85 7.62,-18.90 9.21,-16.44 10.80,-13.99 12.94,-12.10 15.08,-10.20 16.35,-5.07 17.63,0.05 16.10,2.19 14.58,4.33 12.21,5.16 9.84,5.99 6.37,6.20 2.91,6.40 0.63,6.38 -1.64,6.35 -4.89,6.24 -8.14,6.12 -11.28,4.14 -14.42,2.16 -15.86,-1.23 -17.30,-4.63 -16.69,-8.24 -16.09,-11.84 -14.17,-14.03 -12.25,-16.23 -9.50,-17.93 -6.74,-19.63 -3.40,-20.09 -0.05,-20.56 3.65,-19.90 7.37,-19.25 9.26,-17.91 11.15,-16.58 12.67,-14.03 14.18,-11.49 14.58,-9.40 14.99,-7.31 15.16,-4.59 15.34,-1.87 15.27,1.27 15.19,4.43 15.09,6.95 14.99,9.48 13.40,12.41 11.80,15.35 9.01,16.82 6.23,18.29 3.81,18.64 1.40,19.00 -3.40,17.27 -8.21,15.54 -9.42,12.16 -10.63,8.77 -12.53,5.22 -14.42,1.66 -16.60,-1.53 -18.77,-4.74 -18.99,-6.91 -19.22,-9.09 -18.66,-12.58 -18.10,-16.08 -15.20,-18.75 -12.30,-21.43 -9.45,-22.39 -6.60,-23.36 -4.40,-24.71 -2.19,-26.06 1.47,-28.07 5.14,-30.08 8.97,-29.26 12.79,-28.44 14.46,-26.09 16.13,-23.73 16.96,-20.94 17.78,-18.15 18.01,-15.80 18.24,-13.44 18.30,-9.06 18.35,-4.68 17.77,-0.20 17.19,4.27 15.73,6.18 14.27,8.09 13.04,10.59 11.81,13.08 9.78,14.38 7.75,15.68 4.26,16.15 0.76,16.61 -3.61,16.54 -7.99,16.46 -10.58,16.38 -13.17,16.30 -15.87,16.19 -18.57,16.09 -21.50,14.92 -24.42,13.76 -27.43,9.81 -30.45,5.86 -30.70,2.89 -30.95,-0.07 -31.02,-2.34 -31.08,-4.61 -30.15,-8.77 -29.22,-12.92 -26.82,-15.01 -24.43,-17.10 -22.33,-18.32 -20.23,-19.53 -17.77,-20.55 -15.30,-21.56 -11.57,-23.04 -7.83,-24.51 -5.55,-24.76 -3.26,-25.01 0.17,-25.10 3.61,-25.20 6.10,-24.30 8.58,-23.41 10.44,-21.65 12.30,-19.89 13.02,-16.05 13.74,-12.22 11.58,-9.01 9.42,-5.80 6.59,-4.26 3.75,-2.71 0.60,-1.98 -2.53,-1.24 -8.27,-2.30 -14.02,-3.35 -15.63,-5.44 -17.25,-7.52 -17.67,-10.37 -18.09,-13.22 -17.99,-15.51 -17.90,-17.80 -16.42,-20.34 -14.95,-22.88 -12.10,-24.00 -9.25,-25.12 -7.12,-25.27 -4.98,-25.42 -0.13,-23.95 4.70,-22.47 6.17,-20.33 7.63,-18.19 7.89,-14.78 8.15,-11.37 7.26,-8.13 6.37,-4.88 4.55,-2.98 2.72,-1.08 -0.29,-0.13 -3.31,0.82 -6.76,1.51 -10.21,2.20 -15.55,2.35 -20.90,2.50 -21.94,2.34 -22.98,2.19 -23.92,1.71 -24.86,1.23 -25.59,0.48 -26.33,-0.27 -26.78,-1.22 -27.24,-2.17 -27.37,-3.21 -27.50,-4.26 -27.28,-5.29 -27.07,-6.32 -26.54,-7.23 -26.01,-8.14 -25.22,-8.83 -24.43,-9.52 -23.46,-9.92 -22.48,-10.33 -21.43,-10.40 -20.38,-10.47 -19.37,-10.20 -18.35,-9.94 -17.47,-9.36 -16.59,-8.78 -15.94,-7.95 -15.29,-7.12 -14.94,-6.13 -14.59,-5.14 -14.58,-4.09 -14.56,-3.03 -14.88,-2.03 -15.21,-1.03 -15.83,-0.18 -16.46,0.65 -17.32,1.26 -18.18,1.86 -19.19,2.16 -20.20,2.45 -21.25,2.41 -22.30,2.37 -23.29,1.99 -24.27,1.62 -25.08,0.95 -25.89,0.28 -26.45,-0.61 -27.00,-1.50 -27.24,-2.53 -27.49,-3.55 -27.39,-4.60 -27.29,-5.65 -26.86,-6.61 -26.43,-7.57 -25.72,-8.34 -25.00,-9.12 -24.08,-9.62 -23.16,-10.13 -22.12,-10.31 -21.09,-10.50 -21.09,-10.50 -21.09,-10.50 -16.32,-10.57 -11.55,-10.64 -9.44,-10.95 -7.33,-11.26 -4.52,-11.78 -1.70,-12.29 -4.85,-13.00 -8.00,-13.72 -5.29,-13.98 -2.59,-14.24 0.04,-15.62 2.67,-17.01 2.89,-14.86 3.11,-12.70 0.49,-12.60 -2.13,-12.49 -4.38,-12.31 -6.64,-12.13 -10.20,-10.47 -13.75,-8.81 -16.23,-8.00 -18.71,-7.18 -18.61,-4.10 -18.51,-1.02 -18.22,1.43 -17.93,3.90 -15.56,3.79 -13.19,3.68 -10.62,3.59 -8.05,3.50 -5.40,3.37 -2.76,3.25 -0.16,3.52 2.43,3.80 4.60,1.71 6.78,-0.36 6.16,-2.44 5.54,-4.51 5.44,-6.85 5.34,-9.18 5.68,-12.77 6.02,-16.37 3.80,-14.67 1.58,-12.97 -2.43,-12.38 -6.45,-11.79 -6.30,-9.38 -6.15,-6.97 -4.02,-3.35 -1.89,0.25 -2.10,3.36 -2.32,6.46 0.12,5.61 2.57,4.75 2.35,1.95 2.12,-0.84 2.64,-4.05 3.16,-7.26 1.03,-7.22 -1.09,-7.18 -3.66,-6.65 -6.24,-6.13 -3.98,-6.27 -1.73,-6.40 0.45,-6.46 2.65,-6.52 5.05,-6.57 7.46,-6.62 5.76,-5.13 4.06,-3.63 3.13,-6.87 2.20,-10.11 0.59,-8.45 -1.01,-6.79 -2.18,-3.49 -3.35,-0.18 -6.03,1.28 -8.72,2.76 -9.35,2.62 -9.97,2.48 -10.55,2.19 -11.12,1.90 -11.61,1.49 -12.10,1.07 -12.48,0.55 -12.86,0.03 -13.10,-0.56 -13.34,-1.15 -13.43,-1.79 -13.52,-2.43 -13.46,-3.07 -13.39,-3.71 -13.18,-4.31 -12.96,-4.92 -12.61,-5.45 -12.25,-5.99 -11.78,-6.43 -11.31,-6.86 -10.75,-7.17 -10.18,-7.48 -9.56,-7.65 -8.94,-7.82 -8.30,-7.83 -7.66,-7.85 -6.22,-6.68 -4.79,-5.52 -2.13,-5.35 0.51,-5.18 1.13,-5.05 1.74,-4.91 2.30,-4.63 2.87,-4.35 3.35,-3.94 3.82,-3.53 4.19,-3.03 4.56,-2.52 4.80,-1.93 5.03,-1.35 5.12,-0.73 5.21,-0.11 5.15,0.51 5.08,1.14 4.87,1.73 4.66,2.32 4.32,2.85 3.97,3.37 3.51,3.80 3.05,4.22 2.50,4.53 1.95,4.83 1.34,4.99 0.73,5.16 0.10,5.17 -0.51,5.18 -0.51,5.18 L -0.51,5.18 Z"></path></g></svg>