<svg version="1.1" xmlns="http://www.w3.org/2000/svg" viewBox="0 0 421.68988200355506 448.4425895316259" width="421.68988200355506" height="448.4425895316259" filter="invert(93%) hue-rotate(180deg)"><!-- svg-source:excalidraw --><metadata></metadata><defs><style class="style-fonts">
      </style></defs><g stroke-linecap="round"><g transform="translate(391.154842257998 352.9420965197629) rotate(0 -18.207790617028934 -102.2119155092305)"><path d="M-0.18 -0.65 C-6.03 -34.86, -29.41 -170.78, -35.29 -204.69 M-1.74 1.62 C-7.63 -32.45, -29.98 -169.25, -35.64 -203.29" stroke="#1971c2" stroke-width="1" fill="none"></path></g><g transform="translate(391.154842257998 352.9420965197629) rotate(0 -18.207790617028934 -102.2119155092305)"><path d="M-23.39 -181.51 C-28.04 -185.82, -30.87 -192.29, -35.64 -203.29 M-23.39 -181.51 C-27.57 -189.17, -31.8 -196.79, -35.64 -203.29" stroke="#1971c2" stroke-width="1" fill="none"></path></g><g transform="translate(391.154842257998 352.9420965197629) rotate(0 -18.207790617028934 -102.2119155092305)"><path d="M-40.26 -178.72 C-40.15 -183.8, -38.2 -191.06, -35.64 -203.29 M-40.26 -178.72 C-38.93 -187.14, -37.66 -195.67, -35.64 -203.29" stroke="#1971c2" stroke-width="1" fill="none"></path></g></g><mask></mask><g stroke-linecap="round"><g transform="translate(358.5832149252034 332.81648397357606) rotate(0 13.655842962771658 -105.93623631725916)"><path d="M0.98 0.5 C5.27 -34.81, 22.62 -176.49, 26.87 -212.04 M0.04 -0.28 C4.02 -35.39, 20.88 -175.32, 25.7 -210.59" stroke="#1971c2" stroke-width="1" fill="none"></path></g><g transform="translate(358.5832149252034 332.81648397357606) rotate(0 13.655842962771658 -105.93623631725916)"><path d="M31.21 -186.2 C29.88 -196.61, 26.57 -206.99, 25.7 -210.59 M31.21 -186.2 C29.4 -192.54, 28.11 -197.9, 25.7 -210.59" stroke="#1971c2" stroke-width="1" fill="none"></path></g><g transform="translate(358.5832149252034 332.81648397357606) rotate(0 13.655842962771658 -105.93623631725916)"><path d="M14.25 -188.36 C19.68 -198.05, 23.13 -207.56, 25.7 -210.59 M14.25 -188.36 C16.28 -194.26, 18.82 -199.14, 25.7 -210.59" stroke="#1971c2" stroke-width="1" fill="none"></path></g></g><mask></mask><g stroke-linecap="round" transform="translate(359.7185961688473 260.2295661462325) rotate(0 24.00117854062904 2.896693961799997)"><path d="M25.46 -0.49 C30.29 -0.53, 36.44 -0.16, 40.22 0.34 C44.01 0.83, 47.53 1.77, 48.18 2.48 C48.83 3.18, 47.05 3.98, 44.11 4.58 C41.17 5.18, 35.42 5.93, 30.55 6.05 C25.67 6.16, 19.49 5.57, 14.87 5.27 C10.25 4.97, 5.16 4.73, 2.83 4.23 C0.49 3.73, -0.32 2.95, 0.87 2.27 C2.05 1.6, 5.68 0.64, 9.95 0.19 C14.23 -0.26, 23.45 -0.41, 26.53 -0.44 C29.61 -0.46, 28.39 -0.09, 28.45 0.03 M23.35 -0.35 C28.23 -0.59, 35.35 -0.38, 39.5 0.06 C43.64 0.49, 47.29 1.47, 48.23 2.27 C49.16 3.07, 47.61 4.21, 45.1 4.87 C42.6 5.52, 37.87 5.97, 33.2 6.19 C28.53 6.42, 22.14 6.51, 17.08 6.2 C12.02 5.9, 5.52 4.97, 2.84 4.36 C0.16 3.75, 0.07 3.12, 1 2.54 C1.94 1.96, 4.75 1.26, 8.45 0.89 C12.14 0.51, 20.8 0.34, 23.19 0.28 C25.58 0.21, 22.76 0.41, 22.81 0.49" stroke="none" stroke-width="0" fill="#ffec99"></path><path d="M18.18 -0.4 C22.84 -0.51, 29.52 0.04, 34.06 0.37 C38.6 0.71, 43.19 1.09, 45.43 1.59 C47.67 2.1, 48.74 2.78, 47.5 3.39 C46.25 4.01, 42.34 4.95, 37.95 5.28 C33.57 5.61, 26.42 5.4, 21.21 5.38 C16 5.36, 10.18 5.5, 6.7 5.15 C3.21 4.8, 0.65 4, 0.28 3.28 C-0.08 2.57, 1.49 1.44, 4.51 0.85 C7.52 0.26, 15.92 -0.19, 18.4 -0.25 C20.89 -0.32, 19.38 0.41, 19.42 0.46 M19.79 0.43 C24.67 0.4, 32.46 0.71, 37 1.05 C41.55 1.39, 45.56 2.09, 47.07 2.46 C48.59 2.82, 47.98 2.82, 46.08 3.24 C44.19 3.65, 40.2 4.66, 35.69 4.96 C31.18 5.25, 24.04 4.99, 19.02 4.99 C14 5, 8.63 5.27, 5.56 4.98 C2.49 4.69, 0.46 3.87, 0.59 3.26 C0.72 2.65, 3.13 1.82, 6.34 1.31 C9.55 0.8, 17.41 0.33, 19.85 0.18 C22.28 0.03, 20.75 0.4, 20.97 0.41" stroke="#f08c00" stroke-width="1" fill="none"></path></g><g stroke-linecap="round"><g transform="translate(406.8933264038768 263.54007353114696) rotate(0 -28.966939618000538 54.209558427972524)" fill-rule="evenodd"><path d="M-1.96 -0.51 C-1.89 18.05, 9.5 91.78, 0.32 109.5 C-8.87 127.21, -47.23 122.79, -57.09 105.81 C-66.95 88.83, -68.07 24.96, -58.82 7.6 C-49.58 -9.75, -11.69 3.32, -1.62 1.68" stroke="none" stroke-width="0" fill="#ffec99" fill-rule="evenodd"></path><path d="M-1.19 -0.8 C-1.54 17.49, 8 90.96, -1.66 108.6 C-11.31 126.24, -49.91 121.92, -59.12 105.02 C-68.33 88.11, -66.71 24.52, -56.9 7.18 C-47.1 -10.16, -9.64 1.97, -0.28 0.96 M0.38 1.4 C0.38 20.01, 10.16 92.82, 0.62 110.23 C-8.92 127.64, -47.32 122.94, -56.85 105.85 C-66.37 88.77, -66.32 25.65, -56.55 7.71 C-46.78 -10.24, -7.71 -0.63, 1.77 -1.81" stroke="#f08c00" stroke-width="1" fill="none"></path></g></g><mask></mask><g stroke-linecap="round" transform="translate(143.6944152356503 304.9397394385047) rotate(0 24.001178540629056 2.896693961799997)"><path d="M21.31 0.33 C26.06 0.26, 33.15 0.17, 37.5 0.5 C41.85 0.82, 46.06 1.7, 47.41 2.29 C48.75 2.89, 47.71 3.51, 45.59 4.06 C43.47 4.6, 39.2 5.27, 34.68 5.56 C30.17 5.84, 23.54 5.86, 18.5 5.77 C13.47 5.68, 7.48 5.59, 4.49 5.01 C1.5 4.44, 0.14 2.98, 0.55 2.31 C0.97 1.64, 3.31 1.45, 7 1 C10.7 0.55, 20.15 -0.21, 22.74 -0.4 C25.33 -0.58, 22.57 -0.23, 22.56 -0.11 M20.78 0.51 C25.69 0.38, 32.17 -0.11, 36.39 0.21 C40.6 0.53, 44.48 1.81, 46.07 2.41 C47.66 3, 47.72 3.2, 45.95 3.79 C44.18 4.38, 39.78 5.6, 35.45 5.95 C31.12 6.3, 24.87 6.01, 19.96 5.9 C15.05 5.8, 9.26 5.94, 6 5.34 C2.74 4.74, 0.37 2.96, 0.41 2.3 C0.46 1.64, 3.02 1.68, 6.26 1.35 C9.5 1.02, 17.66 0.56, 19.88 0.31 C22.1 0.07, 19.38 0.02, 19.6 -0.09" stroke="none" stroke-width="0" fill="#ffec99"></path><path d="M23.34 -0.05 C28.31 -0.09, 35.45 0.09, 39.56 0.45 C43.68 0.82, 47.21 1.5, 48.04 2.15 C48.88 2.79, 47.2 3.75, 44.56 4.32 C41.93 4.89, 36.93 5.36, 32.24 5.57 C27.54 5.77, 21.13 5.8, 16.36 5.56 C11.6 5.32, 6.37 4.62, 3.64 4.13 C0.91 3.65, -0.86 3.24, -0.03 2.64 C0.8 2.03, 4.45 0.92, 8.62 0.49 C12.8 0.06, 22.19 0.22, 25.03 0.07 C27.88 -0.08, 25.74 -0.42, 25.69 -0.41 M28.29 -0.7 C33.27 -0.77, 39.05 -0.3, 42.3 0.26 C45.55 0.82, 47.79 1.88, 47.79 2.68 C47.79 3.48, 45.58 4.62, 42.31 5.03 C39.05 5.44, 33.15 5.02, 28.22 5.14 C23.3 5.25, 17.3 5.91, 12.75 5.72 C8.21 5.53, 2.93 4.74, 0.95 4.01 C-1.04 3.27, -0.85 1.8, 0.84 1.31 C2.53 0.82, 6.54 1.27, 11.08 1.06 C15.62 0.85, 25.47 0.13, 28.1 0.03 C30.72 -0.07, 26.9 0.38, 26.83 0.48" stroke="#f08c00" stroke-width="1" fill="none"></path></g><g stroke-linecap="round"><g transform="translate(190.86914547067983 308.25024682341893) rotate(0 -28.966939618000538 54.209558427972524)" fill-rule="evenodd"><path d="M1.74 1.68 C1.31 19.48, 9.56 88.91, -0.24 106.59 C-10.04 124.26, -47.82 123.82, -57.06 107.74 C-66.3 91.67, -65.18 28.06, -55.65 10.12 C-46.12 -7.83, -8.85 1.71, 0.12 0.07" stroke="none" stroke-width="0" fill="#ffec99" fill-rule="evenodd"></path><path d="M-0.95 -0.96 C-1.46 17.23, 7.55 91.25, -2 109.15 C-11.56 127.04, -48.99 123.1, -58.28 106.41 C-67.57 89.71, -67.29 26.56, -57.75 8.98 C-48.2 -8.61, -10.47 2.26, -1.04 0.89 M0.76 1.15 C0.49 18.99, 10.09 90.22, 0.09 107.41 C-9.91 124.6, -49.58 121.08, -59.23 104.31 C-68.88 87.54, -67.81 23.88, -57.83 6.79 C-47.86 -10.31, -8.98 2.86, 0.61 1.75" stroke="#f08c00" stroke-width="1" fill="none"></path></g></g><mask></mask><g stroke-linecap="round"><g transform="translate(192.95284212268888 11.083775949515598) rotate(0 -91 205)"><path d="M-0.49 -0.57 C-13.11 34.8, -44.99 144.04, -75.4 212.29 C-105.81 280.54, -165.28 376.16, -182.95 408.96 M1.45 1.75 C-11.38 37.25, -46.22 145.46, -76.55 213.45 C-106.89 281.45, -163.17 377.02, -180.56 409.73" stroke="#868e96" stroke-width="2" fill="none"></path></g></g><mask></mask><g stroke-linecap="round"><g transform="translate(200.7032501470111 10.502842272724934) rotate(0 95.25590125852943 187.5)"><path d="M0.85 0.36 C13.89 33.12, 47.93 133.54, 79.41 196 C110.88 258.45, 171.18 345.09, 189.69 375.07 M-0.17 -0.5 C12.69 32.01, 46.87 131.67, 78.93 194.49 C110.98 257.31, 173.52 346.55, 192.15 376.42" stroke="#868e96" stroke-width="2" fill="none"></path></g></g><mask></mask><g stroke-linecap="round"><g transform="translate(190.96070046000426 19.123226978424896) rotate(0 -21.087670721467134 205.50610066642332)"><path d="M-1 -0.27 C-3.53 44.42, -9.29 200.48, -16.08 268.96 C-22.88 337.45, -37.45 386.82, -41.76 410.65 M0.68 -1.46 C-1.41 42.84, -6.68 198.46, -13.84 267.33 C-21 336.2, -37.69 388.02, -42.3 411.77" stroke="#868e96" stroke-width="2" fill="none"></path></g></g><mask></mask><g stroke-linecap="round"><g transform="translate(196.76392169358172 14.92624590689968) rotate(0 73.85328898744424 192.0061005428463)"><path d="M-1.04 0.86 C8.45 42.72, 32.55 186.76, 57.44 250.48 C82.33 314.2, 133.13 361.13, 148.32 383.2 M0.61 0.27 C9.93 41.84, 32.15 184.78, 56.7 248.75 C81.24 312.72, 132.44 361.65, 147.88 384.09" stroke="#868e96" stroke-width="2" fill="none"></path></g></g><mask></mask><g transform="translate(186.6564273938887 40.155107518087675) rotate(0 -87.75325085906587 199.14374100676912)" stroke="none"><path d="M0.69 -1.19 C0.18 4.52, -2.56 22.11, -2.67 33.28 C-2.79 44.45, -0.17 59.47, -0.02 65.82 C0.13 72.17, -1.08 65.03, -1.77 71.4 C-2.46 77.76, -3.39 93.63, -4.18 104.01 C-4.96 114.39, -5.57 118.82, -6.51 133.67 C-7.45 148.51, -9.12 176.12, -9.81 193.1 C-10.49 210.07, -10.32 226.67, -10.63 235.5 C-10.94 244.33, -10.54 240.69, -11.68 246.08 C-12.83 251.47, -15.87 260.96, -17.51 267.85 C-19.14 274.74, -20.31 281.7, -21.5 287.43 C-22.68 293.16, -21.28 291.65, -24.61 302.22 C-27.93 312.79, -36.68 337.24, -41.46 350.83 C-46.23 364.42, -50.1 377.62, -53.28 383.77 C-56.46 389.91, -56.72 385.72, -60.55 387.68 C-64.38 389.64, -71.84 394.38, -76.26 395.53 C-80.68 396.68, -82.78 394.4, -87.06 394.58 C-91.33 394.76, -92.12 396.41, -101.9 396.63 C-111.69 396.85, -137.48 396.51, -145.77 395.9 C-154.06 395.3, -147.02 393.86, -151.65 392.99 C-156.28 392.11, -169.93 391.26, -173.55 390.65 C-177.18 390.04, -174.19 390.06, -173.42 389.32 C-172.65 388.58, -170.02 387.62, -168.95 386.2 C-167.87 384.77, -170.03 387.12, -166.96 380.78 C-163.9 374.44, -156.1 359.14, -150.53 348.16 C-144.96 337.18, -137.53 323.44, -133.55 314.91 C-129.57 306.37, -135.83 312.15, -126.65 296.95 C-117.46 281.75, -88.7 239.32, -78.42 223.69 C-68.14 208.07, -69.76 213.1, -64.97 203.22 C-60.18 193.33, -53.87 175.29, -49.7 164.38 C-45.53 153.47, -42.45 145.64, -39.94 137.73 C-37.43 129.83, -36.6 124.6, -34.65 116.93 C-32.71 109.26, -31.12 104.01, -28.27 91.7 C-25.43 79.39, -20.73 54.6, -17.59 43.06 C-14.45 31.52, -12.01 28.32, -9.44 22.48 C-6.86 16.64, -3.42 12.06, -2.14 8.05 C-0.86 4.03, -2.42 -0.2, -1.78 -1.61" stroke="none" stroke-width="0" fill="#1e1e1e" fill-rule="evenodd"></path><path fill="#1e1e1e" d="M 2.62,0 Q 2.62,0 2.63,1.18 2.65,2.37 2.72,3.51 2.80,4.64 2.89,6.44 2.99,8.25 3.05,9.83 3.12,11.41 2.93,13.48 2.75,15.55 2.42,17.95 2.10,20.36 1.99,21.63 1.87,22.90 1.76,24.47 1.65,26.03 1.28,28.32 0.91,30.60 0.69,32.67 0.47,34.74 0.33,37.15 0.19,39.56 0.09,42.12 0.00,44.67 -0.06,47.12 -0.13,49.56 -0.17,52.13 -0.22,54.70 -0.25,56.98 -0.28,59.26 -0.27,61.25 -0.27,63.24 -0.64,65.72 -1.01,68.19 -1.15,70.17 -1.28,72.15 -1.36,74.34 -1.44,76.53 -1.65,79.53 -1.86,82.54 -1.96,85.15 -2.05,87.75 -2.09,90.38 -2.14,93.02 -2.33,95.87 -2.52,98.73 -2.60,101.60 -2.68,104.48 -2.72,107.74 -2.75,111.00 -2.77,113.91 -2.79,116.83 -2.79,119.93 -2.80,123.04 -2.80,126.40 -2.81,129.76 -2.98,133.09 -3.15,136.42 -3.57,139.74 -3.99,143.06 -4.33,146.80 -4.67,150.55 -4.99,154.02 -5.31,157.49 -5.44,160.46 -5.57,163.44 -5.98,166.47 -6.38,169.50 -6.54,172.25 -6.71,175.00 -6.95,177.73 -7.19,180.47 -7.17,181.79 -7.16,183.12 -7.11,184.50 -7.06,185.88 -7.30,188.05 -7.55,190.22 -7.59,191.95 -7.63,193.67 -7.58,194.91 -7.52,196.15 -7.46,197.35 -7.39,198.55 -7.53,200.04 -7.67,201.53 -7.73,203.04 -7.78,204.56 -7.78,205.89 -7.77,207.22 -7.59,208.50 -7.42,209.78 -7.31,211.13 -7.21,212.48 -7.13,213.56 -7.05,214.65 -6.94,216.55 -6.84,218.45 -6.76,220.25 -6.69,222.05 -6.66,224.16 -6.64,226.28 -6.82,227.68 -7.01,229.07 -7.09,230.31 -7.17,231.55 -7.41,233.09 -7.65,234.64 -7.92,236.00 -8.19,237.36 -8.48,238.62 -8.76,239.89 -9.51,241.50 -10.25,243.10 -10.46,244.37 -10.68,245.65 -11.20,247.32 -11.72,248.99 -11.86,250.15 -12.01,251.31 -12.27,252.76 -12.53,254.21 -12.82,255.68 -13.11,257.14 -13.38,258.35 -13.65,259.56 -13.92,260.72 -14.19,261.88 -14.74,263.69 -15.29,265.51 -15.57,267.61 -15.86,269.72 -16.35,271.04 -16.84,272.36 -17.42,274.55 -18.00,276.73 -18.36,278.15 -18.73,279.56 -19.28,281.06 -19.84,282.56 -20.19,283.63 -20.54,284.70 -20.85,286.61 -21.17,288.53 -21.22,289.96 -21.28,291.40 -21.48,292.50 -21.68,293.60 -21.95,295.73 -22.22,297.86 -22.51,299.21 -22.80,300.55 -23.57,302.35 -24.33,304.15 -24.99,305.66 -25.65,307.16 -26.06,308.53 -26.48,309.90 -26.81,311.07 -27.15,312.25 -27.67,313.54 -28.19,314.83 -28.52,315.91 -28.84,316.98 -29.38,318.28 -29.92,319.57 -30.25,320.64 -30.58,321.72 -31.12,323.01 -31.66,324.30 -32.00,325.49 -32.35,326.68 -32.68,328.05 -33.02,329.41 -33.79,331.19 -34.57,332.98 -35.29,334.88 -36.01,336.78 -36.91,338.87 -37.81,340.96 -38.29,342.61 -38.77,344.27 -39.32,345.90 -39.87,347.54 -40.43,348.97 -40.99,350.40 -41.33,352.37 -41.68,354.34 -41.95,355.89 -42.23,357.43 -42.67,359.30 -43.12,361.16 -43.39,362.57 -43.67,363.98 -44.16,365.61 -44.66,367.24 -45.00,368.72 -45.33,370.20 -45.83,372.17 -46.33,374.15 -46.94,375.73 -47.55,377.32 -48.11,379.05 -48.67,380.79 -49.06,382.77 -49.44,384.74 -50.69,385.86 -51.93,386.98 -53.77,387.92 -55.62,388.87 -57.08,389.48 -58.54,390.09 -59.57,390.51 -60.60,390.93 -63.06,391.53 -65.52,392.13 -67.67,392.76 -69.82,393.40 -71.61,394.01 -73.39,394.63 -75.09,395.11 -76.79,395.59 -78.26,396.11 -79.73,396.62 -81.31,397.05 -82.89,397.48 -85.14,398.00 -87.38,398.51 -89.19,398.73 -90.99,398.95 -92.50,399.10 -94.01,399.24 -95.58,399.43 -97.15,399.63 -99.31,399.62 -101.46,399.62 -103.48,399.74 -105.49,399.86 -107.26,399.96 -109.03,400.07 -110.64,400.14 -112.25,400.21 -113.61,400.28 -114.98,400.36 -116.58,400.38 -118.18,400.40 -119.88,400.39 -121.58,400.39 -123.32,400.37 -125.06,400.36 -126.99,400.31 -128.92,400.26 -130.93,400.20 -132.94,400.14 -134.90,399.95 -136.85,399.77 -138.13,399.77 -139.41,399.78 -141.06,399.88 -142.72,399.98 -144.79,399.92 -146.87,399.87 -148.73,399.37 -150.59,398.87 -152.15,398.33 -153.72,397.80 -154.99,397.56 -156.26,397.32 -157.35,397.07 -158.44,396.81 -161.02,396.44 -163.60,396.06 -165.28,395.72 -166.95,395.38 -168.66,394.85 -170.36,394.32 -172.32,393.90 -174.28,393.49 -175.75,392.59 -177.23,391.70 -177.44,390.10 -177.65,388.50 -176.34,387.06 -175.02,385.63 -173.19,384.85 -171.35,384.07 -170.08,383.45 -168.81,382.84 -168.02,381.49 -167.23,380.13 -166.65,378.93 -166.08,377.73 -165.21,376.26 -164.34,374.79 -163.22,372.67 -162.10,370.56 -160.84,368.25 -159.59,365.94 -158.97,364.48 -158.34,363.02 -157.28,360.88 -156.23,358.75 -154.52,355.76 -152.82,352.77 -151.28,349.08 -149.74,345.39 -148.20,341.74 -146.65,338.10 -145.31,334.70 -143.97,331.30 -142.54,327.65 -141.11,324.00 -139.81,320.90 -138.51,317.80 -136.74,314.40 -134.97,311.01 -132.70,306.53 -130.43,302.06 -127.23,296.56 -124.04,291.06 -120.47,285.32 -116.89,279.58 -112.99,273.73 -109.08,267.88 -105.40,262.19 -101.71,256.49 -97.93,250.67 -94.15,244.85 -90.50,239.15 -86.86,233.45 -83.46,227.49 -80.06,221.52 -76.39,215.40 -72.72,209.27 -69.99,204.32 -67.25,199.36 -64.91,194.56 -62.57,189.75 -60.21,184.98 -57.85,180.20 -55.66,175.63 -53.47,171.06 -51.88,166.96 -50.29,162.85 -48.92,159.22 -47.56,155.59 -46.64,153.19 -45.72,150.80 -44.99,148.77 -44.27,146.75 -43.63,144.72 -42.98,142.69 -42.18,140.59 -41.39,138.49 -40.91,136.50 -40.43,134.51 -39.92,132.72 -39.42,130.93 -38.83,128.87 -38.25,126.81 -37.66,124.26 -37.07,121.70 -36.28,119.51 -35.49,117.31 -35.02,115.14 -34.54,112.96 -33.98,110.79 -33.42,108.62 -32.91,106.94 -32.39,105.25 -31.86,103.55 -31.32,101.85 -30.98,100.32 -30.64,98.79 -30.37,97.56 -30.10,96.34 -29.86,95.29 -29.62,94.24 -29.19,92.01 -28.77,89.79 -28.47,88.48 -28.17,87.17 -27.87,85.76 -27.57,84.35 -27.29,83.03 -27.00,81.72 -26.73,79.79 -26.45,77.87 -26.17,76.10 -25.90,74.34 -25.68,73.15 -25.47,71.96 -25.20,70.78 -24.94,69.60 -24.65,68.30 -24.36,67.00 -24.05,64.80 -23.74,62.60 -23.20,60.52 -22.67,58.44 -22.37,57.36 -22.08,56.27 -21.77,54.22 -21.46,52.16 -21.17,50.21 -20.87,48.26 -20.62,46.79 -20.36,45.32 -20.05,43.64 -19.73,41.97 -19.17,40.31 -18.62,38.66 -18.36,37.34 -18.11,36.02 -17.45,34.38 -16.80,32.74 -16.58,31.65 -16.37,30.55 -15.81,29.13 -15.25,27.70 -14.69,26.23 -14.14,24.77 -13.73,23.53 -13.32,22.29 -12.48,21.07 -11.63,19.84 -11.12,18.82 -10.61,17.81 -9.96,16.30 -9.32,14.80 -8.59,13.86 -7.86,12.91 -7.37,11.61 -6.89,10.31 -6.22,9.24 -5.55,8.17 -5.24,6.88 -4.93,5.59 -4.39,3.32 -3.85,1.06 -3.66,0.51 -3.46,-0.03 -3.10,-0.50 -2.75,-0.96 -2.26,-1.28 -1.77,-1.60 -1.21,-1.75 -0.64,-1.90 -0.06,-1.86 0.52,-1.82 1.06,-1.60 1.60,-1.38 2.04,-0.99 2.48,-0.61 2.77,-0.10 3.07,0.39 3.19,0.96 3.31,1.53 3.24,2.11 3.17,2.69 2.91,3.22 2.66,3.75 2.25,4.17 1.85,4.59 1.33,4.86 0.81,5.12 0.23,5.21 -0.34,5.30 -0.91,5.20 -1.49,5.09 -2.00,4.81 -2.51,4.53 -2.91,4.11 -3.31,3.68 -3.55,3.14 -3.78,2.61 -3.84,2.03 -3.90,1.45 -3.76,0.88 -3.63,0.31 -3.32,-0.18 -3.02,-0.68 -2.57,-1.05 -2.12,-1.42 -1.57,-1.63 -1.03,-1.84 -0.44,-1.87 0.13,-1.89 0.69,-1.73 1.25,-1.56 1.73,-1.23 2.21,-0.90 2.56,-0.43 2.91,0.03 3.09,0.59 3.27,1.15 3.26,1.73 3.25,2.31 3.25,2.31 3.25,2.31 2.85,4.24 2.45,6.17 1.86,7.22 1.28,8.27 1.13,9.34 0.97,10.40 0.34,11.63 -0.27,12.85 -0.84,13.96 -1.42,15.08 -2.30,16.54 -3.19,18.00 -3.85,19.73 -4.50,21.45 -5.36,22.87 -6.22,24.29 -6.84,25.30 -7.45,26.32 -7.90,27.48 -8.35,28.65 -8.81,29.79 -9.27,30.93 -9.73,32.11 -10.19,33.30 -10.69,34.53 -11.18,35.76 -11.79,37.29 -12.41,38.82 -13.04,40.73 -13.68,42.65 -13.84,43.95 -14.00,45.26 -14.45,46.67 -14.89,48.07 -15.24,49.46 -15.58,50.85 -15.70,52.01 -15.82,53.16 -16.02,54.35 -16.22,55.54 -16.69,57.64 -17.16,59.74 -17.46,61.04 -17.77,62.35 -18.23,64.03 -18.69,65.71 -18.85,66.92 -19.01,68.12 -19.28,69.48 -19.55,70.85 -20.03,72.92 -20.52,74.98 -20.69,76.10 -20.87,77.21 -21.41,78.83 -21.95,80.46 -22.14,81.64 -22.34,82.82 -22.66,84.08 -22.99,85.35 -23.31,86.81 -23.64,88.28 -24.02,89.72 -24.40,91.17 -24.79,92.24 -25.19,93.30 -25.82,95.35 -26.46,97.41 -26.89,98.54 -27.32,99.67 -27.81,101.28 -28.31,102.89 -28.94,104.58 -29.57,106.27 -30.20,107.78 -30.83,109.28 -31.37,111.41 -31.91,113.54 -32.41,115.88 -32.92,118.23 -33.65,120.27 -34.38,122.31 -34.96,124.94 -35.53,127.56 -36.10,129.69 -36.67,131.81 -37.27,133.48 -37.87,135.14 -38.40,137.28 -38.93,139.42 -39.70,141.45 -40.48,143.48 -41.14,145.56 -41.79,147.64 -42.53,149.69 -43.27,151.74 -44.18,154.13 -45.10,156.52 -46.47,160.16 -47.84,163.80 -49.47,168.00 -51.10,172.20 -53.29,176.78 -55.49,181.37 -57.85,186.14 -60.21,190.91 -62.58,195.77 -64.95,200.63 -67.70,205.63 -70.46,210.63 -74.11,216.73 -77.77,222.83 -81.20,228.85 -84.64,234.87 -88.28,240.58 -91.93,246.29 -95.70,252.11 -99.48,257.93 -103.17,263.65 -106.87,269.36 -110.74,275.18 -114.62,280.99 -118.16,286.70 -121.70,292.41 -124.85,297.85 -128.00,303.29 -130.26,307.78 -132.52,312.27 -134.21,315.58 -135.91,318.88 -137.16,321.96 -138.42,325.03 -139.81,328.70 -141.19,332.37 -142.48,335.82 -143.78,339.28 -145.23,342.94 -146.68,346.61 -148.20,350.53 -149.71,354.45 -151.19,357.38 -152.68,360.31 -153.52,362.51 -154.37,364.71 -155.02,366.25 -155.68,367.79 -156.63,370.16 -157.59,372.52 -158.46,374.99 -159.34,377.47 -159.97,378.80 -160.61,380.13 -161.17,381.53 -161.73,382.93 -162.50,384.36 -163.27,385.78 -164.36,386.85 -165.44,387.92 -166.53,388.55 -167.61,389.18 -169.28,389.70 -170.95,390.22 -172.00,390.65 -173.05,391.07 -172.31,389.99 -171.57,388.91 -170.26,389.16 -168.94,389.40 -167.53,389.77 -166.12,390.14 -164.47,390.32 -162.81,390.51 -161.35,390.66 -159.89,390.81 -158.53,390.95 -157.16,391.08 -155.90,391.36 -154.63,391.63 -153.07,392.08 -151.52,392.54 -150.09,393.16 -148.65,393.78 -147.28,394.31 -145.92,394.83 -144.71,395.08 -143.51,395.33 -142.44,395.47 -141.37,395.60 -140.28,395.71 -139.19,395.82 -137.85,395.97 -136.52,396.12 -134.73,396.27 -132.94,396.42 -130.93,396.36 -128.92,396.31 -126.99,396.25 -125.06,396.20 -123.33,396.19 -121.59,396.17 -119.89,396.16 -118.20,396.15 -116.61,396.16 -115.03,396.16 -113.68,396.20 -112.34,396.24 -110.79,396.24 -109.23,396.23 -107.55,396.16 -105.87,396.09 -103.76,395.79 -101.65,395.49 -99.71,395.30 -97.76,395.11 -96.07,394.86 -94.39,394.62 -93.04,394.53 -91.69,394.44 -89.95,394.12 -88.22,393.80 -86.13,393.49 -84.04,393.18 -82.62,392.81 -81.20,392.45 -79.61,391.89 -78.03,391.33 -76.53,390.88 -75.04,390.43 -73.30,389.66 -71.57,388.89 -69.43,387.87 -67.30,386.85 -65.28,385.94 -63.26,385.02 -60.77,383.87 -58.29,382.72 -56.73,381.78 -55.18,380.85 -54.92,379.70 -54.67,378.56 -54.24,377.25 -53.81,375.95 -53.24,374.80 -52.66,373.64 -52.15,372.22 -51.65,370.79 -51.25,369.19 -50.86,367.59 -50.24,365.65 -49.63,363.70 -49.14,362.52 -48.66,361.34 -48.18,359.66 -47.70,357.98 -47.25,356.41 -46.80,354.84 -46.15,353.06 -45.50,351.29 -45.13,350.05 -44.77,348.80 -44.17,347.53 -43.58,346.25 -43.03,344.72 -42.48,343.20 -41.96,341.40 -41.44,339.60 -40.80,337.57 -40.16,335.54 -39.65,333.34 -39.14,331.15 -38.61,329.68 -38.08,328.22 -37.75,326.73 -37.42,325.24 -37.00,323.73 -36.57,322.22 -36.11,321.15 -35.64,320.08 -35.21,318.79 -34.78,317.51 -34.31,316.44 -33.85,315.37 -33.42,314.10 -32.99,312.82 -32.53,311.78 -32.08,310.74 -31.71,309.62 -31.35,308.51 -30.91,306.88 -30.47,305.26 -29.92,303.72 -29.37,302.18 -28.91,300.81 -28.44,299.44 -28.03,297.15 -27.62,294.87 -27.51,293.62 -27.39,292.38 -27.14,290.78 -26.88,289.19 -26.49,287.25 -26.10,285.31 -25.85,284.12 -25.61,282.94 -25.21,281.85 -24.81,280.76 -24.38,279.57 -23.96,278.39 -23.63,276.69 -23.30,274.98 -22.95,273.89 -22.59,272.80 -22.32,271.58 -22.04,270.35 -21.45,268.57 -20.86,266.79 -20.66,265.28 -20.47,263.77 -19.84,262.19 -19.21,260.61 -18.89,259.46 -18.58,258.30 -18.28,257.26 -17.98,256.21 -17.71,254.78 -17.45,253.34 -17.20,251.96 -16.96,250.59 -16.72,249.09 -16.48,247.59 -16.09,246.20 -15.70,244.81 -15.39,242.88 -15.07,240.95 -14.55,239.81 -14.04,238.67 -13.77,237.49 -13.50,236.30 -13.26,235.09 -13.02,233.88 -12.86,232.57 -12.70,231.25 -12.48,228.77 -12.26,226.28 -12.27,225.05 -12.27,223.83 -12.21,222.05 -12.15,220.27 -12.08,218.47 -12.00,216.66 -11.95,214.69 -11.89,212.72 -11.92,211.50 -11.94,210.28 -12.08,208.70 -12.22,207.13 -12.15,205.74 -12.08,204.36 -11.99,202.67 -11.89,200.99 -11.68,199.74 -11.46,198.50 -11.37,197.28 -11.28,196.05 -11.15,194.78 -11.03,193.51 -10.91,191.73 -10.79,189.94 -10.66,187.85 -10.53,185.77 -10.40,184.32 -10.26,182.88 -10.03,181.56 -9.81,180.23 -9.57,177.54 -9.33,174.84 -9.16,172.00 -8.98,169.16 -8.59,166.24 -8.20,163.32 -8.06,160.29 -7.93,157.25 -7.61,153.78 -7.30,150.31 -6.95,146.52 -6.60,142.73 -6.19,139.51 -5.79,136.29 -5.62,133.02 -5.45,129.76 -5.45,126.40 -5.44,123.04 -5.44,119.93 -5.43,116.81 -5.42,113.89 -5.41,110.97 -5.38,107.69 -5.35,104.40 -5.27,101.48 -5.20,98.56 -5.02,95.77 -4.84,92.98 -4.81,90.32 -4.78,87.66 -4.71,85.01 -4.64,82.36 -4.46,79.40 -4.28,76.45 -4.23,74.19 -4.19,71.94 -4.04,69.86 -3.88,67.78 -3.58,65.51 -3.27,63.24 -3.26,61.25 -3.25,59.26 -3.28,56.98 -3.31,54.70 -3.35,52.13 -3.39,49.55 -3.45,47.10 -3.50,44.65 -3.57,42.08 -3.63,39.51 -3.71,37.05 -3.78,34.58 -3.84,32.39 -3.90,30.20 -3.91,28.05 -3.91,25.90 -3.95,24.23 -3.98,22.55 -3.93,21.00 -3.87,19.45 -3.72,18.26 -3.58,17.06 -3.50,15.79 -3.43,14.52 -3.27,12.96 -3.12,11.41 -3.05,9.83 -2.99,8.25 -2.89,6.44 -2.80,4.64 -2.72,3.51 -2.65,2.37 -2.63,1.18 -2.62,0 -2.58,-0.31 -2.54,-0.62 -2.43,-0.92 -2.32,-1.21 -2.14,-1.47 -1.96,-1.73 -1.72,-1.94 -1.48,-2.15 -1.20,-2.30 -0.92,-2.45 -0.62,-2.52 -0.31,-2.60 0.00,-2.60 0.31,-2.60 0.62,-2.52 0.93,-2.45 1.21,-2.30 1.49,-2.15 1.72,-1.94 1.96,-1.73 2.14,-1.47 2.32,-1.21 2.43,-0.92 2.54,-0.62 2.58,-0.31 2.62,0.00 2.62,0.00 L 2.62,0 Z"></path></g><g transform="translate(207.40850929261535 21.801498308809073) rotate(0 91.29883675236152 182.30220801361503)" stroke="none"><path d="M-1.37 2.07 C-1.38 4.59, 0.01 12.93, -0.2 15.44 C-0.41 17.94, -2.3 14.9, -2.63 17.11 C-2.96 19.32, -2.61 23.1, -2.17 28.7 C-1.73 34.29, -1.61 43.84, 0.01 50.68 C1.64 57.52, 4.93 63.42, 7.58 69.72 C10.23 76.02, 13.53 79.59, 15.92 88.48 C18.3 97.37, 16.04 106.88, 21.89 123.06 C27.73 139.24, 45.19 170.49, 50.97 185.56 C56.76 200.63, 55.04 207.21, 56.6 213.47 C58.16 219.74, 58.08 218.1, 60.33 223.17 C62.59 228.23, 67.92 239.11, 70.11 243.85 C72.29 248.58, 70.06 244.01, 73.44 251.59 C76.83 259.16, 84.34 276.36, 90.41 289.3 C96.48 302.24, 105.12 321.51, 109.87 329.21 C114.61 336.9, 116.85 333.36, 118.87 335.49 C120.88 337.62, 120.91 339.84, 121.97 342.01 C123.03 344.18, 123.25 346.86, 125.22 348.51 C127.19 350.15, 130.5 349.01, 133.79 351.88 C137.07 354.75, 142.39 363.64, 144.94 365.72 C147.49 367.81, 147.72 363.69, 149.09 364.39 C150.47 365.08, 147.06 369.97, 153.17 369.9 C159.28 369.83, 180.97 365.58, 185.76 363.96 C190.55 362.35, 183.52 362.79, 181.9 360.22 C180.29 357.65, 178.55 352.62, 176.06 348.53 C173.56 344.45, 169.2 339.73, 166.95 335.7 C164.7 331.67, 163.41 326.29, 162.58 324.37 C161.76 322.44, 163.01 326.06, 162 324.17 C160.99 322.27, 159.19 316.89, 156.54 312.98 C153.89 309.07, 148.82 305.15, 146.07 300.72 C143.33 296.29, 143.97 296.11, 140.08 286.41 C136.19 276.7, 135.42 265.48, 122.72 242.5 C110.02 219.52, 77.65 172.85, 63.88 148.54 C50.1 124.22, 45.55 111.22, 40.06 96.62 C34.58 82.01, 33.11 69.06, 30.96 60.88 C28.82 52.71, 29.27 55.46, 27.17 47.59 C25.07 39.72, 22.69 22.2, 18.35 13.66 C14 5.11, 4.02 -0.56, 1.1 -3.69" stroke="none" stroke-width="0" fill="#1e1e1e" fill-rule="evenodd"></path><path fill="#1e1e1e" d="M 2.17,0 Q 2.17,0 2.21,1.35 2.25,2.71 2.30,3.80 2.35,4.89 2.38,6.20 2.41,7.51 2.36,9.26 2.31,11.01 1.83,13.43 1.35,15.85 1.11,17.92 0.88,19.98 0.90,21.06 0.93,22.14 1.10,23.46 1.28,24.79 1.37,26.32 1.47,27.86 1.68,29.24 1.89,30.61 2.00,32.17 2.11,33.73 2.32,35.12 2.53,36.50 2.73,38.32 2.94,40.14 3.03,42.02 3.11,43.90 3.22,45.99 3.33,48.07 3.82,50.02 4.32,51.97 4.77,53.74 5.23,55.51 5.69,57.62 6.14,59.73 6.66,61.80 7.17,63.88 7.78,65.35 8.40,66.83 9.03,68.31 9.66,69.80 10.38,71.62 11.11,73.45 11.80,74.86 12.50,76.27 13.14,78.16 13.78,80.06 14.48,82.19 15.19,84.33 15.83,86.65 16.47,88.98 16.92,91.01 17.38,93.04 17.95,94.46 18.53,95.87 19.01,97.01 19.50,98.14 19.79,99.27 20.08,100.40 20.79,102.66 21.50,104.91 22.08,107.10 22.66,109.28 22.95,110.68 23.25,112.08 23.65,113.62 24.05,115.15 24.42,116.73 24.79,118.32 25.23,119.94 25.66,121.57 26.26,123.42 26.87,125.28 27.50,126.49 28.14,127.70 28.79,129.15 29.44,130.59 30.05,132.28 30.65,133.96 31.23,135.69 31.80,137.43 32.39,138.98 32.97,140.53 33.57,142.04 34.16,143.54 34.75,145.24 35.33,146.94 36.04,148.39 36.75,149.85 37.44,151.39 38.13,152.94 38.88,154.58 39.63,156.23 40.33,157.81 41.03,159.40 41.60,161.55 42.18,163.70 43.04,166.05 43.90,168.39 44.61,170.66 45.32,172.92 46.09,174.83 46.86,176.75 47.69,178.78 48.52,180.81 49.27,182.51 50.02,184.21 50.69,185.97 51.37,187.74 51.98,189.70 52.59,191.67 53.32,194.03 54.06,196.38 54.59,198.26 55.12,200.14 55.66,202.11 56.19,204.08 56.90,206.25 57.60,208.42 58.09,210.62 58.57,212.82 59.10,214.89 59.63,216.97 60.03,219.27 60.43,221.57 61.09,223.63 61.74,225.69 62.55,227.16 63.37,228.62 64.13,230.15 64.88,231.68 65.57,233.17 66.26,234.66 66.79,235.80 67.33,236.94 67.89,238.03 68.46,239.12 69.07,240.47 69.67,241.83 70.38,242.93 71.09,244.03 71.91,245.41 72.74,246.79 73.37,248.19 74.00,249.59 74.57,250.98 75.15,252.37 75.73,253.58 76.31,254.80 77.10,256.73 77.90,258.66 78.61,260.57 79.31,262.49 80.37,264.76 81.42,267.02 82.54,269.58 83.67,272.14 84.82,274.95 85.97,277.76 86.69,279.24 87.41,280.72 88.18,282.96 88.95,285.20 89.40,286.30 89.85,287.40 90.62,288.92 91.39,290.44 92.23,292.17 93.08,293.90 94.07,295.39 95.05,296.88 95.78,298.11 96.51,299.33 97.32,300.77 98.12,302.20 99.21,303.59 100.29,304.98 101.09,306.31 101.89,307.64 102.59,308.68 103.28,309.71 103.98,311.14 104.68,312.56 105.39,313.68 106.10,314.79 106.82,316.29 107.55,317.78 108.17,319.03 108.80,320.29 109.52,321.39 110.23,322.49 111.06,324.12 111.90,325.75 112.68,326.77 113.47,327.79 114.45,328.89 115.42,329.99 116.41,331.21 117.40,332.43 118.07,333.31 118.74,334.19 120.36,335.46 121.97,336.73 122.95,337.59 123.93,338.44 124.97,339.83 126.00,341.22 126.87,342.41 127.74,343.59 128.75,344.42 129.76,345.25 130.68,346.03 131.60,346.81 132.70,347.81 133.80,348.82 135.12,349.90 136.44,350.99 137.50,351.94 138.55,352.89 139.48,353.67 140.40,354.44 141.74,355.62 143.08,356.81 144.45,358.16 145.83,359.51 146.67,360.18 147.51,360.84 148.58,361.65 149.64,362.46 150.85,363.31 152.06,364.16 153.22,365.32 154.38,366.48 155.29,367.40 156.19,368.33 155.19,367.57 154.20,366.82 156.01,366.33 157.83,365.84 159.39,365.59 160.96,365.34 162.26,365.00 163.55,364.66 165.64,364.29 167.73,363.92 169.21,363.68 170.69,363.44 171.88,363.11 173.07,362.78 174.95,362.31 176.82,361.84 178.07,361.40 179.32,360.97 180.76,360.68 182.20,360.39 182.55,360.36 182.91,360.32 183.29,360.32 183.67,360.33 184.04,360.42 184.40,360.52 184.74,360.70 185.07,360.88 185.35,361.14 185.63,361.39 185.84,361.71 186.05,362.02 186.18,362.38 186.31,362.74 186.35,363.12 186.39,363.49 186.34,363.87 186.29,364.24 186.15,364.60 186.01,364.95 185.79,365.26 185.57,365.57 185.28,365.82 185.00,366.06 184.66,366.23 184.32,366.41 183.95,366.49 183.58,366.58 181.87,365.09 180.17,363.61 179.05,362.95 177.93,362.29 177.55,361.27 177.18,360.24 176.29,358.80 175.39,357.35 175.21,356.29 175.02,355.22 174.71,354.16 174.40,353.10 173.53,351.51 172.66,349.92 171.41,347.90 170.15,345.88 169.43,344.79 168.71,343.70 167.83,342.41 166.95,341.11 166.14,339.74 165.33,338.37 164.55,336.96 163.76,335.54 162.82,333.04 161.87,330.55 160.81,328.84 159.74,327.13 158.57,325.07 157.40,323.00 156.62,321.61 155.85,320.22 154.73,318.29 153.60,316.37 152.51,314.41 151.42,312.46 150.14,310.40 148.85,308.35 148.03,307.15 147.20,305.96 145.98,304.29 144.77,302.62 143.52,300.61 142.28,298.60 141.25,296.70 140.22,294.81 139.14,293.02 138.06,291.23 137.06,289.02 136.05,286.80 135.13,284.69 134.22,282.58 133.47,280.26 132.72,277.94 131.93,276.01 131.14,274.09 130.28,272.06 129.43,270.03 128.72,267.93 128.00,265.84 127.31,264.15 126.62,262.47 125.84,260.77 125.05,259.07 124.31,257.70 123.57,256.32 123.01,254.99 122.44,253.66 121.74,252.39 121.04,251.12 120.49,249.99 119.93,248.87 119.21,247.54 118.50,246.21 117.69,245.22 116.89,244.23 115.95,242.60 115.00,240.97 114.00,239.48 112.99,237.99 112.51,236.95 112.03,235.92 110.80,233.82 109.57,231.72 108.96,230.52 108.35,229.33 107.21,227.79 106.08,226.26 105.00,224.18 103.92,222.11 102.75,220.21 101.58,218.31 100.68,217.01 99.78,215.71 98.85,214.20 97.93,212.68 97.15,211.09 96.38,209.50 95.63,208.29 94.88,207.09 94.03,205.66 93.19,204.23 92.34,202.76 91.49,201.29 90.64,199.81 89.78,198.33 88.92,196.61 88.06,194.90 87.10,193.42 86.14,191.94 85.29,190.33 84.44,188.72 83.61,187.26 82.79,185.80 82.05,184.48 81.30,183.16 80.51,181.56 79.71,179.96 78.79,178.76 77.86,177.56 76.88,175.86 75.90,174.15 75.02,172.18 74.14,170.21 73.01,168.27 71.88,166.33 70.87,164.41 69.86,162.48 68.78,160.90 67.71,159.32 66.55,157.19 65.39,155.05 64.26,153.37 63.14,151.70 62.10,149.50 61.06,147.31 59.98,145.25 58.90,143.18 57.90,140.70 56.90,138.22 56.13,136.35 55.35,134.48 54.64,132.86 53.92,131.23 53.11,129.77 52.30,128.30 51.68,126.91 51.06,125.52 50.46,124.13 49.86,122.74 49.25,121.31 48.64,119.88 48.03,118.64 47.42,117.41 46.80,115.99 46.17,114.58 45.57,113.13 44.96,111.68 44.24,110.30 43.53,108.93 42.85,107.18 42.16,105.44 41.54,103.89 40.92,102.34 40.31,100.84 39.70,99.33 38.78,97.00 37.87,94.67 37.17,93.01 36.47,91.36 36.12,90.02 35.77,88.69 35.14,86.81 34.50,84.93 33.87,83.43 33.23,81.93 33.01,80.81 32.79,79.69 32.32,78.15 31.84,76.60 31.54,75.51 31.25,74.41 30.66,72.15 30.08,69.88 29.63,67.56 29.19,65.24 28.63,63.21 28.07,61.18 27.36,59.32 26.66,57.46 25.82,55.67 24.99,53.89 24.41,51.78 23.82,49.66 23.26,47.67 22.69,45.67 22.36,44.61 22.03,43.55 21.68,42.27 21.34,41.00 21.02,39.77 20.71,38.55 20.42,37.35 20.12,36.16 19.31,33.89 18.50,31.63 17.97,30.17 17.44,28.71 16.75,26.89 16.06,25.07 15.41,23.31 14.75,21.55 14.40,20.26 14.04,18.97 13.45,17.59 12.85,16.20 11.97,15.26 11.09,14.32 10.19,13.04 9.30,11.76 8.34,10.51 7.38,9.26 6.48,8.12 5.57,6.99 4.51,6.09 3.44,5.19 2.67,4.35 1.89,3.52 1.00,2.12 0.10,0.73 -1.51,-1.25 -3.14,-3.24 -3.46,-3.74 -3.79,-4.24 -3.94,-4.82 -4.09,-5.39 -4.04,-5.99 -4.00,-6.58 -3.77,-7.13 -3.54,-7.68 -3.15,-8.12 -2.76,-8.57 -2.24,-8.87 -1.73,-9.17 -1.14,-9.29 -0.56,-9.40 0.02,-9.33 0.61,-9.25 1.15,-8.99 1.68,-8.74 2.11,-8.32 2.53,-7.90 2.80,-7.37 3.07,-6.84 3.16,-6.25 3.25,-5.66 3.14,-5.08 3.03,-4.49 2.74,-3.97 2.46,-3.45 2.02,-3.05 1.58,-2.65 1.03,-2.40 0.49,-2.16 -0.09,-2.11 -0.69,-2.06 -1.27,-2.19 -1.84,-2.33 -2.35,-2.65 -2.85,-2.96 -3.23,-3.42 -3.61,-3.88 -3.82,-4.44 -4.03,-5.00 -4.05,-5.59 -4.07,-6.19 -3.90,-6.76 -3.74,-7.33 -3.39,-7.82 -3.05,-8.30 -2.57,-8.66 -2.09,-9.01 -1.52,-9.19 -0.95,-9.37 -0.36,-9.36 0.23,-9.35 0.79,-9.15 1.35,-8.95 1.81,-8.58 2.28,-8.21 2.28,-8.21 2.28,-8.21 3.38,-6.75 4.48,-5.29 5.23,-4.00 5.97,-2.71 6.91,-1.77 7.85,-0.84 8.51,0.05 9.17,0.94 10.24,2.13 11.31,3.31 12.29,4.36 13.26,5.41 14.05,6.78 14.83,8.14 15.59,9.22 16.35,10.31 17.41,11.50 18.47,12.70 19.18,14.21 19.90,15.73 20.18,16.85 20.47,17.96 20.73,19.41 20.99,20.85 21.48,22.48 21.97,24.10 22.56,25.68 23.14,27.26 23.55,28.66 23.95,30.06 24.27,31.13 24.58,32.20 25.13,33.46 25.68,34.71 25.99,35.89 26.31,37.07 26.63,38.24 26.95,39.40 27.29,40.56 27.64,41.71 28.22,43.86 28.80,46.01 29.34,47.98 29.88,49.95 30.50,51.63 31.12,53.31 31.99,55.46 32.87,57.62 33.45,59.73 34.04,61.84 34.60,64.09 35.16,66.34 35.47,67.45 35.78,68.55 36.07,69.71 36.36,70.87 36.92,72.89 37.48,74.91 37.98,76.88 38.48,78.85 38.76,80.24 39.05,81.62 39.62,83.46 40.19,85.29 40.47,86.38 40.75,87.47 41.00,88.59 41.25,89.70 41.80,91.57 42.34,93.43 42.61,94.56 42.87,95.69 43.25,96.72 43.63,97.76 44.22,99.27 44.82,100.77 45.44,102.32 46.06,103.86 46.71,105.40 47.35,106.94 48.15,108.49 48.96,110.04 49.53,111.49 50.10,112.93 50.66,114.31 51.21,115.70 51.77,117.06 52.33,118.42 52.87,119.89 53.41,121.36 53.92,122.80 54.43,124.25 54.82,125.54 55.21,126.82 55.98,128.46 56.76,130.09 57.36,131.76 57.97,133.43 58.71,135.30 59.45,137.18 60.41,139.53 61.37,141.87 62.51,143.96 63.64,146.06 64.61,148.05 65.59,150.04 66.81,151.80 68.02,153.57 69.18,155.55 70.33,157.53 71.49,159.23 72.65,160.93 73.71,162.73 74.77,164.53 76.11,166.56 77.46,168.59 78.40,170.35 79.34,172.11 80.25,173.59 81.16,175.07 82.28,176.57 83.39,178.07 84.21,179.62 85.03,181.18 85.69,182.48 86.34,183.79 87.21,185.31 88.07,186.83 88.80,188.23 89.53,189.64 90.68,191.25 91.83,192.87 92.73,194.43 93.64,196.00 94.55,197.45 95.45,198.89 96.35,200.31 97.25,201.73 98.13,203.10 99.01,204.47 99.90,205.86 100.80,207.25 101.50,208.55 102.20,209.86 103.13,211.16 104.07,212.47 105.17,213.80 106.27,215.14 107.10,216.33 107.92,217.53 108.54,218.64 109.15,219.75 109.61,220.75 110.07,221.75 110.98,223.24 111.90,224.73 112.58,225.74 113.27,226.75 113.87,227.88 114.47,229.00 115.07,230.06 115.66,231.12 116.45,232.37 117.25,233.63 118.02,235.27 118.79,236.91 119.39,237.85 119.99,238.79 120.48,239.98 120.98,241.17 121.57,242.06 122.15,242.96 122.61,244.06 123.06,245.17 123.39,246.19 123.73,247.21 124.11,248.30 124.49,249.38 125.20,250.90 125.90,252.42 126.25,253.66 126.59,254.90 127.20,256.37 127.81,257.84 128.58,259.65 129.36,261.45 129.95,263.21 130.54,264.97 131.23,266.97 131.92,268.98 132.79,271.01 133.66,273.04 134.51,275.06 135.36,277.08 136.08,279.26 136.80,281.43 137.74,283.51 138.68,285.58 139.65,287.61 140.62,289.64 141.78,291.45 142.95,293.26 144.00,295.02 145.05,296.79 146.30,298.61 147.56,300.42 149.03,302.15 150.49,303.88 151.18,305.10 151.86,306.31 153.34,308.32 154.81,310.32 156.22,312.33 157.62,314.34 158.50,316.37 159.37,318.41 159.99,319.70 160.60,321.00 161.88,322.86 163.16,324.71 164.67,326.64 166.18,328.58 167.31,330.64 168.43,332.71 169.31,334.04 170.19,335.36 170.90,336.45 171.62,337.53 172.72,338.82 173.81,340.10 174.55,341.09 175.29,342.07 176.36,343.38 177.44,344.68 178.54,346.47 179.64,348.25 180.28,349.37 180.92,350.49 181.16,351.86 181.39,353.24 181.78,354.36 182.17,355.48 182.43,356.92 182.68,358.36 183.96,359.48 185.23,360.59 185.74,361.58 186.25,362.57 184.58,361.45 182.91,360.32 183.29,360.32 183.67,360.33 184.04,360.42 184.40,360.52 184.74,360.70 185.07,360.88 185.35,361.14 185.63,361.39 185.84,361.71 186.05,362.02 186.18,362.38 186.31,362.74 186.35,363.11 186.39,363.49 186.34,363.87 186.29,364.24 186.15,364.60 186.01,364.95 185.79,365.26 185.57,365.57 185.28,365.82 185.00,366.06 184.66,366.23 184.32,366.41 183.95,366.49 183.58,366.58 182.87,366.59 182.17,366.60 180.92,366.91 179.67,367.22 178.63,367.45 177.59,367.69 176.20,367.95 174.82,368.22 173.21,368.51 171.60,368.80 170.38,369.01 169.17,369.22 167.31,369.93 165.46,370.63 163.87,371.21 162.29,371.80 161.07,372.11 159.85,372.43 158.16,372.95 156.48,373.47 154.53,373.53 152.58,373.60 151.38,372.40 150.18,371.20 149.38,370.46 148.59,369.73 147.44,368.76 146.28,367.79 145.12,366.93 143.95,366.06 142.71,364.98 141.47,363.91 140.14,362.59 138.82,361.27 137.80,360.29 136.79,359.30 135.41,357.97 134.03,356.65 133.05,355.61 132.07,354.58 131.25,353.81 130.43,353.04 129.32,351.80 128.22,350.57 127.42,349.80 126.62,349.04 125.17,347.84 123.72,346.64 122.82,345.45 121.91,344.27 121.17,343.27 120.43,342.27 119.62,341.50 118.82,340.74 117.85,339.94 116.89,339.13 115.33,337.25 113.77,335.37 112.85,334.24 111.94,333.10 110.81,331.85 109.69,330.61 108.75,329.30 107.80,327.99 106.96,326.55 106.11,325.11 105.28,323.78 104.44,322.45 103.82,321.17 103.20,319.90 102.58,318.65 101.97,317.39 101.12,316.04 100.28,314.69 99.72,313.51 99.16,312.33 98.49,311.23 97.82,310.13 97.02,308.83 96.22,307.54 95.10,305.62 93.97,303.71 93.55,302.40 93.12,301.10 92.62,299.96 92.13,298.82 91.03,297.15 89.92,295.48 89.05,293.76 88.17,292.04 87.30,290.26 86.42,288.47 86.20,287.38 85.97,286.29 85.15,284.19 84.33,282.08 83.71,280.53 83.09,278.98 81.88,276.26 80.68,273.54 79.46,271.08 78.24,268.63 76.97,266.28 75.70,263.94 74.94,262.20 74.18,260.47 73.12,258.60 72.07,256.73 71.49,255.41 70.92,254.08 70.37,252.70 69.82,251.31 69.40,250.17 68.99,249.04 68.16,247.66 67.33,246.28 66.54,244.88 65.75,243.48 65.23,242.14 64.71,240.81 64.23,239.56 63.74,238.31 63.40,237.16 63.05,236.01 62.49,234.50 61.92,233.00 61.32,231.48 60.72,229.95 59.94,228.24 59.16,226.52 58.45,224.29 57.74,222.06 57.33,219.87 56.93,217.67 56.37,215.56 55.80,213.45 55.31,211.41 54.83,209.36 54.05,207.13 53.26,204.90 52.70,202.92 52.13,200.95 51.67,199.13 51.21,197.31 50.40,194.97 49.59,192.62 48.98,190.73 48.37,188.84 47.77,187.11 47.17,185.38 46.50,183.67 45.84,181.95 44.95,179.94 44.06,177.93 43.18,175.93 42.30,173.93 41.53,171.79 40.75,169.64 39.72,167.21 38.68,164.79 38.01,162.89 37.33,161.00 36.67,159.48 36.02,157.95 35.19,156.27 34.36,154.60 33.72,153.12 33.08,151.64 32.27,149.98 31.46,148.32 30.86,146.69 30.26,145.06 29.68,143.53 29.09,141.99 28.49,140.39 27.89,138.80 27.27,137.12 26.65,135.44 26.06,133.89 25.46,132.33 24.88,130.96 24.30,129.58 23.65,128.16 23.00,126.74 22.16,124.80 21.32,122.86 20.77,121.13 20.21,119.41 19.85,117.93 19.48,116.45 18.96,114.76 18.44,113.07 18.16,111.69 17.88,110.31 17.64,109.07 17.40,107.82 17.12,105.76 16.85,103.71 16.40,101.53 15.96,99.35 15.65,98.17 15.35,96.99 14.85,95.36 14.36,93.73 13.91,91.80 13.46,89.87 12.76,87.67 12.06,85.47 11.22,83.35 10.38,81.23 9.77,79.50 9.17,77.78 8.54,76.27 7.91,74.77 7.12,72.93 6.33,71.09 5.79,69.54 5.25,68.00 4.70,66.34 4.16,64.69 3.55,62.61 2.94,60.52 2.36,58.44 1.78,56.35 1.38,54.64 0.98,52.93 0.27,50.70 -0.42,48.47 -0.75,46.31 -1.07,44.16 -1.20,42.45 -1.34,40.75 -1.65,38.94 -1.95,37.12 -2.15,35.55 -2.35,33.98 -2.41,32.59 -2.47,31.19 -2.65,29.61 -2.83,28.04 -2.86,26.61 -2.89,25.19 -3.00,23.55 -3.11,21.92 -2.96,20.82 -2.81,19.73 -2.76,17.49 -2.70,15.24 -2.51,13.12 -2.31,11.00 -2.36,9.26 -2.41,7.51 -2.38,6.20 -2.35,4.89 -2.30,3.80 -2.25,2.71 -2.21,1.35 -2.17,0 -2.14,-0.26 -2.11,-0.52 -2.02,-0.76 -1.92,-1.01 -1.77,-1.22 -1.62,-1.44 -1.43,-1.61 -1.23,-1.79 -1.00,-1.91 -0.77,-2.03 -0.51,-2.09 -0.26,-2.16 0.00,-2.16 0.26,-2.16 0.51,-2.09 0.77,-2.03 1.00,-1.91 1.23,-1.79 1.43,-1.61 1.62,-1.44 1.77,-1.22 1.92,-1.01 2.02,-0.76 2.11,-0.52 2.14,-0.26 2.17,0.00 2.17,0.00 L 2.17,0 Z"></path></g></svg>