<svg version="1.1" xmlns="http://www.w3.org/2000/svg" viewBox="0 0 52 81" width="52" height="81"><!-- svg-source:excalidraw --><metadata></metadata><defs><style class="style-fonts">
      </style></defs><g transform="translate(22 68) rotate(0 4 -27.5)" stroke="none"><path fill="#e03131" d="M -9.27,4.87 Q -9.27,4.87 -12.04,-0.64 -14.80,-6.17 -16.91,-12.07 -19.01,-17.98 -20.66,-24.53 -22.31,-31.08 -22.83,-36.77 -23.35,-42.46 -22.69,-49.68 -22.03,-56.91 -19.17,-60.99 -16.32,-65.07 -10.06,-67.42 -3.81,-69.77 1.06,-70.21 5.94,-70.66 12.83,-69.69 19.72,-68.71 23.44,-65.63 27.16,-62.54 29.89,-55.62 32.63,-48.70 33.07,-43.27 33.51,-37.85 32.63,-32.16 31.76,-26.48 29.52,-21.89 27.28,-17.31 21.37,-12.61 15.46,-7.92 10.41,-7.36 5.36,-6.79 1.10,-6.77 -3.16,-6.75 -9.08,-10.51 -15.00,-14.27 -17.62,-21.25 -20.24,-28.22 -21.30,-35.37 -22.35,-42.51 -20.79,-51.44 -19.22,-60.38 -11.78,-65.18 -4.34,-69.98 0.69,-69.27 5.73,-68.56 11.99,-62.59 18.25,-56.62 22.07,-50.35 25.90,-44.08 26.99,-38.72 28.09,-33.35 27.78,-29.10 27.48,-24.86 22.58,-18.08 17.69,-11.30 7.10,-10.86 -3.47,-10.42 -0.11,-9.33 3.25,-8.23 1.48,-8.27 -0.27,-8.30 -1.98,-8.75 -3.68,-9.21 -5.23,-10.05 -6.78,-10.90 -8.08,-12.10 -9.38,-13.29 -10.35,-14.76 -11.33,-16.23 -11.92,-17.89 -12.52,-19.55 -12.70,-21.31 -12.88,-23.06 -12.64,-24.81 -12.39,-26.56 -11.74,-28.20 -11.08,-29.84 -10.05,-31.27 -9.02,-32.70 -7.68,-33.85 -6.34,-35.00 -4.76,-35.79 -3.18,-36.58 -1.46,-36.97 0.25,-37.36 7.74,-35.62 15.23,-33.89 19.11,-29.80 22.98,-25.71 25.41,-19.33 27.84,-12.95 28.75,-7.81 29.65,-2.68 29.78,-0.97 29.92,0.74 29.64,2.43 29.36,4.13 28.68,5.71 28.01,7.29 26.97,8.66 25.94,10.03 24.60,11.12 23.27,12.20 21.71,12.93 20.16,13.67 18.48,14.01 16.79,14.35 15.07,14.27 13.36,14.20 11.71,13.72 10.06,13.24 8.57,12.38 7.09,11.51 5.85,10.32 4.61,9.13 3.70,7.67 2.78,6.22 2.24,4.59 1.70,2.95 7.62,8.61 13.54,14.26 8.61,12.79 3.68,11.32 -1.83,5.57 -7.35,-0.17 -8.12,-7.15 -8.89,-14.14 -7.02,-18.59 -5.15,-23.04 -3.86,-25.13 -2.57,-27.22 -1.83,-29.49 -1.09,-31.76 0.32,-33.67 1.74,-35.58 3.70,-36.94 5.66,-38.30 7.95,-38.97 10.24,-39.63 12.62,-39.53 15.01,-39.42 17.23,-38.56 19.46,-37.71 21.29,-36.18 23.12,-34.66 24.38,-32.63 25.63,-30.60 26.17,-28.28 26.70,-25.95 26.47,-23.58 26.24,-21.21 25.26,-19.03 24.28,-16.86 22.66,-15.11 21.04,-13.36 18.95,-12.22 16.85,-11.08 14.50,-10.67 12.15,-10.26 9.80,-10.62 7.44,-10.98 5.32,-12.07 3.20,-13.17 1.54,-14.88 -0.10,-16.59 -1.13,-18.75 -2.15,-20.90 -2.44,-23.27 -2.72,-25.63 -2.23,-27.97 -1.75,-30.30 -0.54,-32.36 0.66,-34.42 2.46,-35.98 4.26,-37.54 6.47,-38.45 8.67,-39.36 11.05,-39.51 13.43,-39.66 15.74,-39.05 18.04,-38.44 20.03,-37.12 22.02,-35.80 23.48,-33.92 24.94,-32.04 25.73,-29.79 26.51,-27.53 26.54,-25.15 26.56,-22.77 26.57,-22.77 26.57,-22.77 25.99,-19.74 25.42,-16.70 21.45,-10.74 17.49,-4.77 16.68,-9.46 15.88,-14.15 22.77,-8.41 29.65,-2.68 29.78,-0.97 29.92,0.74 29.64,2.43 29.36,4.13 28.68,5.71 28.01,7.29 26.97,8.66 25.94,10.03 24.60,11.11 23.27,12.20 21.72,12.93 20.16,13.67 18.48,14.01 16.79,14.35 15.08,14.27 13.36,14.20 11.71,13.72 10.06,13.24 8.57,12.38 7.09,11.51 5.85,10.32 4.61,9.13 3.70,7.67 2.78,6.22 2.24,4.59 1.70,2.96 2.47,-2.63 3.25,-8.23 1.48,-8.27 -0.27,-8.30 -1.98,-8.75 -3.68,-9.21 -5.23,-10.05 -6.78,-10.90 -8.08,-12.10 -9.38,-13.29 -10.35,-14.76 -11.33,-16.23 -11.92,-17.89 -12.52,-19.55 -12.70,-21.31 -12.88,-23.06 -12.64,-24.81 -12.39,-26.56 -11.74,-28.20 -11.08,-29.84 -10.05,-31.27 -9.02,-32.70 -7.68,-33.85 -6.34,-34.99 -4.76,-35.79 -3.18,-36.58 -1.46,-36.97 0.25,-37.36 0.40,-34.73 0.55,-32.10 -3.33,-37.65 -7.22,-43.21 -1.03,-46.08 5.15,-48.95 5.50,-44.54 5.85,-40.13 5.28,-35.08 4.71,-30.02 1.29,-32.63 -2.11,-35.24 2.07,-36.10 6.26,-36.96 8.30,-41.01 10.34,-45.07 4.93,-43.99 -0.46,-42.92 -0.59,-38.53 -0.72,-34.14 -0.19,-29.39 0.32,-24.65 1.81,-20.16 3.30,-15.67 6.29,-10.27 9.27,-4.87 9.72,-3.69 10.16,-2.51 10.32,-1.26 10.47,-0.01 10.32,1.24 10.17,2.49 9.72,3.67 9.28,4.85 8.56,5.89 7.84,6.93 6.90,7.77 5.96,8.61 4.84,9.20 3.72,9.79 2.50,10.09 1.27,10.39 0.01,10.40 -1.25,10.40 -2.47,10.10 -3.70,9.79 -4.82,9.21 -5.94,8.62 -6.88,7.79 -7.83,6.95 -8.55,5.91 -9.27,4.87 -9.27,4.87 L -9.27,4.87 Z"></path></g></svg>