<svg version="1.1" xmlns="http://www.w3.org/2000/svg" viewBox="0 0 177.14572781802872 46.25422009261047" width="177.14572781802872" height="46.25422009261047"><!-- svg-source:excalidraw --><metadata></metadata><defs><style class="style-fonts">
      </style></defs><g transform="translate(71.7683258410807 89.78425920975678) rotate(82.51261180285636 17 -64)" stroke="none"><path fill="#e03131" d="M -10.39,0 Q -10.39,0 -10.25,-6.32 -10.10,-12.64 -10.07,-18.50 -10.03,-24.35 -10.13,-29.13 -10.23,-33.92 -9.82,-40.90 -9.41,-47.88 -9.57,-53.66 -9.74,-59.43 -9.92,-63.83 -10.11,-68.22 -8.14,-75.42 -6.17,-82.61 -5.18,-87.62 -4.19,-92.62 -3.52,-97.05 -2.85,-101.48 -2.12,-107.85 -1.39,-114.22 -0.59,-118.99 0.19,-123.77 1.07,-128.89 1.95,-134.01 4.96,-140.57 7.96,-147.13 14.24,-150.85 20.51,-154.56 28.35,-151.39 36.18,-148.21 38.99,-142.40 41.80,-136.59 44.04,-128.78 46.28,-120.97 46.05,-115.34 45.81,-109.71 44.17,-104.25 42.54,-98.79 40.52,-93.22 38.50,-87.66 36.40,-79.89 34.29,-72.13 31.82,-62.99 29.34,-53.85 27.45,-46.81 25.55,-39.78 24.22,-32.63 22.90,-25.48 22.33,-18.05 21.77,-10.62 21.80,-5.62 21.82,-0.61 21.26,6.96 20.70,14.54 17.73,18.92 14.77,23.30 5.00,20.20 -4.75,17.10 -6.76,9.84 -8.78,2.58 -7.62,-5.38 -6.46,-13.35 -3.40,-17.32 -0.33,-21.28 2.66,-25.51 5.67,-29.73 5.84,-34.02 6.02,-38.31 6.04,-42.64 6.06,-46.97 5.97,-52.91 5.89,-58.85 6.61,-63.28 7.34,-67.71 8.44,-73.91 9.55,-80.11 11.91,-85.61 14.28,-91.11 14.89,-95.51 15.49,-99.91 15.83,-106.26 16.16,-112.61 16.25,-118.57 16.33,-124.52 16.31,-126.31 16.28,-128.09 16.66,-130.28 17.03,-132.47 18.08,-134.42 19.14,-136.37 20.76,-137.89 22.38,-139.40 24.40,-140.32 26.42,-141.24 28.63,-141.46 30.84,-141.68 33.00,-141.19 35.16,-140.70 37.06,-139.54 38.95,-138.38 40.37,-136.68 41.80,-134.98 42.60,-132.91 43.41,-130.84 43.51,-128.63 43.62,-126.41 43.01,-124.28 42.40,-122.15 41.14,-120.32 39.88,-118.49 38.11,-117.16 36.33,-115.83 34.22,-115.14 32.11,-114.45 29.89,-114.46 27.68,-114.48 25.58,-115.20 23.48,-115.93 21.73,-117.28 19.97,-118.64 18.74,-120.48 17.51,-122.33 16.93,-124.47 16.35,-126.61 16.49,-128.83 16.62,-131.04 17.46,-133.10 18.30,-135.15 19.75,-136.83 21.20,-138.51 23.10,-139.64 25.01,-140.77 27.18,-141.23 29.36,-141.69 31.56,-141.44 33.76,-141.18 35.77,-140.23 37.78,-139.29 39.38,-137.75 40.97,-136.21 42.00,-134.24 43.02,-132.28 43.37,-130.08 43.71,-127.89 43.71,-127.89 43.71,-127.90 43.62,-123.66 43.52,-119.43 43.50,-111.55 43.48,-103.67 42.70,-96.60 41.93,-89.53 39.27,-80.70 36.61,-71.87 35.78,-67.32 34.95,-62.77 34.45,-56.56 33.96,-50.35 33.91,-45.71 33.86,-41.07 33.68,-36.80 33.49,-32.54 32.50,-25.15 31.50,-17.76 28.49,-11.71 25.47,-5.66 21.59,-3.02 17.70,-0.38 17.77,4.19 17.83,8.77 6.91,8.19 -4.01,7.61 -3.86,3.33 -3.72,-0.95 -3.47,-6.34 -3.22,-11.74 -3.04,-16.26 -2.86,-20.79 -1.52,-29.71 -0.17,-38.62 1.34,-45.33 2.85,-52.05 4.99,-60.20 7.13,-68.36 8.68,-76.25 10.24,-84.14 13.04,-92.10 15.84,-100.06 17.41,-105.90 18.97,-111.75 18.90,-116.18 18.82,-120.61 18.13,-126.84 17.44,-133.07 23.35,-131.95 29.26,-130.84 28.13,-123.68 27.01,-116.52 26.08,-112.27 25.15,-108.02 23.71,-102.36 22.26,-96.71 21.59,-92.02 20.92,-87.33 19.38,-82.63 17.84,-77.92 15.86,-71.06 13.89,-64.21 13.62,-59.68 13.34,-55.15 12.77,-50.08 12.20,-45.01 11.21,-39.46 10.23,-33.92 10.13,-29.13 10.03,-24.35 10.07,-18.50 10.10,-12.64 10.25,-6.32 10.39,0 10.24,1.24 10.09,2.48 9.64,3.65 9.20,4.82 8.49,5.86 7.77,6.89 6.84,7.72 5.90,8.55 4.79,9.13 3.68,9.71 2.46,10.01 1.25,10.31 -0.00,10.31 -1.25,10.31 -2.46,10.01 -3.68,9.71 -4.79,9.13 -5.90,8.55 -6.84,7.72 -7.77,6.89 -8.49,5.85 -9.20,4.82 -9.64,3.65 -10.09,2.48 -10.24,1.24 -10.39,-0.00 -10.39,-0.00 L -10.39,0 Z"></path></g></svg>