<svg version="1.1" xmlns="http://www.w3.org/2000/svg" viewBox="0 0 186 165" width="186" height="165"><!-- svg-source:excalidraw --><metadata></metadata><defs><style class="style-fonts">
      </style></defs><g transform="translate(56 129) rotate(0 37 -46.5)" stroke="none"><path fill="#e03131" d="M 27.88,29.30 Q 27.88,29.30 20.53,29.29 13.17,29.28 7.66,29.50 2.16,29.71 -4.40,30.18 -10.97,30.65 -17.00,29.52 -23.04,28.39 -27.37,26.52 -31.71,24.65 -39.97,18.27 -48.22,11.90 -51.10,4.90 -53.97,-2.10 -55.03,-6.70 -56.10,-11.30 -56.56,-16.29 -57.01,-21.28 -57.38,-28.74 -57.75,-36.19 -57.78,-40.67 -57.80,-45.15 -57.37,-49.47 -56.94,-53.79 -55.58,-61.40 -54.22,-69.02 -49.14,-78.36 -44.06,-87.69 -40.68,-91.69 -37.30,-95.70 -30.58,-100.33 -23.86,-104.95 -18.77,-107.86 -13.67,-110.77 -9.41,-113.23 -5.16,-115.70 0.21,-117.81 5.59,-119.91 13.65,-122.38 21.70,-124.84 28.46,-126.36 35.21,-127.88 41.16,-129.23 47.10,-130.58 53.10,-129.98 59.11,-129.39 66.52,-125.64 73.93,-121.90 80.22,-117.37 86.51,-112.85 92.77,-108.90 99.04,-104.95 103.36,-100.34 107.67,-95.74 110.82,-91.89 113.98,-88.04 116.49,-83.04 119.00,-78.05 120.85,-72.57 122.70,-67.08 124.62,-63.17 126.53,-59.25 127.88,-53.91 129.24,-48.57 129.78,-43.46 130.32,-38.35 130.54,-33.52 130.77,-28.69 131.06,-21.34 131.35,-14.00 131.45,-6.53 131.56,0.92 129.71,6.04 127.85,11.15 123.03,17.61 118.20,24.06 112.98,26.53 107.77,29.01 98.92,31.96 90.08,34.90 85.81,35.92 81.53,36.93 76.96,37.39 72.39,37.85 64.94,38.12 57.49,38.38 52.40,37.98 47.30,37.58 41.25,35.28 35.20,32.97 24.82,28.50 14.44,24.03 4.97,17.34 -4.48,10.65 -7.97,6.18 -11.46,1.72 -15.93,-1.18 -20.40,-4.08 -24.12,-13.55 -27.83,-23.02 -28.66,-31.67 -29.50,-40.32 -29.95,-46.87 -30.41,-53.42 -30.60,-59.94 -30.78,-66.45 -30.89,-73.07 -31.00,-79.70 -26.53,-85.12 -22.05,-90.55 -14.85,-93.33 -7.64,-96.11 -2.41,-99.27 2.82,-102.44 6.76,-104.28 10.70,-106.12 16.37,-107.27 22.04,-108.42 28.36,-106.81 34.69,-105.21 40.04,-100.95 45.39,-96.69 51.01,-91.68 56.63,-86.66 60.35,-82.00 64.08,-77.33 69.25,-69.63 74.42,-61.92 75.28,-57.41 76.14,-52.89 76.50,-48.53 76.85,-44.18 77.56,-38.33 78.26,-32.48 78.81,-25.65 79.35,-18.81 79.06,-12.19 78.77,-5.56 77.10,1.26 75.44,8.08 73.44,12.21 71.44,16.34 68.30,19.65 65.16,22.96 58.29,25.61 51.41,28.26 45.42,27.66 39.43,27.05 32.29,22.78 25.15,18.51 19.58,12.74 14.01,6.96 10.84,0.70 7.68,-5.56 5.30,-9.29 2.92,-13.02 1.13,-19.83 -0.64,-26.63 -1.22,-32.50 -1.80,-38.37 -1.96,-44.29 -2.12,-50.20 -0.68,-56.70 0.76,-63.19 4.30,-73.28 7.85,-83.36 9.78,-87.72 11.72,-92.08 15.43,-96.22 19.15,-100.37 24.56,-104.10 29.97,-107.84 36.68,-109.31 43.38,-110.79 48.64,-111.15 53.89,-111.52 66.00,-108.03 78.11,-104.55 83.19,-101.78 88.27,-99.00 93.07,-96.66 97.87,-94.33 105.41,-88.44 112.94,-82.55 114.95,-78.05 116.95,-73.54 118.03,-67.27 119.10,-61.00 119.23,-53.50 119.37,-45.99 119.29,-40.97 119.21,-35.94 118.82,-28.20 118.42,-20.45 115.67,-12.76 112.92,-5.07 110.52,-1.20 108.12,2.66 104.11,5.98 100.10,9.29 90.72,10.06 81.35,10.82 73.39,8.98 65.43,7.13 59.00,5.59 52.57,4.04 45.89,3.17 39.20,2.31 30.71,-3.15 22.22,-8.63 20.07,-16.59 17.93,-24.56 15.25,-29.12 12.57,-33.69 10.50,-38.40 8.43,-43.10 7.46,-49.75 6.49,-56.40 6.30,-61.74 6.11,-67.08 8.60,-72.15 11.09,-77.21 15.71,-79.82 20.34,-82.43 25.86,-84.26 31.38,-86.09 36.65,-86.60 41.93,-87.11 48.48,-87.26 55.02,-87.41 60.33,-86.86 65.64,-86.32 72.75,-80.63 79.86,-74.95 82.73,-67.78 85.60,-60.60 86.86,-55.31 88.12,-50.01 87.96,-42.04 87.81,-34.08 83.63,-29.35 79.46,-24.61 74.69,-22.87 69.91,-21.12 64.81,-20.37 59.70,-19.63 51.58,-19.13 43.46,-18.64 33.42,-20.29 23.38,-21.95 19.43,-24.61 15.49,-27.28 12.57,-31.32 9.66,-35.36 8.17,-39.36 6.69,-43.37 6.00,-50.54 5.32,-57.71 7.44,-62.88 9.56,-68.06 15.11,-71.76 20.65,-75.47 29.23,-79.01 37.81,-82.55 46.18,-79.26 54.55,-75.98 57.51,-69.86 60.46,-63.74 61.08,-59.47 61.71,-55.20 62.15,-49.43 62.58,-43.65 59.67,-35.57 56.75,-27.48 52.12,-25.61 47.48,-23.73 41.21,-24.31 34.93,-24.90 31.91,-25.17 28.89,-25.44 26.78,-26.07 24.66,-26.70 22.86,-27.97 21.06,-29.24 19.76,-31.02 18.46,-32.80 17.80,-34.90 17.13,-37.00 17.17,-39.20 17.21,-41.41 17.96,-43.48 18.70,-45.56 20.06,-47.29 21.43,-49.01 23.28,-50.22 25.12,-51.42 27.26,-51.97 29.39,-52.52 31.59,-52.36 33.78,-52.20 35.82,-51.35 37.85,-50.49 39.50,-49.04 41.15,-47.58 42.25,-45.67 43.35,-43.76 43.79,-41.60 44.22,-39.44 43.94,-37.25 43.66,-35.07 42.70,-33.09 41.74,-31.10 40.19,-29.53 38.65,-27.96 36.68,-26.97 34.72,-25.97 32.54,-25.65 30.36,-25.34 28.19,-25.73 26.02,-26.13 24.09,-27.20 22.17,-28.27 20.68,-29.90 19.20,-31.52 18.31,-33.54 17.42,-35.56 17.22,-37.75 17.03,-39.95 17.54,-42.09 18.05,-44.23 19.23,-46.10 20.40,-47.97 22.10,-49.36 23.81,-50.75 25.87,-51.53 27.93,-52.31 30.13,-52.39 32.34,-52.46 32.33,-52.47 32.33,-52.47 34.50,-49.39 36.66,-46.31 38.09,-51.85 39.51,-57.39 35.13,-57.26 30.75,-57.12 31.05,-51.12 31.34,-45.12 37.05,-44.25 42.76,-43.38 49.43,-43.68 56.11,-43.97 60.75,-44.21 65.39,-44.44 64.29,-48.75 63.19,-53.07 61.81,-58.28 60.44,-63.49 54.94,-62.99 49.44,-62.48 43.66,-62.53 37.88,-62.58 32.93,-60.84 27.98,-59.10 29.44,-51.97 30.89,-44.83 35.63,-37.25 40.37,-29.68 41.93,-25.14 43.50,-20.59 50.09,-19.33 56.68,-18.06 63.29,-17.18 69.91,-16.30 75.38,-15.58 80.86,-14.85 85.54,-14.91 90.22,-14.96 92.20,-19.30 94.19,-23.64 94.69,-29.76 95.20,-35.88 95.10,-40.85 94.99,-45.83 94.92,-52.62 94.85,-59.40 94.87,-63.87 94.89,-68.35 91.72,-71.25 88.56,-74.14 83.04,-76.57 77.51,-78.99 73.43,-81.15 69.35,-83.30 61.87,-85.09 54.39,-86.89 48.15,-87.31 41.92,-87.74 36.55,-85.15 31.18,-82.56 29.35,-78.59 27.53,-74.61 25.64,-70.40 23.75,-66.19 21.51,-58.47 19.28,-50.75 19.53,-45.58 19.79,-40.41 20.71,-32.34 21.63,-24.28 25.65,-16.30 29.66,-8.33 33.82,-4.69 37.97,-1.05 44.82,1.80 51.67,4.66 53.71,-0.47 55.76,-5.60 55.38,-14.97 55.00,-24.34 54.47,-30.12 53.95,-35.89 53.84,-42.73 53.73,-49.57 53.75,-53.97 53.76,-58.36 48.75,-64.25 43.73,-70.15 36.96,-74.56 30.19,-78.97 25.16,-81.99 20.13,-85.00 13.25,-81.92 6.37,-78.83 1.89,-76.69 -2.58,-74.54 -7.79,-75.04 -13.01,-75.54 -12.90,-71.25 -12.79,-66.97 -12.60,-60.81 -12.42,-54.65 -12.02,-48.66 -11.62,-42.66 -10.43,-35.90 -9.24,-29.15 -8.19,-24.34 -7.15,-19.53 0.84,-13.15 8.83,-6.77 13.90,-3.48 18.97,-0.18 25.86,3.81 32.75,7.81 38.77,9.11 44.79,10.41 50.96,11.92 57.13,13.43 63.70,13.31 70.28,13.18 76.07,12.47 81.87,11.76 89.68,8.90 97.50,6.03 102.95,2.91 108.41,-0.20 108.49,-7.02 108.56,-13.84 108.65,-20.88 108.75,-27.92 108.65,-32.22 108.56,-36.52 107.93,-43.48 107.30,-50.43 105.05,-55.45 102.79,-60.47 100.32,-67.98 97.85,-75.48 93.54,-81.83 89.22,-88.17 82.09,-91.54 74.95,-94.90 69.15,-98.16 63.34,-101.42 59.57,-103.46 55.81,-105.49 50.71,-105.84 45.62,-106.19 39.25,-105.16 32.89,-104.12 26.67,-102.97 20.46,-101.82 13.20,-99.13 5.94,-96.44 1.69,-93.98 -2.54,-91.52 -6.65,-89.11 -10.75,-86.70 -14.89,-83.52 -19.03,-80.33 -23.77,-74.43 -28.50,-68.53 -30.57,-63.52 -32.64,-58.50 -33.38,-51.88 -34.12,-45.26 -34.12,-37.75 -34.12,-30.24 -33.86,-23.03 -33.60,-15.82 -32.34,-9.54 -31.09,-3.26 -26.45,0.47 -21.82,4.22 -16.35,6.94 -10.89,9.66 -4.62,9.96 1.65,10.26 6.97,10.19 12.30,10.12 19.63,9.45 26.95,8.77 28.19,8.87 29.42,8.96 30.60,9.35 31.77,9.73 32.82,10.39 33.87,11.05 34.74,11.93 35.60,12.82 36.22,13.89 36.85,14.96 37.20,16.15 37.55,17.34 37.60,18.57 37.66,19.81 37.42,21.02 37.18,22.24 36.65,23.36 36.13,24.48 35.35,25.44 34.57,26.41 33.58,27.16 32.60,27.90 31.46,28.40 30.33,28.89 29.10,29.09 27.88,29.30 27.88,29.30 L 27.88,29.30 Z"></path></g></svg>